<mxfile host="app.diagrams.net" modified="2023-02-22T19:55:31.844Z" agent="5.0 (Windows NT 10.0; Win64; x64) AppleWebKit/537.36 (KHTML, like Gecko) Chrome/110.0.0.0 Safari/537.36" etag="PlyVCP0TdUv-dL2V5DC3" version="20.8.8" type="github">
  <diagram name="Page-1" id="L8mq9G0hmt9Gp9m9xmb0">
    <mxGraphModel dx="2163" dy="304" grid="1" gridSize="10" guides="1" tooltips="1" connect="1" arrows="1" fold="1" page="0" pageScale="1" pageWidth="827" pageHeight="1169" math="0" shadow="0">
      <root>
        <mxCell id="0" />
        <mxCell id="1" parent="0" />
        <mxCell id="TsZBrLs7c3VGLClS2bjf-1" value="" style="whiteSpace=wrap;html=1;fillColor=none;dashed=1;strokeColor=#808080;" vertex="1" parent="1">
          <mxGeometry x="650" y="1580" width="220" height="470" as="geometry" />
        </mxCell>
        <mxCell id="TsZBrLs7c3VGLClS2bjf-2" value="" style="whiteSpace=wrap;html=1;fillColor=none;dashed=1;strokeColor=#808080;" vertex="1" parent="1">
          <mxGeometry x="665" y="1630" width="190" height="240" as="geometry" />
        </mxCell>
        <mxCell id="TsZBrLs7c3VGLClS2bjf-3" value="" style="whiteSpace=wrap;html=1;fillColor=none;dashed=1;strokeColor=#808080;" vertex="1" parent="1">
          <mxGeometry x="340" y="1580" width="290" height="470" as="geometry" />
        </mxCell>
        <mxCell id="TsZBrLs7c3VGLClS2bjf-4" value="" style="whiteSpace=wrap;html=1;fillColor=none;dashed=1;strokeColor=#808080;" vertex="1" parent="1">
          <mxGeometry x="370" y="1707" width="221" height="303" as="geometry" />
        </mxCell>
        <mxCell id="TsZBrLs7c3VGLClS2bjf-5" style="edgeStyle=orthogonalEdgeStyle;rounded=0;orthogonalLoop=1;jettySize=auto;html=1;entryX=1;entryY=0.5;entryDx=0;entryDy=0;strokeColor=#000000;" edge="1" parent="1" source="TsZBrLs7c3VGLClS2bjf-6" target="TsZBrLs7c3VGLClS2bjf-20">
          <mxGeometry relative="1" as="geometry">
            <Array as="points">
              <mxPoint x="900" y="1395" />
              <mxPoint x="900" y="1685" />
            </Array>
          </mxGeometry>
        </mxCell>
        <mxCell id="TsZBrLs7c3VGLClS2bjf-6" value="Open HTTP Files Source" style="shape=image;verticalLabelPosition=bottom;labelBackgroundColor=default;verticalAlign=top;aspect=fixed;imageAspect=0;image=data:image/png,iVBORw0KGgoAAAANSUhEUgAAAgAAAAIACAMAAADDpiTIAAAAA3NCSVQICAjb4U/gAAAACXBIWXMAAA3XAAAN1wFCKJt4AAAAGXRFWHRTb2Z0d2FyZQB3d3cuaW5rc2NhcGUub3Jnm+48GgAAAtBQTFRF////AAAAAAAAAAAAAAAAAAAAAAAAAAAAAAAAAAAAAAAAAAAAAAAAAAAAAAAAAAAAAAAAAAAAAAAAAAAAAAAAAAAAAAAAAAAAAAAAAAAAAAAAAAAAAAAAAAAAAAAAAAAAAAAAAAAAAAAAAAAAAAAAAAAAAAAAAAAAAAAAAAAAAAAAAAAAAAAAAAAAAAAAAAAAAAAAAAAAAAAAAAAAAAAAAAAAAAAAAAAAAAAAAAAAAAAAAAAAAAAAAAAAAAAAAAAAAAAAAAAAAAAAAAAAAAAAAAAAAAAAAAAAAAAAAAAAAAAAAAAAAAAAAAAAAAAAAAAAAAAAAAAAAAAAAAAAAAAAAAAAAAAAAAAAAAAAAAAAAAAAAAAAAAAAAAAAAAAAAAAAAAAAAAAAAAAAAAAAAAAAAAAAAAAAAAAAAAAAAAAAAAAAAAAAAAAAAAAAAAAAAAAAAAAAAAAAAAAAAAAAAAAAAAAAAAAAAAAAAAAAAAAAAAAAAAAAAAAAAAAAAAAAAAAAAAAAAAAAAAAAAAAAAAAAAAAAAAAAAAAAAAAAAAAAAAAAAAAAAAAAAAAAAAAAAAAAAAAAAAAAAAAAAAAAAAAAAAAAAAAAAAAAAAAAAAAAAAAAAAAAAAAAAAAAAAAAAAAAAAAAAAAAAAAAAAAAAAAAAAAAAAAAAAAAAAAAAAAAAAAAAAAAAAAAAAAAAAAAAAAAAAAAAAAAAAAAAAAAAAAAAAAAAAAAAAAAAAAAAAAAAAAAAAAAAAAAAAAAAAAAAAAAAAAAAAAAAAAAAAAAAAAAAAAAAAAAAAAAAAAAAAAAAAAAAAAAAAAAAAAAAAAAAAAAAAAAAAAAAAAAAAAAAAAAAAAAAAAAAAAAAAAAAAAAAAAAAAAAAAAAAAAAAAAAAAAAAAAAAAAAAAAAAAAAAAAAAAAAAAAAAAAAAAAAAAAAAAAAAAAAAAAAAAAAAAAAAAAAjcMAnQAAAO90Uk5TAAECAwQFBgcICQoLDA0OEBESExQVFhcYGRobHB0eHyAhIiQlJicoKSorLC0uLzAxMzQ2Nzg6Ozw9Pj9AQUJDR0hJSktMTU5RU1RVV1hZWltcXV5fYGFiY2RlZmdoaWprbG1ub3BxcnN0dXZ3eHl6e3x9fn+AgYKDhIaHiImKjI2Oj5CRkpOUlZaXmJmam5ydnp+goaKkpaanqKmqq6ytrq+wsbKztLW2t7i5uru8vb6/wMHCw8TFxsfIycrLzM3Oz9DR0tPU1dbX2Nna29zd3t/g4eLj5ebn6Onq6+zt7u/w8fLz9PX29/j5+vv8/f5uTquXAAAVSElEQVR42u2d/3+V1X3Ab3IDAgkMwTYE+SoMSsSyMSAyBQ1QlUmNRGzLKgUUJ4YBgw4ZlNWA6TYULEVmlW50JqybIxRUgqQNrOoQGVooJcRSIl9saBKS3H9hxb5GyL2fc+957jnP85zbvN8/n/M5zz2fd3I/z3nOc24kAgAAAAAAAAAAAAAAAAAAAAAAAAAA3Yxe4+5/7OlnNr74yqtgnVde3PjM04/dP66Xm7nvd9/GPb9oj4HvtP9iz8b7+jmV/KyitYfayEyQtB1aW5TlSPrHrjtNQsLg9LqxDnzrLzhMJsLj8IJwK4K8pQ0kIVwaluaFlv6+q86TgPA5v6pvOPl/sJ7Jd4P6B0NI/+hqJt4dqkcHfeO3splZd4nmlYHeFObuYspdY1ducPkf9g7z7R7vDAsq/3eeY7Zd5NydweR/fitz7Sat8wNIf04FE+0uFTl+57//XmbZZfb29zf/N9Uyx25Te5OvArzEDLvOS37mfynz6z5L/ct/MTt+MoD2Yr/yP+Yis5sJXBzj0w3ACb3xLx/ft5MtnPbZue/4Zb0MnPDlViC6J+XAbfuX3DU6vP0J3YC80XcteSP19ss9UR/G3pRi0KYfPjKADAXBgHmvXUmRjE32R52WfMSz83uTmeDos+Dj5PmYZnvEnh8kG+7TVX1ISsBfBn/7m2QZ+aCn5fGWJxns6ubPk5Dgyd98NUlSltsdbHiTeqhTd5CMcLjjVJKSbLjVoXaqR3pzIJkIi4FvqvOy0+oSkHoJ8Pke5CE8ejyvXhC0uRy0Q/n1v5AkhMtCZSGww94gI5WDlJCBsClR/nGOtDbGC6ox1jP/4bNelZ0XbI3QV7XuVJnN9IdPdqUiPVdsvTL2qGKA91j2d2NN6D1Fgh61NMA+Ofz54cy9GwxXvKS7z074IYp7QG4A3LkVUNwJDrESfZnioTMLAO4sByi2aiyzEv2AHPwB5t0dHpBzdMBG7Fz5RaBDzLpLHJJfFbLxwug9slxFTLpLFMlZusdC6A1i5LeYc7eQv6g3WIhcJ0Z+kil3i6fENNWZB86RS4ARyg4TF20/eunAxpLUb6vnzlhddfZs1eoZqb+phpVsPHDp6PZFE8m0gtvkIsD8ZdFRYuB3Vc3zr69LtqxIsTX17uvbGU7dnbxldEXL9dXnfHIt876YqFHGcWeJcdcoWpc03tDop8kOsuxT0dHZsqMi2Z7CsT+9IWgjDyBl5GdCs4zjyq8DTpAbl8U9jVDvSciu6dq0Rv1caUzcs6gyki0xyacXBbdKYS/JbcfFHx1Wq/wWKIsPqUxrNP6N9OZxZFsgSzy3batxXPE4wONyquq01yILE65WmdbElei6KOkWOCllqto4rHgixH6x6eLEhs2KxxEHE5selFsOEcReTLYFasTzIozDHpPCfl9sWiW0fEi+ARQeMLbLN4MPCUGryLbAD6RMHTMOe0YK+6zYVDo5fKPYcooUdIrYdKPQsoFsC4gvb54xDntRu7YcrP88arHUVP7HLi5xDibdGnX1Z2cFGIcVd4PMlVoW698vbJGabhGbXpKaFpPuROaKe0KMw4p3l3PEyl5qeVQMukpqukpselRqWki6E5kjpipAAaLS+4PbxaAzpaAzxabbpffeuA90UQDxPmSR2HKQFHSQ2HSR0LKGbDspQLnQUvH4TvixkXq55UQhaDnZdlKAgguJr44oos5LjDlP0TTxtYcLBWTbSQEipfHtGpUPb6u0F3fyG+OblpJsRwVISKv60W1+3LsM59XP+UtYB8wYAQZ2MaAl2bb0yV2eXZycnKTpspYu+edACncF+N23QGcdcCT53Xre5s54m5O/ZVh4pPP7n///bgsQKSivubYe0LB7ScrtaNN3HGuPxdqP7ZieqmXOkt3XHjQ01ZRT/7kuwLUVocJi3cX6vKlTdV8xHlxcyPpPZggACAAIAAgACAAIAAgACAAIAAgACAAIAAgACAAIAAgACAAIAAgACACZIsBzc8A5ngtQAMgYEAABEAABEAABEAABEAABEAABEAABEAABEAABEAABEAABEAABEAABEAABEAABEAABEAABEAABEAABEAAB2BbOtnAEQAAEQAAEQAAEQAAEQAAEQAAEQAAEQACmGwEAAQABAAEAAQABAAEAAQABAAEAAQABAAEAAQABAAEAAQABAAEAAQABAAEAAQABAAEAAQABAAEAAQABAAEAAQABAAEAAQABAAEAAQABAAEAAQABAAEAAQABAAEAAQABAAEQAAEQAAEQAAEQAAEQAAEQAAEQAAEQAAEQAAEQAAEQAAEQAAEQAAEQAAEQAAEQAAH+4JgtZaoNAboNhVKmjiJAtyHaJGRqOwJ0H2qETC1CgO5DuZCpiQjQfSi4kJCoyggCdCNK4/PUmI8A3YqquDyVRBCgWzGwiwHNZREE6HbfAp11QN24CAJ0w0qwvObaekBD1eJoBAG6J9HC4sH2oiFANwcBEAABEAABEAABEAABEAABEAABEAABEAAQABAAEAAQABAAEAAQABAAEAAQALqzAKabEj30z5s6R5vZhVHd8WfrR52ap3mpg2eJ/Wd88XNZQeTx85PGFuTqNf3Cn9x2S8+0BTDdluyh//Qdx9pjXmiqKS/QHF+f9mM7pqdUanFVgzpC6y9rXy75Iz+z33vOf7RdG+nkgl4pPS37n88u6vU/T08A0xcT9PvnbY6lwYVS7fE9sDn5v4FxdalDtFYvvNWv/M+4eH2Yj5f1TtYy69udf1Jvz/AugOmrSR76Tz4ZS4+qgbrje+Dk5CSXWtasF6TjzSm+5P/hq10+f5L/rD1e7nJB8zwLYPpyon7//POxdKnSH1+f8+r3cEs8hPm3Mfbz/0RH1zG2Klvm/lfXlldneRTA9PVkD/3TT1UsVqo9vg2t8hu9hLn6fL7l/I/tiB/jm6qmq+NbXpnkSQDTAwo89J9nkKrYhQLt8T0wT3GplR7jfPoXdgXYnlhuDFCUir9OaLrXkwCmR5R46F9vkqpYuf74+tTLQSd6DtSxxuZ94dDWxBEWyk0XCrc4BV4EMD2kSL//IKNUxWr0x/fAIDHoojQi7cq1J8AmIX6t2DJbKquf8iCA6TFlHvrPNEtVU1R7fA/M1PwPrMG7w6wJcEqKP0Jq+UWp5U88CGB6UKGH/qvMUhUr1B7fA6vESz2aVqwztkrBYWL426WmS6SWxzwIYHpUqYf+WwxzVSwFLTYMukW81Lb0gtX2siPAI2J08R/Ma1LLOg8CmB5W7KH/44a5Eh81DDYM+rj+sxQN/tmOAN8Tg98slQCfSC3fcFOAIrNUNcgX0GAWtciqALG/9q8EiPXQLQFi/+6mAHntRqnaLV/AbqOg7Xl2BWif5VsJcEK7BIhtcFOASK1RrpbIQZcYBa2N2BUg9stefpUAW7RLgN9VS24KML7FIFVHcuSgOUcMgraMty1A7Gm/SoCHtEuAtr6OChBZbpCqQuWNqIFWyyPWBfikv08lQIF2CfCTiKsCRNNftlumvoRl6S8uRu0LEPt7B0oAVwWI9KnoSGtSG5M+oi5pTCtoR0WfiA8C/HZI+CWAswJEInefSmNOK1MsseVXphH01N3qgEaF5bPhlwAOCxDJnbG66qz+bLYd3b5I4+HkxEXbj3pYvjtbtXpGsmc3RgKcDL8EcFkAy/09JHCOvf6DvrTmR79RGjA+kuoPIJmANkoABPBZgGsM36cSYHVE5ytQ9RVUaqEEQIAABIhkLVY8iv7viFYRrChCt1koARAgCAEikSmKxW3VxoDsuNvgmmyh0UntJ2HqEgABghEg8m1ZANUG1rL4hsIW+qE2SgAECEiAXse9LDAWJrxq0FzoTwmAAAEJEJkmtvyOHPVgYsuDmiVAibcSAAGCEqCH+P7QLvkGUKgY2nN9KQEQICgB5Efch8SgU6SmU7RKgA89lgAIEJgA/yC1PC0GXSw1XaxVAmz1WAIgQGAC/KXUslkMukWnurNTAiBAYAKslVr+Sgwqbotf5UsJgACBCfCfUsufiUHFF2Nm+lICIEBgAvxaavkjMaj4atwgX0oABAhKgBH6CRNfjq33pwRAgKAEeFlsuUaOKrweH/96+s/tlAAIEJAA98vPAr6uCJtwQEb8ARVDLJUACBCMAAM+lgX4M0XY+CNyEo6omWupBECAQAQYcVCx4Ux5VkTXQ7ISD6n6rmEJcLUvAgQnwGOfKnYEPa8OfOMxecIxdXIJcKvnEgAB/BYge+zcvco9gfcmC/37gzLlgyrlEuAj7yWAsQCvavN29xHg7c5P/eanSXYFX+6ZInreVMVRtXIJ8KL3EsBYAFP+IAXQZWfaly2XAA97LwEQIEwBpqd92dZKAAQIUYDX075qeyUAAoQnQPsdaV+1vRIAAcITYEfEgRIAAUIToNngsEB7JQAChCbA30VcKAEQICwBXo+mf9EP65cAlSlKAAQISYD/NfkNmRftlQAIEI4AF/7Y5KI/0i4BJqQqARAgFAHa7jG55lv1S4AnU5UACBCGAC2lRtdsswRAgBAE+JXhj0fZLAEQIHgBfjbU8JrlEmCIdglQG0GAEAX4lz6GlyyXAD/XLwG+hQDhCVD/VeNfDJJLgO/qlwD3IkBYAlxeafrnrywB5qZXAiBAgAK0fueWiAWslgAIEJQA7W/91VAb6bdcAiBAIAL8dvdXrfzx2y8B2BTqhwA3bArd+syC+ycN65nm1UmbQu2WAGwL90OAOVb+1BXbwu2WAAjgqgCqF0MslwAI4KgAylfDSuyWAAjgpgDql0O36pcAF8QSIA8BMkAA9evhH9otARDASQHUB0QMtlwCIICTAqiPiJFLgG1plwAI4KIASQ6JkkuA0rRLAARwUYAkx8TJJcDQtEsABHBRAPVBkXIJcDL9EgABXBRAfVSs9RIAAVwU4HEp6OO+lAAI4KIARVLQIl9KAARwUYA86Qcj8nwpARDAyXWAWsXfrv0SAAGcFGB8wg/dt4xXVodGJQACuPksYHl8yN//vNgJ6yUAArgpQDT+hyOj/qwCIICr+wHEn459yH4JgADObgkTfjzahxIAAdzdE5j48/FyCTDMpARAAHcFSKBAHOyUUQmAABkkgFwCfM+oBECADBJALgEeMSoBECCDBPCjBECAzBHAlxIAATJHAF9KAATIHAF8KQEQIHME8KUEQICMEaCHfgnwsH4JgAAZI8DN+iXA1/VLAA8fYLbUsk3/A4TdX6ZNijo7uP76DNMuASJP6ZcAHgQolFoe1f8AYfeXOSpFLQyuvz63a5cAkdX6JYAHAaJNQsvt+h8g7P4y24WgTdHg+uszQrsEkJcBvmX8HVYjtFzk4ROE3V9kkRC0JsD+HhA2CsYqxJZDOoSmk40FKBdaTvTwAcLuLzJRCFoeYH8PLBS2Ct8mN92f2PSIeRVbkLi8UOlpKTPk/jKJi2YXCoLsr8+A1oShXlM0/ZrethGvtzGl8e0a8z19grD7i+Q36k6VP/098M2Ewn6SomWfuvimH/W0cR8bf25FicdPEHZ/kfi99lUB9/dA3IthHerPf0vcsuHZkVYWMgZ2yUBzmdcP0LV/y7Kg+8uUNXfJ38Cg+3u4EarSroCHn72x5Se321rJKu38Hq4bl8ZHuKH/kcIQ+ouM6/yHeaE0hP769F728fWh3v9S8rvGbZ0lw7+OtreUWVBec+1+vKFqcXo3u//ff/eSnFD6y39Zi6sart2/15QXhNLfA70WnLyWoSuHH005/0Oe+2zl5Fzln1pey44WFg82mu6Q+8sMLi6Mhtlfm6xBU2aNytZq2mPUPdM+l6JNkFuawEEQAAEQAAEQAAEQAAEQAAEQAAEQAAEQAAEAAQABAAEAAQABAAEAAQABAAEAAQABICzsbopFgMzCdFs+AmQ2pi/mIEBGY/pqHgJkOH68HIsAGfT/34/X4xEgc+o/Xw7IQICMwZcjchAgc/DlkCwEyBj8OSYPATIGfw7KRICMwZ+jchEgY/DnsGwEQAAEQAAEQAAEQAAEQAAEQAAEQAAEQABAAEAAQABAAEAAQABAAEAAQABAAEAAQABAAEAAQABAAEAAQABAAEAAQABAAEAAQABAAEAAQABAAEAAQABAAEAAQABAAEAAQABAAEAAQABAAEAAQABAAEAAQABAAEAAQABAAARAAARAAARAAARAAASwJkC7FHUu0+0ec6VMtRuHvSiFXcp0u0eZlKmLxmHPSGGfZbrdY5OUqTPGYY9JYb/PdLvHD6RMHTMOWyuF3c90u0eNlKla47DVUtjjTLd7nJQyVW0cdqsU9hLT7RxZzVKmthrHXSreXU5gwl1jUsyf+7VZYtw1TLhrrBcTNcs47igx7rtMuGu8LyZqlHHcnFYx8Ahm3C1uE9PUmmMeuU6M/CRT7hZPiWmqsxB5gxj5LabcLQ6IadpgIfK9YuRYEXPuEkVylu61EDpXLgIOMekucUguAXJtxD4oy/UAs+4OD8g5Omgl+Ao5+IkezLsr9Dgh52iFlehDO+ToC5l4V1goZ6hjqJ3w++Xw54cz824w/Lycof2W4n9FDh97L4+5d4G89xQJ+oqlAfpdUQxQmc3sh092pSI9V/rZGuIFxQix9Ux/+KxXZecFa0OMvKoao4T5D5sSVW6ujrQ3yA7lIN8gA+HyDeUf5w6Lo4xpV40S+8cckhAeOf+kTEz7GJsD7VSOE/vxzeQhLG7+sTovO+3eaTapR/pwLJkIhy98qM5Kk+VVmuXqoWItmwaSjOC55bmWJElZbnm0nh8kGSx2aUUfEhIsuX9zOVlGPuhpe8BpsaTUf603SQmOPo81JM/HNPtjbko+Yqzph48MIDNBMGDea1dSJGOTD8NG98RS0bZ/yV2jeUDgI3mj71ryRlvKROyJ+jF4/xMxLS4f37fzVbDOzn3HL+tl4ER/f/QbczEGGcDFMX79AypuZ3bdp73Yv6+gpUyv+/h6fMtLzK/rvORrFXpTLTPsNrU3+Xsf0n8vc+wye/v7fSeaU8Esu0tFEA/n57cy0W7SOj+Y5ag7zzHXLnLuzqAWJIe9w2y7xzvDAnwWuYv5do1duZEAyVrZzJS7RPPKrICfS42uZtbdoXp0CI8mH6xn4t2g/sFwHk73XXWeyQ+f86v6hrc/YWkDCQiXhqXh7sDpteAwSQiPwwt6hb9Naey602QiDE6vc+WNjKyitYfaSEiQtB1aW5QVcYl+922sPtNBZvyn40z1xvv6RZwkd8KXn1i5rmLbK2zhtM8r2yrWrXziyxNyIwAAAAAAAAAAAAAAAAAAAAAAAAAAAJ74P6RmU9aMtMZ2AAAAAElFTkSuQmCC;" vertex="1" parent="1">
          <mxGeometry x="724.41" y="1370" width="50" height="50" as="geometry" />
        </mxCell>
        <mxCell id="TsZBrLs7c3VGLClS2bjf-7" value="Container" style="aspect=fixed;html=1;points=[];align=center;image;fontSize=12;image=img/lib/azure2/general/Storage_Container.svg;" vertex="1" parent="1">
          <mxGeometry x="381" y="1687" width="49.23" height="40" as="geometry" />
        </mxCell>
        <mxCell id="TsZBrLs7c3VGLClS2bjf-8" value="files" style="aspect=fixed;html=1;points=[];align=center;image;fontSize=12;image=img/lib/azure2/general/Folder_Blank.svg;" vertex="1" parent="1">
          <mxGeometry x="440.00000000000006" y="1761" width="49.28" height="40" as="geometry" />
        </mxCell>
        <mxCell id="TsZBrLs7c3VGLClS2bjf-9" value="static" style="aspect=fixed;html=1;points=[];align=center;image;fontSize=12;image=img/lib/azure2/general/Folder_Blank.svg;" vertex="1" parent="1">
          <mxGeometry x="440.00000000000006" y="1897" width="49.28" height="40" as="geometry" />
        </mxCell>
        <mxCell id="TsZBrLs7c3VGLClS2bjf-10" style="edgeStyle=orthogonalEdgeStyle;rounded=0;orthogonalLoop=1;jettySize=auto;html=1;entryX=0;entryY=0.5;entryDx=0;entryDy=0;strokeColor=#808080;" edge="1" parent="1" source="TsZBrLs7c3VGLClS2bjf-11" target="TsZBrLs7c3VGLClS2bjf-16">
          <mxGeometry relative="1" as="geometry" />
        </mxCell>
        <mxCell id="TsZBrLs7c3VGLClS2bjf-11" value="file_metadata.csv" style="aspect=fixed;html=1;points=[];align=center;image;fontSize=12;image=img/lib/azure2/general/File.svg;" vertex="1" parent="1">
          <mxGeometry x="510.8400000000001" y="1907" width="32.46" height="40" as="geometry" />
        </mxCell>
        <mxCell id="TsZBrLs7c3VGLClS2bjf-12" value="Storage Account" style="aspect=fixed;html=1;points=[];align=center;image;fontSize=12;image=img/lib/azure2/storage/Storage_Accounts.svg;" vertex="1" parent="1">
          <mxGeometry x="380" y="1551.95" width="50" height="40" as="geometry" />
        </mxCell>
        <mxCell id="TsZBrLs7c3VGLClS2bjf-13" style="edgeStyle=orthogonalEdgeStyle;rounded=0;orthogonalLoop=1;jettySize=auto;html=1;strokeColor=#000000;" edge="1" parent="1" source="TsZBrLs7c3VGLClS2bjf-14" target="TsZBrLs7c3VGLClS2bjf-22">
          <mxGeometry relative="1" as="geometry" />
        </mxCell>
        <mxCell id="TsZBrLs7c3VGLClS2bjf-14" value="ingested_files" style="aspect=fixed;html=1;points=[];align=center;image;fontSize=12;image=img/lib/azure2/general/Files.svg;" vertex="1" parent="1">
          <mxGeometry x="504.21" y="1771" width="45.71" height="50" as="geometry" />
        </mxCell>
        <mxCell id="TsZBrLs7c3VGLClS2bjf-15" style="edgeStyle=orthogonalEdgeStyle;rounded=0;orthogonalLoop=1;jettySize=auto;html=1;entryX=0.5;entryY=1;entryDx=0;entryDy=0;strokeColor=#808080;" edge="1" parent="1" source="TsZBrLs7c3VGLClS2bjf-16" target="TsZBrLs7c3VGLClS2bjf-17">
          <mxGeometry relative="1" as="geometry" />
        </mxCell>
        <mxCell id="TsZBrLs7c3VGLClS2bjf-16" value="" style="shape=image;verticalLabelPosition=bottom;labelBackgroundColor=default;verticalAlign=top;aspect=fixed;imageAspect=0;image=data:image/png,iVBORw0KGgoAAAANSUhEUgAAAO8AAABwCAYAAAD2QCcvAAAAAXNSR0IArs4c6QAAAARnQU1BAACxjwv8YQUAAAAJcEhZcwAAFiUAABYlAUlSJPAAABCDSURBVHhe7Z3nU1RZGsb339gP+wfs7GxN1X7ZL/sH7IepcjbMhnHVqnFdw+qYRVEQxYRhVcyIOmZHYQZFSQYQDCCCZJRMA5KUILFJ757n0KenaQEJ3XRfeJ7iKbh9zz3ddPfvvu977rn3/kIoirKkCC9FWVSEl6IsKsJLURbVR/AODQ1JV1eXtLW1SWtr65xwS0sLTfutwWJ3d7cMDg46KB3WCHixEo1rampomvYzI9AMDAw4aHWDt6OjQyorK6WxsVE+fPggnZ2dNE372GCxrq5Oqqur9bLRCHgbGhp0o/b2dp060/RctTtA7h5tG28aUbeiokLev3/voNUNXoCLqAsDZJqeq66vrx/Xo23jTTc3N0t5ebk0NTU5aB0DXjR++/YtTdN+YkBLeGnagia8NG1RE16atqgJL01b1ISXpi1qwkvTFjXhpWmLmvDStEU9bXjLysrk7t27kpubK7W1taO2maox8frBgwfy/PlzqaqqGrUNTc9VTxveV69eyebNmyU+Pl5sNtuobaZqALtv3z65ePGivHnzZtQ2ND1XTXhp2qL2OrzZ2dly/vx5OXLkiDba4QnNepzSFBsbKydOnNDr0RZ9IgV3hxcpelRUlCQmJuo+nj59Ko8fP3b2h76wLjMzU7+W4uJiSUhIkCdPnsilS5d0/9euXZP8/Hz9f5nXQNNWtFfhBbiHDh2SDRs2SEBAgPN3UlKSBhOwRUdHy9atW2XTpk2yZcsWWbdunZw6dUry8vL0ecQGXjzP999/r5/r+vXrUlJSIpGRkXLs2DFdb+P5SktLZfv27XLjxg39TwHa5cuXS2hoqOzcuVP3j9eA/gC262ulaavZa/BisOncuXMSHBysITKRFDCHh4fr6JeTk6NhvnDhgoYR26WmpmrI7t27p2EEvGfPnpWIiAgJDAyUO3fuaKjRdiLwLl68WA4cOCAFBQW6DaJ8UFCQJCcne3yAjaZn0l6DFycJI9ohTQVU5nGksXgcKS9S3B07dkhaWpozjcWLMdsVFRVpeFeuXCmrV6+W27dv635NXxOBF8sYsTagFhYW6ufECPloaT5NW8VegxedAhKkuKhVzeMAddeuXRqsuLg4J8gGXkTngwcP6u0AGuBdtGiRrF27VmJiYnS/pq+pwIsdAtJoRHbCS1vZXoMXafPp06dlz549kpGRoeFBjYu61QCXlZWlU2REWQM4Bpt2796twUYqDXiRMmMbpOCIvgbgq1evyt69eyU9PV2/zpSUFFmxYoV+3MCLZewIkGrjNSDtBrxIm/EazeulaavZI/CuWrVKDzphNBeQAVDUs4ioAAXGOkRUREJEPcCEKIu2gBLrsG1YWJgeecZgl+uAFWpk1L6mRkYNCzixLfo/evSofo6FCxfK5cuXnfCi5g0JCdF9Hj58WNfN2Fnw0BNtdU8bXkBw5swZDQXAggGcibbPnj3Ty2Ydak0z4AQD4CtXruhBJKwHwNgh4HkRGZEqP3r0SNe6eC4AjNFotEEkRyRG6o1tcRgJ4CI1xzqTNgNsAI42SLWRjrv+DzRtRU8bXn/2aDUvTc8WE16atqhnNbyY6HHz5k1dP+P/GK0NTVvVsxpemp7NJrw0bVETXpq2qAkvTVvUhJemLeoJwYu7kOEugbihL03T/mHc5hOTnADv0JCI+vkYXjRyvwM3RVG+1ZAitrZWZcYK3r7BIbEPDBFeirKCAK9NwVtb3yRtPYPS2DFAeCnKChpU8Fba6qTE1ihVLX2SV28nvBTl70J9269S5dKqOnlZWi/FTXZ509xHeCnK3wV4+1SNW1RRJ8kFb6WwoVc67IOEl6L8XRhdtvcPSn5ZrcTn1ElWba+09xJeivJ7GXjzFLyxr2rlRU2PHrQivBTl53KF9052raTbRoEX58ESXoryL42Et25seDG7ivBSlP+I8FKURWUpePHs/eoF9yn3O5bVnxQ1J+XX8ALUhgGRfLtIardIYpdIXKfIXeV76u8E5cfq8Vy1/q2iGVBT1FyRX8ILBusUjMkKzFNtIhubRb6pF/nTW5Gv3PxP9fhatf64apei2mM7QkzNBY2Ed5zR5pmCt0M9RY6KpCcUjIsafoYU8C5tFFmjQN2gDGCXqWVXqP+tlsNbRbJ6RboJMDXL5QpvrII3w5fwtqru41QqvF6B+bUDSgAa+l7kYvtw2vy8ZxjODPU7SS1f+iCyu0XkP6rdX9U2gHjzu+Eo3DkziQJF+UQGXsywihtrhtVMwPtBdR2jallETwC4UEXdnQpa1LWoZ1H/jqVatT5etduh2iMSY/vVTSKPCDA1iwUkzNzmRwVvpaBxlLnN3oYXYD5Q8CEtBniL1e8LKtJWfwJad73uEzmi0uZ/OdJtpNbPVITumUQfFGUl4ayikqo6ySypl9fNdrG19c8svCUKui0q1f2LAg517lWVCr8fcKycpGwK+KMK4PmOCBys+n2j+mcApmajzPm8b2yNUvbOLi9V6jxj8HapqHimTcGmoP2zgg2jxo1TBNeoXMG6S6XQf3PUzdfVzqCN9FKzUPpKGjV1UlPfJK09A1L/we1KGt6EN88+XJ8iSq5Uv/N6RVQaP23huPByR7/o/7V6HmbP1GyTuYZVQ2OTrn97VZ05Y/BeVlFxgaNGRbqMEWdPqF31E9YyPGqNvgHzZOpnirKCAC/O+sPVIwdV/YsR6BmBF8diMaKMdBmDTDgENM2MeYRiO4cHvwAv/kaK7s+y2Wz6huF4rylqInKFF39DMwJvhapNcUwXcGHAqlIte1L5ameASR3o/8YU6t7+/n7Jzc2V4uJi6e5WodvL+umnn2T//v36BuIzrebmZsnPz9e/zZeA8n/5DN5MBRfqXMD1v1aRek+GXSUMfGGngP5x6GmyI9gdHR36jvu4qz6uTu9tzTS8+DzLysokKSlJDh06JBs2bJD09HQZGPDwB0F5TT6DF3OXzbHdiDa19/fwdwZpcrBKy9H/WQXvZPuf7fDi/zt9+rSsWrVKFixYIEuXLiW8FpPP4MUMKAPvaQVvk4e/M5i1FeSIvN6EF7Uq7rx/+/Zt7RcvXugrj7irpqZGHj58OGY7d3h7enokKytLUlJSpL6+Xt/eIicnR//t+lmg38LCQmetbJZxfylsf/fuXf18KAG6urp0Gwj9xcXF6bZPnjyR3bt3E16LyWfwpveI/NeRNu9vGT4jyJOqUf0FuKTN7zwML2pi1Ilnz56VLVu2yLp16+S7776T9evXS0JCghNM0y4yMvKjdvHx8c52rvBiGwCFdtgGd/hH7R0YGCj3798Xu92ut4EAJrZ7/fq1czkoKEiuXLkix48fl4CAAFmxYoXeNjU1dQTARoCW8FpPPoMXM58whRFwrVO/yzw8YPVC1dSrHDuHa4qPyR6G+hS8iHBbt26V8PBw53pEy2vXrmlQXr58qSFEu23btul+8EabdtevX9ftMjMzdTsDLyBFNAwODtbLqEvx3peWlk4Y3iVLlkhYWJi+gxy2RZTF69y+fbse0Xb/LAmvNeUzeDH6i5oUh4pwXi7mIXvyXFyMMJvTCnHSw2RPUhgPXrwX9+7dk40bN0pGRsaILzxGbAHJ1atX9d0VkZqi3fPnzz9qFxISoiNkS0uLE97ExEQN3oEDBzSw5n2fDLwrV66U5ORk6ev7eY+I6I8ojNeNnYerCK815TN4IdSi3zgAO+nBuhf1Lc4ywnxpTJHEKYKT3TGMBy/giYiI0NBUVlY6Hh0W0lKAd+zYMb0OaTXaVVRUOFoMC+0OHjyoIyLeY8CLlBoDR4Ad9SoistFk4MXOIzs7e8Rnhvsr79ixQ6Kjo/X/5irCa035FF7Xuhfn5D5Vy73TjL7YPlpF2m8dg2FL1O+CKUyPnAi8WIcBK1chqgHIkydPOuFFu+rqakeLYaEdAD9x4oQTXoz6zps3Tz9vUVHRlOF1XTbCcwBqrHevewmvNeVTeDGN8WCryN8d0xhDVLQEaFNNn/G1y1a1LmppRFxE3sgpjDRD48ELqG7cuKHXo0Y1bxzU2tqqIxygxXY//PCDhIaG6jrWvR22x04AI8MmbcboMAaccOy1pKTECTB2BKidMchl0l58Jjdv3pS9e/eOgBfbI3K7fmZYRo3unk5DhNea8im80EsFG2ZaofYFwAdaRIoUwPZJAoz2hWo7XHnD7AwwwwoXsJvK13E8eCEM/ABKwIL3BwJoT58+1Y+npaVJb2+vhhbLMTExH7XbtWuXHgFGOwMvRptRR69evVoOHz6sIzbee9TPqIUvXLigPywIqTD6xoi0K7zz58+X8+fP61oawv+CCI+dCl6P+2dJeK0pn8OLr0q0KsG+ddS+8B71ncOlbjCoNZFnfa8apam6FufvGnBxVQ5cYQPXxZqKDLxr1qzRg0oY6DHGCDAO8dy6dUsDiMEpPI56EoABVAMOoqRpZ/pBO4AKYAEl5Aov4MaxY9TA2HkguiPVxeAXoirARD8//vijLFu2TM+OcoUX6TeiLKIy2l2+fFnX0Xfu3NH/l7sIrzXlc3ihjKYO+bbgnXxZaXcCjMNHOBf3lYrMOAaMSRc4MwgvEYkkoMTjOK3wimqH612Z6I0TEm6q72jLNF4yoIuKitIjtDje6mpMKezs7HRCBqDMOowWY52r0A4TNHD4x7TDsWDXdpi0AfBMlHfdBqkyoEOqfenSJX2MGH0gJcfzYTt8iBD+xk4gNjZWD4ihHSIzjhubdNtdSM+xI8Bvb37OlGflc3jL3nfI+oRc+eJcqvz+YYX88U2XzKsddEKMY7W4OsYtBSMul4PT+x4oR6llPI750ebUPxgQA1xE47koA6/7gBU1++RTeMtbOmVTYp78OjxBfrk/Vn4VnihfxOTJl/kt8nXtgPOyrhMxLlqHK0ciVcZA2FwV4Z078hm8FQrcgKQ8+cwBrvHnxxJlc3qlHG/q0zUsroiBY8EmJXb1P1TExfzoQNUOJ/bjeliTHeiabSK8c0cTgheDM56Et7K1SwLv58tnClRXcH+jloMeFkhNu8qLlapUTXtf/Xm+XeSQSpH3tfxsXCkjQj2Oy8PiulVzHVojTLfEgJmpganZq0/Ci5WehLdKgbvtQYEGdTxw3YWXhnFQDFrhOldklZrrmlF4q9u6ZPvDwlHBBdBjgUtR1MeaMXhtCtyQ5EL5/DjBpShPaEbgBZihKUXy21HBzSe4FDUFeR3e9t4+CUt7rcBNIrgU5UF5Hd6E0gb5Q2QywaUoD8vr8Ea+rJDfnbpPcCnKw5oQvNOZpFGnIA15VCjzozJkgfLe1GKCS1EeEIDFPIxx4cWE+OkMWA0MDkmHvV+6+wb0nc0oipq+JgQvTm/jqWIU5V8ivBRlURFeirKoCC9FWVSEl6IsKsJLURYV4aUoi4rwUpRFRXgpyqIivBRlURFeirKoCC9FWVSEl6IsKsJLURaVK7xGhJeiLCDCS1EW1SfhxV3r3r17p+9aR1GU/wgBtaamRpqbmx2PuMELcNEAt5hEY1xRg6Zp3xrBFJenws3XcaUboxHw4q7taGCz2XR4Bsw0TfvWYLGqqkpnxmDUaAS8EG7K3NDQIJWVlVJeXk5b0BUVFbQferTPaiIGuI2NjSPAhT6C1wgFMm09U/6t0T6zT3ksjQkvRVH+LcJLURYV4aUoi4rwUpQlJfJ/7EVwY28NsO4AAAAASUVORK5CYII=;" vertex="1" parent="1">
          <mxGeometry x="686.3699999999999" y="1960" width="149.37" height="70" as="geometry" />
        </mxCell>
        <mxCell id="TsZBrLs7c3VGLClS2bjf-17" value="" style="shape=image;verticalLabelPosition=bottom;labelBackgroundColor=default;verticalAlign=top;aspect=fixed;imageAspect=0;image=data:image/png,iVBORw0KGgoAAAANSUhEUgAAAO8AAABuCAYAAADPnETEAAAAAXNSR0IArs4c6QAAAARnQU1BAACxjwv8YQUAAAAJcEhZcwAAFiUAABYlAUlSJPAAAA+jSURBVHhe7Z35cxTVGobvH+Ovlj/eKsuy1LK8XssSF8QSEbzgLWQvWWQVkEX2RZDNFQVRQBRBQHYQIlFQwhIgJMGQkH0hIXtC+G6eQ3puTzJJhpDJTDPvW/UyZPr0mZ6Zfvp85ztn+vzDJEkKpASvJAVUHeCtra218vJyKysrSxqXlpbKcsK6srLSmpub2wj9v8Lgra6utuvXr1tubq7duHFDluU4Oy8vz3Jycqy4uNgaGxvbSL2rELyQ/ffff7sdbt265Vrguro6WZbjaC8Shs2KigpraWlpI9YHb01NjWVmZlpJSYmDl1ZYlpPRnP9dOdI+sTRhMxFxYWFhWOsbgreqqsqys7MtPz/fFZLlZHdBQUEHRyrXFyZ85rGhoaGN2AjwEjZHOmhZluNn8lCCV5YDaMErywG14JXlgFrwynIcDYA//fSTrV+/vksfOHDAsdh+X8Ery3EyGeNFixbZa6+9Zq+++moH9+vXz5588kmbOnWqnTlzJmxfwSvLcfbhw4ftm2++sU2bNoW8bt06GzZsmD3zzDP2yCOPuP+fPHkybD/BK8sJ5oyMDPv0009twIABNnLkSHv66acFrywnugF3w4YN1r9/fxszZoxrkQmpex1edv7hhx9s/vz5NmvWLGfi99TUVBfLR9qnO587d86WL18eqg9v2bLFTdOMVD4anz9/3r7//ntLT093s8UilZHlePvKlSsuOfXyyy/bqFGjbP/+/Xb8+PHYwMvE6Pfff9/GjRtnH374oS1evNg+/vhj17HuKbxHjx61N99806ZNm+YuBNS5Y8cOy8rKilg+Gh87dsymTJliKSkpiiLkhPTly5dt7dq19uKLL9o777xj+/btc78cOnXqVGzh/e6771y5SGXu1cA7efJkd9C9BZrglRPZly5dco3eCy+8YMOHD7e9e/c6ttgWN3i5cmzevNnmzZtns2fPtlWrVrmw2Atdf/vtNxd2E9d/9NFHLtw+dOhQp/DSmu/cudMWLlwYqi8tLS2s3MGDB11r7W0/e/asHTlyxMFL+L106VK3jf9fvXo1rH5Z7msD7urVq+3555+3t99+237++ecQuDgu8ALuF198YdOnTw+F1ITChAZe33Pr1q3uoJYtW+aeP336tIN34MCBNn78eAcZBj5+/sQbJYVOOE2dvFnA914bcNm2YMEC93pz5sxxrS2p+EGDBrm+OfByzEOHDrU9e/a4ev3HLct95YsXL7pG67nnnnPn4+7du8PAxYTTEydOdA0gDZV/W6/ASzqbxw8++MABywsCIn1hEkXeAf36668OSmDihYGXfQlrvT6y1+dlUJoWFhjptAMZLeUff/zhLgyUB3gg5UMgSwesGzduDLWotPIkuqhzyJAhDvRr16657dRPcoD9vPcjy71pWlGGfP78888O2y5cuGArVqywZ5991t566y03y4pzs305TINGlNq+oekVeMeOHeuuDIBGmEzWbNeuXTZz5kz766+/QmEydQENCSj2BV72Ixvs1dldn5fWdcmSJe5CQctLOAykvLlJkya5C0T7/SL1edesWeNMa+4vK8u9ZaJDZkkR4fmfB1yiTSZgDB482H788cdOwe3KMQubueqwzQ8v5efOnev6rT2BF3Dp2HORoFUeMWKEuxgAL+UFr5xIjgQv5zqNDxMv3njjDZfzac9OtI4ZvIQKtMjbtm0LXVVOnDhhM2bMcDB5YXO08BImAy1hOWEvfwMy48DAS6gOyIQpXihMsoqyXsJK8Mp96fbwcp7TzXvqqafs9ddfd13KnoKLYwYv/dKvv/7aJalIOtHi+vvEXsIqErxckeik04dlvy+//NKFGjxOmDDBheOATBkuBsALzPQbOB7v9ShDH1nwyvGwH17OUaLFJ554wmWPt2/ffl/g4vuCF2DIkDHEQ0XttwMwYBMmkAEGZg9ctrMfY1r+CRhAClSU9+ztB+TeNrJ0wM/re/tzPITrzNDy9gNO6gRs/u+9NhcJoO5JX0OWo7EHL0lU/v/444+7vzlv72fSkef7gleW5c7twUs2+bHHHrNXXnnFNWa9AS4WvLIcIwMviamHH37YXnrpJTe0Sd6HJK7n+4n8BK8sx8grV660Rx991B566CH3o3rmNIwePTrMTBqKNA4cjQWvLMfI3LqG5CmjLp2Z8V7BK8sJZhK2JEv9YXJ7K2yW5SS04JXlgFrwynJA3S28xOQsIxhpZTRZluNnwMX19Q12545ZS6s7wNt+AV9JkuIv1ugtLCyymrp6a2i+Y3VNLYJXkoKg0rJyy8svstKqOiuuvm25N5sEryQlugiTi0vLLTO30K6V1Fp6caOlXq8XvJKU6KJ/m19cZueyCy0tr9qyypqcBa8kJbBaubXbrf/kFZVZakaBnciqspKa226b4JWkBNZdeO/Y9aJyO3GpwA5cqbTCW81um+CVpAQW8Da3wptTWGbH0vNt76VKy68SvJKU8HLwtnZ6cwpa4b2Yb3vSBa8kBUId4b1pNwSvJCW+OoM3szRT8EpSIqszeI9kHhG8kpTI6gzevMo8wStJiazA9HnLysqsqamp7S9JkjrCG+Nsc13zHfv1er3ty6yzfVk+t/59ILvObjW2tJX8vwCXeytXVla2PSNJkoO3bZz3eHqB7Y01vHmtlY/YU2b9viuyF1vtf3xlW7FdLW9yk609eeCywkJpaWnbs5IkgYl/htXBWM+wyihrcpD+87P8iD5b2OAmW6Pi4uIQuBs2bHCrDno/PO7KCq+lZNBdeJnbXG6/ZxRYSvYtK43l3OZo4eWWO/v37w+Bi1kCkfVeujKwc3cBSUoGwUpBSbmd9/2qKLs1eo0rvKyzy4JiHrjRmqUS1TeWkkW0vvyeNyu3yLJLauxCUaOl5MTo97zRwsvq3ywe9tlnn4XAZMEwVrWPZJb0FLxSMsq7k0ZZVZ2V1t52w0Vx7/Oy2h+h8Oeff+7AZJnO9PT0Dmbdl6+++krwSkkp7x5WtXUN1tjaCa5vvhMbeEtarwzTD1fYsF0lPpe6x//uLrWsivBsM31fluukBe4s28ySnZs2bRK8UlIKeIuKitytX0EHfmICLzrXGpf/llfvc4N7/P1Gg9U2+chtk7f+L7eejSTB27mqq6vt+PHjbgH05ua7wwjSgyU/vJ5iBm9PRB/Yf3B+xRJe6v72229d6O73mTNnrL6+vq1Uz8Vi4azV2r7+06dPW11dXVupnotFxN977z375Zdfoq6PkwHg2belpeOkGSmxlPDwdqVYwrt582a3MPLEiRNt3rx5Nn/+fGdW1K+pqWkr1XNt2bLFBgwYYOPHjw+rnyGv3qj/XuDNyMiwbdu22cKFC23IkCF28uRJjZkHQIK3EwEvJz8TRGLRCgHv5MmT3XuIRf3Rwst3S8aesuPGjbOBAwcK3oCoT+HNrmi2SyVNHXylrMnd8f1eFW94+VzIeFOWsWlMOOw/8dmfUJvnd+zY4Sag8KEzzNUdvOxLi+jVTUjbfiIKrfShQ4fccBpl+BxYx4Z8AcdP1v7UqVMuRGc7MDP19E5bdpAvnv1pfc+fP28TJkwQvAFRn8FbUd9ii05W2vj95TbBZ/6edLDcrlc2h2Wbo1E84eWDA4jFixe7sBcTAs+YMcPS0tJCJ78H6dq1a23JkiXubz7w7uAl4USfe8GCBa7umTNn2qRJk+zYsWOhlpRj4P3PmjXL5syZ48rNnTvXQUiugJaUbWTsee2pU6fa0KFDHdCRQnPeq+ANjvoM3nsZ541WsYZ30KBBDk5arI0bN9rWrVsdFHwe+/bts2HDhjmYvA+P+dXAu3r1avd/WjcgpR/Jcd68edOVQ4TNgwcPtkWLFoXV72WHeS+smO69J15j/fr1tnTp0lASj2mjY8aMcf1wL4nGEBuvQ8s7fPhwByvj5MBIXStWrHB9W17Ha309Cd5gSfB2IuDt37+/a01p1WjROPEJfxl3BtI1a9Z0GINOTU21d999NwQM8I4cOdLOnj1rt2/fnTyOvIQVZf3185784BDObt++3cHNa1KeCSolJSU2ZcoUd5z+i4In+rzAy2dDmOyJ0JsWnwuD/3iQ4A2WBG8n6ipspnUbMWKE7dq1y2pra9uevausrCwHzYEDB1xrCLyErjzvb+m6S1gxtk39K1eudOEwgFPv6NGjHbzUB2i0uv4vzxPwjh071n0uhOCegJeLSUpKSgdABW+wJHg7UXfwjho1yvUd28PL5wUcfngJvdnHr67gpUUksUWflf29lpUQffbs2Q7eixcvulaYZFSkSRidZZsF74MjwduJuoKXMJRtgNX+Ncks0zoCB59bT+Dly1i1apWbtEF4jACabDVJJ+DNyclxCayDBw9GnDQieB989Rm8OZXN9p+fSuyZzYX2r1b7H//9TaFdLg2f2xyN4gUvLR0gTZs2zfUdvROdD5Os8rp16xw8XsLqXuGlfsZely1b5pJT1AOs9L8J14GXFp8EFgkv+uFe60sfnDDZGyoSvA+u+gxe7lH1w+Ua25h2y75Kqw573Hy+2irqwk/gaBQveBHZZIZfyNxy4wCO45NPPnHZYEJa7+TvCl6yzdTBL6PYHzNuDHyEwySkSGKxndcgs+z1eTmmzMxMtx2AaaXZn8w1/eHc3FzB+4Crz+CNhWIJL9ninTt3ulvytB9S8URfFDhJKNEXJftMS+mHnbnKhLbtM8I8v3z5cref37TolOULIWHFOK/3PMdEP9sbhkJ8ebx/b39AZ5IGdXD8fEZ+EAGeIans7OwO2Wbq4nOMtE1KPAleSQqoBK8kBVR9Cm91a7+3qiGyuRvevUrwSsmsPoP3Zn2LfXux2tafqYrgW1ZYfdvdDeBeJHilZFafwRu0cV5JSnQlHLxkShm3ZDikOx8+fNgNjQheKRmVcPAyLdB/29doLXilZFPCwct4ZiQ4u7PglZJNCQcvM3+YFXSvZlZQb9z7SZKCogSCt9HBy21emB3UE2tWkJRM6jN4i2pu28rUKpt5tKKD3291T26DI0nJrD6DF9U03ok4QQP3ZJKGJCWz+hReSZJ6T/yuvEt4+YWJ4JWkxBO/3eYXZoJXkgImwStJAZXglaSASvBKUkAleCUpoBK8khRQCV5JCqgEryQFVIJXkgIqwStJAZXglaSASvBKUkAleCUpoBK8khRQCV5JCqi6hJf7SbFcZKTFmyVJiq9YeB14/Y1rCF6IpuXldhsU4AZvsizH1yykzprLLKDO3TR4zlMIXsRGVmVnJQNuucF6tbIsx89wyOLpwOtfOB2FwctC0RUVFa4gC0fLshx/Ey7X1tZ2WPg9DF5PFJKDaSlxFen7isadKSK8kiQlvgSvJAVUgleSAirBK0mBlNn/AO5yctgtIHqOAAAAAElFTkSuQmCC;" vertex="1" parent="1">
          <mxGeometry x="685.01" y="1850" width="152.09" height="70" as="geometry" />
        </mxCell>
        <mxCell id="TsZBrLs7c3VGLClS2bjf-18" style="edgeStyle=orthogonalEdgeStyle;rounded=0;orthogonalLoop=1;jettySize=auto;html=1;entryX=0.548;entryY=0.119;entryDx=0;entryDy=0;entryPerimeter=0;strokeColor=#000000;" edge="1" parent="1" source="TsZBrLs7c3VGLClS2bjf-20" target="TsZBrLs7c3VGLClS2bjf-8">
          <mxGeometry relative="1" as="geometry" />
        </mxCell>
        <mxCell id="TsZBrLs7c3VGLClS2bjf-19" style="edgeStyle=orthogonalEdgeStyle;rounded=0;orthogonalLoop=1;jettySize=auto;html=1;strokeColor=#808080;" edge="1" parent="1" source="TsZBrLs7c3VGLClS2bjf-20" target="TsZBrLs7c3VGLClS2bjf-22">
          <mxGeometry relative="1" as="geometry" />
        </mxCell>
        <mxCell id="TsZBrLs7c3VGLClS2bjf-20" value="" style="shape=image;verticalLabelPosition=bottom;labelBackgroundColor=default;verticalAlign=top;aspect=fixed;imageAspect=0;image=data:image/png,iVBORw0KGgoAAAANSUhEUgAAAPEAAACNCAYAAABmK5yzAAAAAXNSR0IArs4c6QAAAARnQU1BAACxjwv8YQUAAAAJcEhZcwAAFiUAABYlAUlSJPAAACFASURBVHhe7Z0JeFTXeffz1Gmf1k3SJP3i5Gmar87SfF8bJ6lj120SJ60d22nixDhOHBODiQ1eMDbebUBmB4NZzGIWA2YHIcQmJARIYECITUILQmjfR8vMaBlptI12/j3/o7niajQSAjSaGfP+H78Wc++5d+7M3N953/Oe5X4GIpEoqCUQi0RBLoFYJApyCcQiUZCrD8TN7ZdxpqQZm1PqsCah9votMcgswSF20xl/98C3zcl1iC9uRq2r001pb/WCuLm9CxuS6vDc3gpt4yPExMT8bWRxzK5yfKSArmrqC3IviE8UNuGJHWWYf6IacUVNOF/qEhMT87OdVCzOOFqp2TyY0+im9Yp6QTxPwftkWBmmHqnEwpPVYmI3rc09VoVpioN3Y3sb2Zh7vMrrMb60SYft+OlHRVig/t112Q2sW70gZsGnwstxx9J8fHFmlpjYTWu3TsvEZ0My8BdTetstahv3eTvGl0Ymv70wD9OVR+7scgPrlleIv6kKf2ZyhpiYWIDYdxblCcRiYsFsArGYWJCbQCwmFuQmEIuJBbkJxGJiQW4CsZhYkJtALCYW5CYQi4kFuQ05xBw9Mj7CqoelTXcPTfv99lL8nznZXssPtz2wvgTP7C7H7Qtyve4XEws2G1KI/3tdMTYm1+F4YRNWnXNg1rEq7L5Uj9A0J+78sMDrMcNti+KrccbSjPs+Lva632z3rinCs3sr8M+LJfoQC1wbMojvXlmogT2S16Rv/K/MydHbv7+sQHvib8wPDM93LRBPialEcnkLfrPZ4nW/mFgg2JBBzBOkVrTo+Y1/N7P/0Pnna4vxerQNUznrQ9nz+yrwf9/vBpx/R+0sx8iwMj1XkhCFKHtMVQKsFH60ogDj9pTjJx8V4W+nZ+ljuO0FVfahDSVe35fe9DX3+7150Ibo7Aactbh6IP4p9x+4cj2jw8vw9Xk5uF/tP6DKVtR3YFtqnf7sX5+Xq9/bXF5vD5AKSuzmtCGB+PMzsrAhqRZHC5rwH6sK++w37Gdri7AvswHHVLkVZx0KDifOl7kwOcaOr72XowHnvOVL9lYN0PIzDkTnNOhto3aWKYArcLqkGUtO1eCb7jZtSKwdKaryeHG/FV+c1RtiAhp20anPtfR0DfaoSKGotk2XJ8RfUe309+OqsS+jHsvUfr4Pr4eVCKOHw7mNsDV0IFydg9EFmwScT22UZ7OB5f+kyn/OXamIiQ23DQnE/6A8F2/0KAVLf23f25Qn/SjBgaRyl04sfVF5zW8uyMNW5eW4vAiBMyBOUSEsVytgmYdVKHtK7eeSQL/aVKLb3DF5jfjx6iLtuVkRcDL0PR6VBwFlRXFWhc4GZP+uQn6WZYhMiG+bm4MRWy3au3I/E3KMJt47XoV/VN7VM5xm+Ue2WPTczc+piotRBCsEzrUOlOaC2M1nZog7PCYUDxriL6gbemOy8sT5fWEy7B4F0CHl2egNf6Daycb2tw/Rk7r0uX+1sQSf5Ddh+wUnvrc0X+//qgJnkwI3KqtBt7tfirRq7/eiAo6VAb3hFOXJWc44J41l6YHpNc0Vi2eb+N/UPnrxEHWOHWlOFDrasPy0Q1cw3trE/7ZclVfvzfKh6jpZ/kMVMXzLy/ciJjYcZkDMHqH2zst6YQB6ZNo1tYlnflKJhFKXXibk1ml9Q0uG2QxPmfwyQ0yAEkqb8WfleX+9ydIHYnpUhuqRboh/oeA7qsoQbLZVY5VX/i/lwY3zGUavy/bvXhPE7OZad74W59R1EmICvPqcQ4PO0J1/S2rb+4X4hwrgle7yBJd/i1V5gVjMn2ZAzBwNF7N0KWts60JDa9e1QfyICku59hZv7N+qkJPemdv/dUm+huCuFQVYqwAi6DwP939DhcMMeelNmYAywmmex2hbM6l1srgJaxId+O7iPO1xPzhVrdvG6bYWDRW3m6+FxnKEnxXEH0NLdSLsl8rTMzRPtXaH00xQJavwnu1dIzxOt7X2C/ErUVbdHGA55gF43EV1LoFYzJ9mQDxZMVrZ2IkyZwfya9qRXdV2bRAzMcV27BHlJWOUx50fV61PSm/JpTXvWFqgB1owxOV+JpTWJtZqaBkOMyNsQJyj3nylgpvHMwRnO5ZtUSN59AcFJWHKq27DaHVN/SWV6NnZfqYX59pHW1S7Olcdk+xObPF6manmKp58L1ZApc4rnpjn5hK9G9X+J3eW4R1VRr9WUQDL08uzvEAs5k8zIKZTIryX7G3KebXgZJHr2iA27MENJTo2J6Q0wsPkFJNU3E+QzfvZJcWuG+4jxAynmb0mGMbx9IRfMmWeWe64KsOwur82uGF871mfVOlzhahw441omw7hv60++O0KVHpVJqa431j87LfqmC+r9+N+Xh/3v6DK/XxtUc/rXuVVBfPl2f13q4mJ+dIIMZ3I8/usyFAAW+o6tBU62q8P4hsxA2Jzm9ibjd1TgXPKgxLKr3kktMTEbjajF/6WcjhPhVcgtaIV9aotbCjgIGZmmJ6TySwmyAJlKKeYmD+NELP596ewcpxTYXRdix8h7g4JKnS/rmeXEe3Hqwt1+5nhMdu0MsBCTOwKxE/sYA7HhTpXN8SdnZ3DD7GYmNi1mwHxHxXEpxXEtQpil8uFnJxsgVhMLBisN8QtKK9uwIXUVGzauF4gFhMLBjNDHJffgNNJadi04WMsWbxQIBYTCwYzQxyTbkP4vkgsXvg+tmzeKBCLiQWDmSGOTCzA5m2h2gvHnTjWF2Lj6W8cfigmJhYYxkFHD64v0RBHnS/CwdijOHTwAIoKC/pCzFk+zpZOdF3mTAkxMTF/W2fXZTS1denZgOxiOpFbC4utBnW1tWhpaekL8e70ejSrA0QiUWBIcYzWji7NJyE+a7nKYA+BWCQKLJkhfnJnOc6XtqhoWSAWiYJGXMejrfOyXuLqmd3dU2nrFcSKa73Kh0AsEgWBCCvnvk/Yb9VziAsc7citbkdGpZf5xAKxSBR4YnKLM/rePGjX0w/TrG165NaxwmaBWCQKBjFLza5fLu/sdHWhprkL9sYOvdyyQCwSBYEIMdfXYn9xa8dlvVge28n8t0AsEgWBDIj57LMOBS+TXdrU/wRikSgI1APxYBaPF4hFosCTQCwSBbkCBuLL6kJoXV1dPWZsE4lE/ctvEBPSjo4OtLW16YHazc3NqG9qRlVjM6zK+NepXjep7dzPcizP40Qi0RUNO8SEkEDWNDYhq64R8dUNOGSvR4TNiTBbAzbaGrHW1oQN6m+oer3PVq/3x9U0IlOVr1Vg83iBWSTqlhniqz5Q7UYhrne1oa6+EZUOB6IVmPNsLXjZ2oEx1i48br2M31mBRz3sD2r7U2r/eFVuriofY3eizFGrFwITkEUiE8RHuh+oxhFc9MgcPz3kEKcWVSOnxIpSeyWW2lx40g3uI6Wd+HVhC36Z3YgHLtbivpRq3J9agwcv1eF/cprwcFErHinrwmgF82pbMzLt1Si1VqHJ1eo+s0h084oQc8QWQeYD1Wh8mBpnMw05xJHJFhxOLkBhqRWflNdgfokT4/Od+GNaFX4ZX4KfRGfi+2Hn8d2Np/D97Qn4SWQ6fh1XiCdT7ZhYUI9VFY1IsDuQZbFi9eGLuGipcZ9ZJLp51emGmIzyofgldR16IsQlmw8mQISfK8aEjWcxPfw8wk5lITK1ADvSirBWgb3wTDamHkvH64dS8HLUebwVcwFzVZmVal9YpgXRuRWIz7Yg4mwOZu1WoL+xF+EJxe4zi0Q3r9gO5gSIV6JsyKvufqDaOUsL4r09UG0oIP6Xt/fjM6O24D+nHcCE9acwZ08SlkSlYE1MGrYdv4R9CuboxFwNa+iJDKyLTcPy6FTM3p2E5z8+hR+FROHWZ7brcwjEoptdTGNxnDSnIj6314qsyjZYlTemlTt9MAHCDLGnfX5cKG5/dTfuDInEvTMP4u53o/Dt1/bgi8/twC1PbfV6jEAsutmlImk90WHS4UrwgWopV3ugmi8hvh4TiEU3u7oh7l6eZ2QYnxbq4zW2BGL/qKamBikpKSgtLZVuuU+ZzBB3P1BNQex+oBoVEBB/bux2fGPiLtzxTgTum30QDy+IwSOLYvHoB0fxSUYZXC0taG1t1dbe3q6fBOerG5UjxwhDVFQUIiIitB08eBCFhYX6vQNVycnJeOedd7B//379PQ1GjY2NuHjxogaf3+n1iOdIT0+HxWK57nOIBpYZYuNZTHygGtXa0epfiL+k2sL/MTUKT6+Jw1t7UjDzWDbWpJdja0E1Qi21CKtwYpetHvvtDThQ2YAjVQ1IcDQix9kER1Ozvll54wzV2Ovy8nIN7Pz58/H222/jrbfe0vb8889j3759aGhocJcMPF0PxMXFxZgzZ46uqAZ7jCGr1YoTJ07g448/xksvvYS9e/de8zlEg1N/EBPgcyXn/AfxbeN34pnVJ1S4nIf9pQ4stzVjkq0NY62degSX56guDhjhQJBXrO16FBiHb2ZW18KpwHK1KJg9hqJdqwjwpk2bMGvWLJw6dUp7ZEMZGRnIycnptS3QNJwQc3w73+fVV1/F2LFjMXLkSIHYh/IGsa2hWQM8btc4/0HMkPlkWgGS7TV429rWA+uIisv4raUDDxe24n9ym/DLnEb8Kt+F3xS36RFdRjkCHWVzosxeibyySjibrv8GIpxbt27FokWLkJWVddVQneUvXLigvXZkZCQOHz6MoqKinnCbx/N1bm4u7HY7zp07p8vReH7e7DxHWlqaLmO++Xks4eJ2hqreZJT55JNP9Dnj4+Nx6NAhHTWYIaa3jIuL63lvXkdtba0+vqSkBDt3qor0mWcwffp03XwoKCjQn8HhcODMmTM9x508eVJ/DiPi4bh2njchIUF/nvfee08g9qG8QWypq0PEpQg8sPYB/0H8izkHsSs+E8kWG1aVOvFiYSNG5jbgN+m1uC/Biv88Vog7IzPwg31puOtgNn560oKHUqrwWJYTzxQ0Yp6lHgnWahSWWRGZmI9Ce737Cq5dbO/OnTsX0dHRerz2QGIC6ejRozrkJjRvvPEGJkyYgA8++ACZmZkaAt7krBR4c+/YsQMLFy7U5RiWT506Vd/8hGLBggVYsmSJbpMaampqwrp163SYWlFR4d56RfSCjAxWrlypQ36el9c+c+ZMPP300z0Q0wj2tGnTdJlXXnlF/+U2p9OJs2fP4t1338VDDz2Exx9/HCEhITo8ZpPh9OnT2kO//vrreO2117QR+OrqavdVXBErA4HYt+ovnG7vbEdoSqj/IGa/8INzD+lBHnvO5WBrSiGWpxRhZkIB3ozLwkuxF/FcZBKejUjE+OgUvHL0EqacysWi5EJsu1SCY9kWxKbkY+mBC5ixOxWXyurcV3DtoqchlElJSQN6YQJE0N98803ExMT0hNesBHjTr127FjabrQdithVXrVqlkz5UZWWlho03PT0tgSPU9JDG+zJsf//99zVs3ioUeldWGMuWLdMAUVVVVZg9ezZGjBjRA3F9fb1O0LGZQHEbKxSe+9KlS9qregun+Tc1NVV7ZV4Tcw70+EYzw/P7EYh9r/4gppwtTv8mtmj/NHEXRiyKxZTtZ7FCAb3lWDp2n8pElAL7cFIuErNKkJxjwelLxTiioN0Rl4HVh9Pw3t5kjFh8FH//Qhj+sDzuhiAmmPSW9KQDiV6YsKxYsULDZNaxY8f0vsTExJ7wnG1Uvjbf+PRyBPf48eP6/egpd+/erT0wK4nw8HANaF5envuIK+J5eByhMYNP0YtOnDixVzhNsVJhJXXgwAF8+OGH2nszFOZ7DdQmZthNb83jNm7ciJdfflkn9zzLCcS+lxlidjGZIab8DrHZ6J2//HwYvvP6HtwVEomfzYzGmFVxeHZtPB5fdhz3z43BP768G5/1GN01FBAzJGUbdaBMNz0uwSRohM4sdtVMmjRJn4ttWUJMr5edne0u0S2eg96YcDB0Xb9+PVavXq1DarZFGWJv374ddarN4ymG6qGhoTpqYFvULM/EFq/v/PnzOixnqMwk1JgxY/Dcc88NCDH/0lOHhYXptjLD8GeffRZPPPGEQOwnmSEeGTYMD1S7EYiv124UYiaGCOCRI0d0KNyfCOCUKVP0Te8Z6hJWtjHNEDOUJihmsRw9dmxsrIaSnplQ0rMyjGVlQm9LyDxlQMz2MBNnZpkh5rWxacDXixcv7gm7GV6zYhkIYkYA3MbrYKRAb89yfC0Q+0dmiEftrMD5Mh8/UC0YIWZoTO+4Zs0anXDqT0w00att2bJFJ4fMYnuREDOs5TJEhJhelR7T8O4EgmE3b3ojzOY5+Zqej+elV2Zl4U0Ej6E3wSRg5qiB2WQmoggxKxG2f82w870ILz/nQBCzImPTgtl3Q/TM/GwCsX/EX9l4oNrYPRV6BpNDhdN8ZjHnFA85xPuSLLhjUqRX2HxlNwoxb2gmb+htGCqzHWlubzIhxcwsQ9TNmzfrrije2Ia3ZBjMPmZWArypjcQWu28InTFIhAmopUuX6uMNUHnjM6SeN2+eBoXdVqwE+hMz2yy3Z8+envOy/cr3HjVqlIaYx3M/YWcmm7Dz+pkQe+GFF3ogLisr0wDyGo3Igu1nfg+MEPgd8DPzs40ePVog9qPauy5jSmwlXoq0Iq+mXT9QLd3WpidDDDnEFy21+P2yOPzt2FCvwPnCbhRiijcg+0SZeWYCiP2mzBDT1q1bp29qwpGfn6+7hQgEb2ru37Ztm4aTIS3hMCB+6qmndOhslNuwYYPO8jJcNofjBJMJJ743z2GuQDzFrDM99owZM3TbmedlxcNuoMcee6ynTczQ2UjCMcRnGXpqtm8NiHkufjaG8/y89NoM9/maFQ238XyMPtgNJRD7T1wUgPOJ3zpk1wsCZFa2IbG0BaeKfTCfmIpNr8CYNafxwylR+OqEcPzlmG1e4RsqGwqIDfHmpydiNtYwAsuuHwMuhtxs7/a334CYZXjj08uyHENZA3Sz6OkJJSsHb33DniJ8DL8JPc/L92HFwMqEySy2nQkUvfrkyZN7lWHobLR1KSbz2E5mToDRiNFPzMqGxzG05nGsBFjZ8NxmMbogwN72iYZOxvI8BJnTEDkBorqpE5WNnb6BmLI7XTiQWoY5ERfx5Kp43D/vCH4y8xDunhqNHyi4b3sxvE+W+XptKCEeCpkh9kxseRP7jAkSofPWNywSGQvl8YFqbB/zeUzGQ9V8BrFZrrZOFNgbkFhQjeOZNkQpuP/44Ul84dkdXqG8VgtmiOkx6VUZ9nKAhUjkTT2rXbqXrFUvu03tGxaIvWnGnjR8ZXy4Vyiv1YIRYo6EYvuabU56YWatxQuL+lOPJx6OdacHq08zxGzzMnnEiRFs73oTPTATR0xosZ3Kdq5I1J8EYpEoyCUQi0RBrgCF+IJALBINUgEJ8ax9F3U3kzcor9UEYtGnXQEJ8Zb4AnxvUmS/600P1m4dG4o3Q5Ngqe49q0gk+jSpB2J3P7H6TxuB9hvEFXUuzI64iHumH9Qe+a/+PPhRXQT/8+N24Dtv7NMDSVJLHO6zikSfThFijtiiNSo+aZyOyHnFfoOYamzpwLFMG2buTcPIlfF4YP4R/HjmIdzlHtXF2VC070+OxJ3vHtDA/3xODB5dchwTNiVob25VlYFI9GkXF4IkwO8csqOivkNPgOBsplSrlwkQYRedmvLhFmuayvoW1batxencSsSkV2DPeQv2JJbg4IUyxGXZkVRUg+KqRrS0y/rGoptLehZTjB0To2z6aYhpCt4zJS6cKPQyAWJ9Uq1y0QKJSBQoYhrL1d6Ft5UXHrenAlkKYobRja1dcFTX94V4TaIDNc0CsUgUKFJBql4A4K2DdowOr0BSeQvqVXu4o7ER5RERArFIFOgyIH5TQTxyR/caW9VVTpTv349j994rEItEgS4zxN1L1rpQnl2E9JAQRH796wKxSBTo8oT4lIKYbWJXeTky58wRiEWiQFd/EFMtdrtALBIFugaCmBKIRaIAl0AsEgW5BoK4rbZWIBaJAl2eEDM7TYgJcOGGDQKxSBTo8gZxTX0Lyvbtw5G77xaIRaJAlxliPhXxrMWFSlsNCtetQ+yddwrEIlGgSzHcA/GoneVIcj9Qra2uDgUKZIFYJApwEeLm9u6x03ygWrq9VT/9gU+CqLI5BGKRKBhkzGJ6OcqGnOo2ZNjbkFDagvi+z2KqxNrEWoFYJAowtXRc1gsCEORSZztyFcgXKlqRqEJrgVgkCgK1KogZKYfE2vUziRlKs5uJrArEIlEQyIC4Z6G8rsvo6OJCeX1GbAnEIlEgqgdi95K17HYyzAvEktgSiQJNnhCb5QGxXSAWiQJQArFIFOQSiEWiIFdAQsz3YF9XRmVrj+VUter0ub/F7F9lY4e+PmdL7+/Coa67tK4dXNaXGcLhEt8vz+P7Mlu2+u48r1V0fWKyiP2yvEct6rfm917oaINN3RO8Pz0hGg4FJMSbk+vwZFgZnthRhid3dtuvN5XgcG6jXijbX+LImLMlzZh/ogp/3l2Ok0XN7j3dilXXN119kWsSHLrSaecDcYZBUVkN+JP6vn63rRSjw8v72Ej1PYamOQXkGxSHN/J33ZtRj7nH1T2wqxwPrC/BiK0WPdBiXWItzlqadaVK2IdLPRAf6Q0x/zUsENN7lTvbexlHn7y034pNSbX60TG7lP14dZG+hkv2ll5lCdZw6XRxM36/naCUYXNKHcrr2917ulWhXm9R2x9WFc4k9RlYQw+HDIhXn3MgpdzVx9adr8W4veVukP0fzQSjeJ/uz2zAI1ss+PyMLHxmcoZX+97SAiw+VYP8mjYdtQ2HzBAbD1RjHzGdyLBAHH7RqW/4N6JtPfbo1lKMVZ7OvO2HywvwO1XjmbfR0qwt7jP5XpNj7Bijat8LV3lPRgz8DIRrOGRAHJ1z5f0Y8nHkjmGsdHjtBNmuQj/OfPFH6BeMYmW9IK4a/7wozyu4nnZLSAb+oCr7MypqGw4nY0AcEluJBvW78vd2qGiArA4LxEfzG/HaARt+pbwXp1KNj7Be1RjKdpcvQ3L58EFMD8xr5fjUgZSl2qEPbSjRXnk45A3ihFKXfuzORyq0N+zZvRX4xfpiHfrtUDCzPScgDyyGxvzN/3pqpldgB7IH1T0Qr6I3X3/FhPgdxSd/1zJnB/Jq2vXzmJLKvTxQzVdt4gx7K15U4XNc0eCeI8zyL0VacaJweJ87TIg5PpWebCAFAsSL4mvwL0vy8a/K/n1lYS+jR/l/H+Tp8EtA7l+MZtjO/e7i/j3wV+bk4Ktzc/DZkL6Q/8WUDLwSZbvq/XKjamm/3D2LSTHBpyEmlbUqllw4kt/sP4j5eEZm/lgL8i+zftxW2dShbzh/QMxsM5Ntg4G4QLWHGClsTK7zeS1M9QfxC/sqdJvYUwfc5X++tgizj1Xp9puA3Fdsqv1WtYE94TQbI0MmuVhhegP5O6rC3HbB6bPeCp61WUFszCfOrGzr9eRSv0E842ilTmztSndiArcrWPn+y0/XoEqB7A+ICebDmy2Yo276q30H/BKfUSE/f1xO0Pa1rhdiZlf5meiRBeS+Cr9YjzuW5vcB02z8Dk+rtu9id+TjDeTXom2obvaNN2YWnPkNQjxqJx+oxu7EAIX48dBSzFTbhxtihlRsA4fE2HGPCkX3Xqof1M3+8fla3fWw7UKd7jv2ZYLjeiBmJUMvQ7trRSEWnqz2yW8bzFpyqga3qVDZE0qzfXl2Nl5VbWYD5P/vBWT+Nuyr94UMiLk8z8iw7geq1QnEvcX27XMKBv6Yo3eW6deDEQdZsDvijmX5GiZfZtGvFeJ49T2vTXD02M/WFOlMP5ssom4xWfS6gpPtWgPGv5mWiW8tzMOPPizoZQ+sL8aGpDodrS1T0SJDaDPE/72uuOfeHmqZITYvWWtIIFYqcrTprO53F+fr/uui2sH1/fIHZbKBgLx10Ibcat/UxNS1QuwplhOIe8va0IGnVahshpEJwfUqwrKpfd6MMJXUtqvKvvdx31MhOQeI+EKeEF/1CRA3I8QUE2wMlX76UZG6pquH09y94qxDhTdlGjCO9PGlBOKhF8FgZvkWkyf+y3czca+6B/h9me1tVUl/EF+tI5xtqXW4c3lBL4hZkR8rGB5PbEBc7+pAcU2fNbZuXogpZskf3mQZVHaaT2pnwoMDBFgB+FoCsW+0SIH596rNawbS0zh6a3R4mQZ4OwFW4bVnmSd2lOp71hfqD+KI1Eo8uvKCQOwp/ljB1E8sEN+YwtKcup/dE0qz/W6bBfHF/QNMT87BIpw04wv1B/F+BfGIFakCsacCHWKOwuK10dj/KxDfmDiZgf393rqNDCOgXLbKG8C0f5iXo/f7qvsuqNrEnI3DPlp/QsxuGSa3PCc+eIrXx1lX2y843Vt8KwPip9X1sX1GY6UnEN+4OHT1mwsHN2ba0/5KtaE5NJj3g68UsBCvOufAe8erEJvXqAdMJJW59AydsItOPbDbXxDPU9fCH4Xvy35fb5VrY6tqj2Q24ClV6fD6h0O8HlYuHLFjGPt/BeIbF7PUE6OsuHVa/zOXvNktynvfs6oQ0dlXmji+kBliPovpdElLYEB8NfkLYoZX7Pt9IcKqvR+HgZrF2SMMae9bV6y/1KLagT22LyVt4qETf3dGOl97L0d7V2/Qmu0LM7LwoxWFCE/3TbeSWWaIewZ7+ANijmYZt7dCT5cjoFezSAUQbzzOEBlucdAGR29xwQLP92ety7G0H55xXDXk9rUIMcPrgzkNKFaVyUDGMeEC8cCqa+nU9ye7mL40K1sP/DAPBGH3EzPVbAO/uL8CWT4aoeUpBoMGxKPDK5Bc3qp7RwwNG8QcX8wb7vYFufinQdpE5Yk53tdfMpbhMYtL9vgqC3mtWpNYq9vFgzHObGIeQiC+uriyy/Qjlfp743DVb+sZYfn4xcfFehbRLtXku1ricyhFiI0Hqo3ba0VGZZtitEuDzTH8wwYxxVUxUitakKjav4MxrrQg6l/FtW1ev7eBzLN5IBpYnF3H1Vv4vfko+TwouTq6pyJOjLIhS0FMb3yi0IWYvGGciigSia5fxsoeTG4ymipwtKtmZxsuWIdxUQCRSHT9MiB+N7ayJ4xmkpVTEgVikSgIZEDMJWuv8kA1gVgkCkSZISa4FLueaL0gnhJjx+oEB6ol+SESBZRc7jW2ZhytUl7YvdGtXhAvOlmjl3FhP60s4yISBYYYOudUt2J8RIVeicRTvSA+Y2nG/e6+MI5g4aR3MTEx/1piqUtnpTk5x9uIx14QU1wUnbNzbl+Qd52W+ykyb59PTGy4LVcvdng03/sQ5D4QU1w4jiOlOPzw2s316TGb+jxi3s3rby/mCyOLAz1o0CvEIpEoeCQQi0RBLeB/ARxxkhHqmglzAAAAAElFTkSuQmCC;" vertex="1" parent="1">
          <mxGeometry x="701.23" y="1650" width="119.65" height="70" as="geometry" />
        </mxCell>
        <mxCell id="TsZBrLs7c3VGLClS2bjf-21" style="edgeStyle=orthogonalEdgeStyle;rounded=0;orthogonalLoop=1;jettySize=auto;html=1;strokeColor=#000000;" edge="1" parent="1" source="TsZBrLs7c3VGLClS2bjf-22" target="TsZBrLs7c3VGLClS2bjf-23">
          <mxGeometry relative="1" as="geometry" />
        </mxCell>
        <mxCell id="TsZBrLs7c3VGLClS2bjf-22" value="" style="shape=image;verticalLabelPosition=bottom;labelBackgroundColor=default;verticalAlign=top;aspect=fixed;imageAspect=0;image=data:image/png,iVBORw0KGgoAAAANSUhEUgAAAPEAAACNCAYAAABmK5yzAAAAAXNSR0IArs4c6QAAAARnQU1BAACxjwv8YQUAAAAJcEhZcwAAFiUAABYlAUlSJPAAACFASURBVHhe7Z0JeFTXeffz1Gmf1k3SJP3i5Gmar87SfF8bJ6lj120SJ60d22nixDhOHBODiQ1eMDbebUBmB4NZzGIWA2YHIcQmJARIYECITUILQmjfR8vMaBlptI12/j3/o7niajQSAjSaGfP+H78Wc++5d+7M3N953/Oe5X4GIpEoqCUQi0RBLoFYJApyCcQiUZCrD8TN7ZdxpqQZm1PqsCah9votMcgswSF20xl/98C3zcl1iC9uRq2r001pb/WCuLm9CxuS6vDc3gpt4yPExMT8bWRxzK5yfKSArmrqC3IviE8UNuGJHWWYf6IacUVNOF/qEhMT87OdVCzOOFqp2TyY0+im9Yp6QTxPwftkWBmmHqnEwpPVYmI3rc09VoVpioN3Y3sb2Zh7vMrrMb60SYft+OlHRVig/t112Q2sW70gZsGnwstxx9J8fHFmlpjYTWu3TsvEZ0My8BdTetstahv3eTvGl0Ymv70wD9OVR+7scgPrlleIv6kKf2ZyhpiYWIDYdxblCcRiYsFsArGYWJCbQCwmFuQmEIuJBbkJxGJiQW4CsZhYkJtALCYW5CYQi4kFuQ05xBw9Mj7CqoelTXcPTfv99lL8nznZXssPtz2wvgTP7C7H7Qtyve4XEws2G1KI/3tdMTYm1+F4YRNWnXNg1rEq7L5Uj9A0J+78sMDrMcNti+KrccbSjPs+Lva632z3rinCs3sr8M+LJfoQC1wbMojvXlmogT2S16Rv/K/MydHbv7+sQHvib8wPDM93LRBPialEcnkLfrPZ4nW/mFgg2JBBzBOkVrTo+Y1/N7P/0Pnna4vxerQNUznrQ9nz+yrwf9/vBpx/R+0sx8iwMj1XkhCFKHtMVQKsFH60ogDj9pTjJx8V4W+nZ+ljuO0FVfahDSVe35fe9DX3+7150Ibo7Aactbh6IP4p9x+4cj2jw8vw9Xk5uF/tP6DKVtR3YFtqnf7sX5+Xq9/bXF5vD5AKSuzmtCGB+PMzsrAhqRZHC5rwH6sK++w37Gdri7AvswHHVLkVZx0KDifOl7kwOcaOr72XowHnvOVL9lYN0PIzDkTnNOhto3aWKYArcLqkGUtO1eCb7jZtSKwdKaryeHG/FV+c1RtiAhp20anPtfR0DfaoSKGotk2XJ8RfUe309+OqsS+jHsvUfr4Pr4eVCKOHw7mNsDV0IFydg9EFmwScT22UZ7OB5f+kyn/OXamIiQ23DQnE/6A8F2/0KAVLf23f25Qn/SjBgaRyl04sfVF5zW8uyMNW5eW4vAiBMyBOUSEsVytgmYdVKHtK7eeSQL/aVKLb3DF5jfjx6iLtuVkRcDL0PR6VBwFlRXFWhc4GZP+uQn6WZYhMiG+bm4MRWy3au3I/E3KMJt47XoV/VN7VM5xm+Ue2WPTczc+piotRBCsEzrUOlOaC2M1nZog7PCYUDxriL6gbemOy8sT5fWEy7B4F0CHl2egNf6Daycb2tw/Rk7r0uX+1sQSf5Ddh+wUnvrc0X+//qgJnkwI3KqtBt7tfirRq7/eiAo6VAb3hFOXJWc44J41l6YHpNc0Vi2eb+N/UPnrxEHWOHWlOFDrasPy0Q1cw3trE/7ZclVfvzfKh6jpZ/kMVMXzLy/ciJjYcZkDMHqH2zst6YQB6ZNo1tYlnflKJhFKXXibk1ml9Q0uG2QxPmfwyQ0yAEkqb8WfleX+9ydIHYnpUhuqRboh/oeA7qsoQbLZVY5VX/i/lwY3zGUavy/bvXhPE7OZad74W59R1EmICvPqcQ4PO0J1/S2rb+4X4hwrgle7yBJd/i1V5gVjMn2ZAzBwNF7N0KWts60JDa9e1QfyICku59hZv7N+qkJPemdv/dUm+huCuFQVYqwAi6DwP939DhcMMeelNmYAywmmex2hbM6l1srgJaxId+O7iPO1xPzhVrdvG6bYWDRW3m6+FxnKEnxXEH0NLdSLsl8rTMzRPtXaH00xQJavwnu1dIzxOt7X2C/ErUVbdHGA55gF43EV1LoFYzJ9mQDxZMVrZ2IkyZwfya9qRXdV2bRAzMcV27BHlJWOUx50fV61PSm/JpTXvWFqgB1owxOV+JpTWJtZqaBkOMyNsQJyj3nylgpvHMwRnO5ZtUSN59AcFJWHKq27DaHVN/SWV6NnZfqYX59pHW1S7Olcdk+xObPF6manmKp58L1ZApc4rnpjn5hK9G9X+J3eW4R1VRr9WUQDL08uzvEAs5k8zIKZTIryX7G3KebXgZJHr2iA27MENJTo2J6Q0wsPkFJNU3E+QzfvZJcWuG+4jxAynmb0mGMbx9IRfMmWeWe64KsOwur82uGF871mfVOlzhahw441omw7hv60++O0KVHpVJqa431j87LfqmC+r9+N+Xh/3v6DK/XxtUc/rXuVVBfPl2f13q4mJ+dIIMZ3I8/usyFAAW+o6tBU62q8P4hsxA2Jzm9ibjd1TgXPKgxLKr3kktMTEbjajF/6WcjhPhVcgtaIV9aotbCjgIGZmmJ6TySwmyAJlKKeYmD+NELP596ewcpxTYXRdix8h7g4JKnS/rmeXEe3Hqwt1+5nhMdu0MsBCTOwKxE/sYA7HhTpXN8SdnZ3DD7GYmNi1mwHxHxXEpxXEtQpil8uFnJxsgVhMLBisN8QtKK9uwIXUVGzauF4gFhMLBjNDHJffgNNJadi04WMsWbxQIBYTCwYzQxyTbkP4vkgsXvg+tmzeKBCLiQWDmSGOTCzA5m2h2gvHnTjWF2Lj6W8cfigmJhYYxkFHD64v0RBHnS/CwdijOHTwAIoKC/pCzFk+zpZOdF3mTAkxMTF/W2fXZTS1denZgOxiOpFbC4utBnW1tWhpaekL8e70ejSrA0QiUWBIcYzWji7NJyE+a7nKYA+BWCQKLJkhfnJnOc6XtqhoWSAWiYJGXMejrfOyXuLqmd3dU2nrFcSKa73Kh0AsEgWBCCvnvk/Yb9VziAsc7citbkdGpZf5xAKxSBR4YnKLM/rePGjX0w/TrG165NaxwmaBWCQKBjFLza5fLu/sdHWhprkL9sYOvdyyQCwSBYEIMdfXYn9xa8dlvVge28n8t0AsEgWBDIj57LMOBS+TXdrU/wRikSgI1APxYBaPF4hFosCTQCwSBbkCBuLL6kJoXV1dPWZsE4lE/ctvEBPSjo4OtLW16YHazc3NqG9qRlVjM6zK+NepXjep7dzPcizP40Qi0RUNO8SEkEDWNDYhq64R8dUNOGSvR4TNiTBbAzbaGrHW1oQN6m+oer3PVq/3x9U0IlOVr1Vg83iBWSTqlhniqz5Q7UYhrne1oa6+EZUOB6IVmPNsLXjZ2oEx1i48br2M31mBRz3sD2r7U2r/eFVuriofY3eizFGrFwITkEUiE8RHuh+oxhFc9MgcPz3kEKcWVSOnxIpSeyWW2lx40g3uI6Wd+HVhC36Z3YgHLtbivpRq3J9agwcv1eF/cprwcFErHinrwmgF82pbMzLt1Si1VqHJ1eo+s0h084oQc8QWQeYD1Wh8mBpnMw05xJHJFhxOLkBhqRWflNdgfokT4/Od+GNaFX4ZX4KfRGfi+2Hn8d2Np/D97Qn4SWQ6fh1XiCdT7ZhYUI9VFY1IsDuQZbFi9eGLuGipcZ9ZJLp51emGmIzyofgldR16IsQlmw8mQISfK8aEjWcxPfw8wk5lITK1ADvSirBWgb3wTDamHkvH64dS8HLUebwVcwFzVZmVal9YpgXRuRWIz7Yg4mwOZu1WoL+xF+EJxe4zi0Q3r9gO5gSIV6JsyKvufqDaOUsL4r09UG0oIP6Xt/fjM6O24D+nHcCE9acwZ08SlkSlYE1MGrYdv4R9CuboxFwNa+iJDKyLTcPy6FTM3p2E5z8+hR+FROHWZ7brcwjEoptdTGNxnDSnIj6314qsyjZYlTemlTt9MAHCDLGnfX5cKG5/dTfuDInEvTMP4u53o/Dt1/bgi8/twC1PbfV6jEAsutmlImk90WHS4UrwgWopV3ugmi8hvh4TiEU3u7oh7l6eZ2QYnxbq4zW2BGL/qKamBikpKSgtLZVuuU+ZzBB3P1BNQex+oBoVEBB/bux2fGPiLtzxTgTum30QDy+IwSOLYvHoB0fxSUYZXC0taG1t1dbe3q6fBOerG5UjxwhDVFQUIiIitB08eBCFhYX6vQNVycnJeOedd7B//379PQ1GjY2NuHjxogaf3+n1iOdIT0+HxWK57nOIBpYZYuNZTHygGtXa0epfiL+k2sL/MTUKT6+Jw1t7UjDzWDbWpJdja0E1Qi21CKtwYpetHvvtDThQ2YAjVQ1IcDQix9kER1Ozvll54wzV2Ovy8nIN7Pz58/H222/jrbfe0vb8889j3759aGhocJcMPF0PxMXFxZgzZ46uqAZ7jCGr1YoTJ07g448/xksvvYS9e/de8zlEg1N/EBPgcyXn/AfxbeN34pnVJ1S4nIf9pQ4stzVjkq0NY62degSX56guDhjhQJBXrO16FBiHb2ZW18KpwHK1KJg9hqJdqwjwpk2bMGvWLJw6dUp7ZEMZGRnIycnptS3QNJwQc3w73+fVV1/F2LFjMXLkSIHYh/IGsa2hWQM8btc4/0HMkPlkWgGS7TV429rWA+uIisv4raUDDxe24n9ym/DLnEb8Kt+F3xS36RFdRjkCHWVzosxeibyySjibrv8GIpxbt27FokWLkJWVddVQneUvXLigvXZkZCQOHz6MoqKinnCbx/N1bm4u7HY7zp07p8vReH7e7DxHWlqaLmO++Xks4eJ2hqreZJT55JNP9Dnj4+Nx6NAhHTWYIaa3jIuL63lvXkdtba0+vqSkBDt3qor0mWcwffp03XwoKCjQn8HhcODMmTM9x508eVJ/DiPi4bh2njchIUF/nvfee08g9qG8QWypq0PEpQg8sPYB/0H8izkHsSs+E8kWG1aVOvFiYSNG5jbgN+m1uC/Biv88Vog7IzPwg31puOtgNn560oKHUqrwWJYTzxQ0Yp6lHgnWahSWWRGZmI9Ce737Cq5dbO/OnTsX0dHRerz2QGIC6ejRozrkJjRvvPEGJkyYgA8++ACZmZkaAt7krBR4c+/YsQMLFy7U5RiWT506Vd/8hGLBggVYsmSJbpMaampqwrp163SYWlFR4d56RfSCjAxWrlypQ36el9c+c+ZMPP300z0Q0wj2tGnTdJlXXnlF/+U2p9OJs2fP4t1338VDDz2Exx9/HCEhITo8ZpPh9OnT2kO//vrreO2117QR+OrqavdVXBErA4HYt+ovnG7vbEdoSqj/IGa/8INzD+lBHnvO5WBrSiGWpxRhZkIB3ozLwkuxF/FcZBKejUjE+OgUvHL0EqacysWi5EJsu1SCY9kWxKbkY+mBC5ixOxWXyurcV3DtoqchlElJSQN6YQJE0N98803ExMT0hNesBHjTr127FjabrQdithVXrVqlkz5UZWWlho03PT0tgSPU9JDG+zJsf//99zVs3ioUeldWGMuWLdMAUVVVVZg9ezZGjBjRA3F9fb1O0LGZQHEbKxSe+9KlS9qregun+Tc1NVV7ZV4Tcw70+EYzw/P7EYh9r/4gppwtTv8mtmj/NHEXRiyKxZTtZ7FCAb3lWDp2n8pElAL7cFIuErNKkJxjwelLxTiioN0Rl4HVh9Pw3t5kjFh8FH//Qhj+sDzuhiAmmPSW9KQDiV6YsKxYsULDZNaxY8f0vsTExJ7wnG1Uvjbf+PRyBPf48eP6/egpd+/erT0wK4nw8HANaF5envuIK+J5eByhMYNP0YtOnDixVzhNsVJhJXXgwAF8+OGH2nszFOZ7DdQmZthNb83jNm7ciJdfflkn9zzLCcS+lxlidjGZIab8DrHZ6J2//HwYvvP6HtwVEomfzYzGmFVxeHZtPB5fdhz3z43BP768G5/1GN01FBAzJGUbdaBMNz0uwSRohM4sdtVMmjRJn4ttWUJMr5edne0u0S2eg96YcDB0Xb9+PVavXq1DarZFGWJv374ddarN4ymG6qGhoTpqYFvULM/EFq/v/PnzOixnqMwk1JgxY/Dcc88NCDH/0lOHhYXptjLD8GeffRZPPPGEQOwnmSEeGTYMD1S7EYiv124UYiaGCOCRI0d0KNyfCOCUKVP0Te8Z6hJWtjHNEDOUJihmsRw9dmxsrIaSnplQ0rMyjGVlQm9LyDxlQMz2MBNnZpkh5rWxacDXixcv7gm7GV6zYhkIYkYA3MbrYKRAb89yfC0Q+0dmiEftrMD5Mh8/UC0YIWZoTO+4Zs0anXDqT0w00att2bJFJ4fMYnuREDOs5TJEhJhelR7T8O4EgmE3b3ojzOY5+Zqej+elV2Zl4U0Ej6E3wSRg5qiB2WQmoggxKxG2f82w870ILz/nQBCzImPTgtl3Q/TM/GwCsX/EX9l4oNrYPRV6BpNDhdN8ZjHnFA85xPuSLLhjUqRX2HxlNwoxb2gmb+htGCqzHWlubzIhxcwsQ9TNmzfrrije2Ia3ZBjMPmZWArypjcQWu28InTFIhAmopUuX6uMNUHnjM6SeN2+eBoXdVqwE+hMz2yy3Z8+envOy/cr3HjVqlIaYx3M/YWcmm7Dz+pkQe+GFF3ogLisr0wDyGo3Igu1nfg+MEPgd8DPzs40ePVog9qPauy5jSmwlXoq0Iq+mXT9QLd3WpidDDDnEFy21+P2yOPzt2FCvwPnCbhRiijcg+0SZeWYCiP2mzBDT1q1bp29qwpGfn6+7hQgEb2ru37Ztm4aTIS3hMCB+6qmndOhslNuwYYPO8jJcNofjBJMJJ743z2GuQDzFrDM99owZM3TbmedlxcNuoMcee6ynTczQ2UjCMcRnGXpqtm8NiHkufjaG8/y89NoM9/maFQ238XyMPtgNJRD7T1wUgPOJ3zpk1wsCZFa2IbG0BaeKfTCfmIpNr8CYNafxwylR+OqEcPzlmG1e4RsqGwqIDfHmpydiNtYwAsuuHwMuhtxs7/a334CYZXjj08uyHENZA3Sz6OkJJSsHb33DniJ8DL8JPc/L92HFwMqEySy2nQkUvfrkyZN7lWHobLR1KSbz2E5mToDRiNFPzMqGxzG05nGsBFjZ8NxmMbogwN72iYZOxvI8BJnTEDkBorqpE5WNnb6BmLI7XTiQWoY5ERfx5Kp43D/vCH4y8xDunhqNHyi4b3sxvE+W+XptKCEeCpkh9kxseRP7jAkSofPWNywSGQvl8YFqbB/zeUzGQ9V8BrFZrrZOFNgbkFhQjeOZNkQpuP/44Ul84dkdXqG8VgtmiOkx6VUZ9nKAhUjkTT2rXbqXrFUvu03tGxaIvWnGnjR8ZXy4Vyiv1YIRYo6EYvuabU56YWatxQuL+lOPJx6OdacHq08zxGzzMnnEiRFs73oTPTATR0xosZ3Kdq5I1J8EYpEoyCUQi0RBrgCF+IJALBINUgEJ8ax9F3U3kzcor9UEYtGnXQEJ8Zb4AnxvUmS/600P1m4dG4o3Q5Ngqe49q0gk+jSpB2J3P7H6TxuB9hvEFXUuzI64iHumH9Qe+a/+PPhRXQT/8+N24Dtv7NMDSVJLHO6zikSfThFijtiiNSo+aZyOyHnFfoOYamzpwLFMG2buTcPIlfF4YP4R/HjmIdzlHtXF2VC070+OxJ3vHtDA/3xODB5dchwTNiVob25VlYFI9GkXF4IkwO8csqOivkNPgOBsplSrlwkQYRedmvLhFmuayvoW1batxencSsSkV2DPeQv2JJbg4IUyxGXZkVRUg+KqRrS0y/rGoptLehZTjB0To2z6aYhpCt4zJS6cKPQyAWJ9Uq1y0QKJSBQoYhrL1d6Ft5UXHrenAlkKYobRja1dcFTX94V4TaIDNc0CsUgUKFJBql4A4K2DdowOr0BSeQvqVXu4o7ER5RERArFIFOgyIH5TQTxyR/caW9VVTpTv349j994rEItEgS4zxN1L1rpQnl2E9JAQRH796wKxSBTo8oT4lIKYbWJXeTky58wRiEWiQFd/EFMtdrtALBIFugaCmBKIRaIAl0AsEgW5BoK4rbZWIBaJAl2eEDM7TYgJcOGGDQKxSBTo8gZxTX0Lyvbtw5G77xaIRaJAlxliPhXxrMWFSlsNCtetQ+yddwrEIlGgSzHcA/GoneVIcj9Qra2uDgUKZIFYJApwEeLm9u6x03ygWrq9VT/9gU+CqLI5BGKRKBhkzGJ6OcqGnOo2ZNjbkFDagvi+z2KqxNrEWoFYJAowtXRc1gsCEORSZztyFcgXKlqRqEJrgVgkCgK1KogZKYfE2vUziRlKs5uJrArEIlEQyIC4Z6G8rsvo6OJCeX1GbAnEIlEgqgdi95K17HYyzAvEktgSiQJNnhCb5QGxXSAWiQJQArFIFOQSiEWiIFdAQsz3YF9XRmVrj+VUter0ub/F7F9lY4e+PmdL7+/Coa67tK4dXNaXGcLhEt8vz+P7Mlu2+u48r1V0fWKyiP2yvEct6rfm917oaINN3RO8Pz0hGg4FJMSbk+vwZFgZnthRhid3dtuvN5XgcG6jXijbX+LImLMlzZh/ogp/3l2Ok0XN7j3dilXXN119kWsSHLrSaecDcYZBUVkN+JP6vn63rRSjw8v72Ej1PYamOQXkGxSHN/J33ZtRj7nH1T2wqxwPrC/BiK0WPdBiXWItzlqadaVK2IdLPRAf6Q0x/zUsENN7lTvbexlHn7y034pNSbX60TG7lP14dZG+hkv2ll5lCdZw6XRxM36/naCUYXNKHcrr2917ulWhXm9R2x9WFc4k9RlYQw+HDIhXn3MgpdzVx9adr8W4veVukP0fzQSjeJ/uz2zAI1ss+PyMLHxmcoZX+97SAiw+VYP8mjYdtQ2HzBAbD1RjHzGdyLBAHH7RqW/4N6JtPfbo1lKMVZ7OvO2HywvwO1XjmbfR0qwt7jP5XpNj7Bijat8LV3lPRgz8DIRrOGRAHJ1z5f0Y8nHkjmGsdHjtBNmuQj/OfPFH6BeMYmW9IK4a/7wozyu4nnZLSAb+oCr7MypqGw4nY0AcEluJBvW78vd2qGiArA4LxEfzG/HaARt+pbwXp1KNj7Be1RjKdpcvQ3L58EFMD8xr5fjUgZSl2qEPbSjRXnk45A3ihFKXfuzORyq0N+zZvRX4xfpiHfrtUDCzPScgDyyGxvzN/3pqpldgB7IH1T0Qr6I3X3/FhPgdxSd/1zJnB/Jq2vXzmJLKvTxQzVdt4gx7K15U4XNc0eCeI8zyL0VacaJweJ87TIg5PpWebCAFAsSL4mvwL0vy8a/K/n1lYS+jR/l/H+Tp8EtA7l+MZtjO/e7i/j3wV+bk4Ktzc/DZkL6Q/8WUDLwSZbvq/XKjamm/3D2LSTHBpyEmlbUqllw4kt/sP4j5eEZm/lgL8i+zftxW2dShbzh/QMxsM5Ntg4G4QLWHGClsTK7zeS1M9QfxC/sqdJvYUwfc5X++tgizj1Xp9puA3Fdsqv1WtYE94TQbI0MmuVhhegP5O6rC3HbB6bPeCp61WUFszCfOrGzr9eRSv0E842ilTmztSndiArcrWPn+y0/XoEqB7A+ICebDmy2Yo276q30H/BKfUSE/f1xO0Pa1rhdiZlf5meiRBeS+Cr9YjzuW5vcB02z8Dk+rtu9id+TjDeTXom2obvaNN2YWnPkNQjxqJx+oxu7EAIX48dBSzFTbhxtihlRsA4fE2HGPCkX3Xqof1M3+8fla3fWw7UKd7jv2ZYLjeiBmJUMvQ7trRSEWnqz2yW8bzFpyqga3qVDZE0qzfXl2Nl5VbWYD5P/vBWT+Nuyr94UMiLk8z8iw7geq1QnEvcX27XMKBv6Yo3eW6deDEQdZsDvijmX5GiZfZtGvFeJ49T2vTXD02M/WFOlMP5ssom4xWfS6gpPtWgPGv5mWiW8tzMOPPizoZQ+sL8aGpDodrS1T0SJDaDPE/72uuOfeHmqZITYvWWtIIFYqcrTprO53F+fr/uui2sH1/fIHZbKBgLx10Ibcat/UxNS1QuwplhOIe8va0IGnVahshpEJwfUqwrKpfd6MMJXUtqvKvvdx31MhOQeI+EKeEF/1CRA3I8QUE2wMlX76UZG6pquH09y94qxDhTdlGjCO9PGlBOKhF8FgZvkWkyf+y3czca+6B/h9me1tVUl/EF+tI5xtqXW4c3lBL4hZkR8rGB5PbEBc7+pAcU2fNbZuXogpZskf3mQZVHaaT2pnwoMDBFgB+FoCsW+0SIH596rNawbS0zh6a3R4mQZ4OwFW4bVnmSd2lOp71hfqD+KI1Eo8uvKCQOwp/ljB1E8sEN+YwtKcup/dE0qz/W6bBfHF/QNMT87BIpw04wv1B/F+BfGIFakCsacCHWKOwuK10dj/KxDfmDiZgf393rqNDCOgXLbKG8C0f5iXo/f7qvsuqNrEnI3DPlp/QsxuGSa3PCc+eIrXx1lX2y843Vt8KwPip9X1sX1GY6UnEN+4OHT1mwsHN2ba0/5KtaE5NJj3g68UsBCvOufAe8erEJvXqAdMJJW59AydsItOPbDbXxDPU9fCH4Xvy35fb5VrY6tqj2Q24ClV6fD6h0O8HlYuHLFjGPt/BeIbF7PUE6OsuHVa/zOXvNktynvfs6oQ0dlXmji+kBliPovpdElLYEB8NfkLYoZX7Pt9IcKqvR+HgZrF2SMMae9bV6y/1KLagT22LyVt4qETf3dGOl97L0d7V2/Qmu0LM7LwoxWFCE/3TbeSWWaIewZ7+ANijmYZt7dCT5cjoFezSAUQbzzOEBlucdAGR29xwQLP92ety7G0H55xXDXk9rUIMcPrgzkNKFaVyUDGMeEC8cCqa+nU9ye7mL40K1sP/DAPBGH3EzPVbAO/uL8CWT4aoeUpBoMGxKPDK5Bc3qp7RwwNG8QcX8wb7vYFufinQdpE5Yk53tdfMpbhMYtL9vgqC3mtWpNYq9vFgzHObGIeQiC+uriyy/Qjlfp743DVb+sZYfn4xcfFehbRLtXku1ricyhFiI0Hqo3ba0VGZZtitEuDzTH8wwYxxVUxUitakKjav4MxrrQg6l/FtW1ev7eBzLN5IBpYnF3H1Vv4vfko+TwouTq6pyJOjLIhS0FMb3yi0IWYvGGciigSia5fxsoeTG4ymipwtKtmZxsuWIdxUQCRSHT9MiB+N7ayJ4xmkpVTEgVikSgIZEDMJWuv8kA1gVgkCkSZISa4FLueaL0gnhJjx+oEB6ol+SESBZRc7jW2ZhytUl7YvdGtXhAvOlmjl3FhP60s4yISBYYYOudUt2J8RIVeicRTvSA+Y2nG/e6+MI5g4aR3MTEx/1piqUtnpTk5x9uIx14QU1wUnbNzbl+Qd52W+ykyb59PTGy4LVcvdng03/sQ5D4QU1w4jiOlOPzw2s316TGb+jxi3s3rby/mCyOLAz1o0CvEIpEoeCQQi0RBLeB/ARxxkhHqmglzAAAAAElFTkSuQmCC;" vertex="1" parent="1">
          <mxGeometry x="701.23" y="1761" width="119.65" height="70" as="geometry" />
        </mxCell>
        <mxCell id="TsZBrLs7c3VGLClS2bjf-23" value="Local Fileshare" style="shape=image;verticalLabelPosition=bottom;labelBackgroundColor=default;verticalAlign=top;aspect=fixed;imageAspect=0;image=data:image/png,iVBORw0KGgoAAAANSUhEUgAAAGQAAABECAYAAAB3TpBiAAAAAXNSR0IArs4c6QAAAARnQU1BAACxjwv8YQUAAAAJcEhZcwAAFiUAABYlAUlSJPAAAARgSURBVHhe7ZzJTttQFIb7iH2GbvoC3fQJuu0izJAAgYghjGEOQ5mygBAEZZYgbFpggZBAIGBz2//WQW44sa/t6xsnOb/0ybGi2Oc/v298ncT5IFiREgcSMXEgERMHEjFxIBGT0UCen5/F0tKS6O3tFU1NTSIWi0VuidoWFxdlrdWQ0UAGBwel8VoAtVZDxgLZ2toSzc3NNcXe3p5VvTkZCQTDv6urS5psaWmpmSVqNv3WZSSQ7e1t0draWpOgdpMKPZCXlxeRSCRIsyU6Ozvle3Y16OnpIWsqgdrhwZRCDySfz4u2tjbR3t5ecZnNZsX5+XlV2NjYcK0PHkwp1EBwZHV3d0tTThweHpLNMgWmulRdJeDB1CgJNZCdnR3R0dHhyNTUFNkkk2CUULXZgRcTCi2Qh4cHaQTnB6clppZUk0xyenoqR4Fbvff395a78BRaIKurq3La6AROqLhyjwI4wVM12oGnsBVKIBgdlKF6AN7CVCiBrK2tiXg8XpfAW5jSHgiOIMzd65kwR4n2QDBjwQmynllfX7fc6pfWQK6urkgD9cjt7a3lWq+0BjI/Py8vsjB7qrScnp4WhUIh0qysrLj6gNcwpC2Q6+trWawbR0dH5LVA1MA0mKrfDjzrlrZA8HlUX1+fJJlMvj22r+OoosxHEZwLy+svX19YWLDc65OWQHCk2AuuxO7uLmk+iuDqfWBggPRhR/co0RIIvoNOpVJv9Pf3v1uPwmdWXlleXq7op/QY3nUqcCA3Nzf/FVuJkZERGUotMT4+TnopBz3QpcCBZDIZObQbmbm5OasbwRUokIuLC7LARgS90KFAgWBYDw0NMX/B9ZUO+Q6kWCzKQoaHh3lpLdGToPIdyOzsrEin04yNmZkZqzv+5SuQy8tLOWtCEZWWONlTU8laZmxszNU3ehNEngN5fX2VzR4dHXUkl8uRpmoZeKK82sGMCz3yK8+BHB8fyyPFicnJSXF2dkaaqmXgCd4oz3bQI7/yFAiSx2wCF0wlJiYm3q3ju2fKUD2AbwzL/Zavo0d+R4mnQE5OTuQO3cBPZvb39+sSeKM8l4Ne+ZFyIEgcMyucPzBsK8HP/3sevfIzSpQDwaef2BmjDnrmVUqBIGnMHqidMpXxM+NSCgTfY1A7ZNw5ODiwuqgm10Cenp7IHTHqPD4+Wt10l2sgGB244MFVKOMd9A49VJVjIPipC36th/skGP+gh3d3d1ZXneUYCD7BpHbAeAejRUWOgeBmFWrjjHdwS4OKHAOhNsz4R0UciEFUxIEYREUciEFUxIEYREWBAvlcKIpPP3+58j2ZIl/faKgoUCAffwslvqUz5OsbDRVxIAZREQdiEBVxIAZRUaBAvmZz4suPvCuxeIJ8faOhokCBMN5QEQdiEBVxIAZREQdiEBVxIAZRkWMguBeb2jDjHdxKrSLHQPBfu9TGGe+o/m+jYyDQ5uam/AccaieMO/hfFNzGoCrXQFhmxYFETBxIpCTEH/n4VcEpRlQEAAAAAElFTkSuQmCC;" vertex="1" parent="1">
          <mxGeometry x="915.59" y="2070" width="58.82" height="40" as="geometry" />
        </mxCell>
        <mxCell id="TsZBrLs7c3VGLClS2bjf-24" value="ADF Pipeline" style="shape=image;verticalLabelPosition=bottom;labelBackgroundColor=default;verticalAlign=top;aspect=fixed;imageAspect=0;image=data:image/png,iVBORw0KGgoAAAANSUhEUgAAArAAAAGoCAYAAAC+KdbdAAAAAXNSR0IArs4c6QAAAARnQU1BAACxjwv8YQUAAAAJcEhZcwAAFiUAABYlAUlSJPAAAPdBSURBVHhe7L0HuF9Xdeb9fd9MMplJZpIME5IwCZPeSCaBAKEHEgjFJvReTQ29mGqMKxhwwxjbGDfcjW2MccNFtiTbki25yZKsrivp6l7dont1ey8631p7r3XO2nuf86/n/JvW+zzv894QxxxHkvW7r97/Ov9PpFKpVCqVSqVStZEUYFUqlUqlUqlUbSUFWJVKpVKpVCpVW0kBVqVSqVQqlUrVVlKAValUKpVKpVK1lRRgVSqVSqVSqVRtJQVYlUqlUqlUKlVbSQFWpVKpVCqVStVWUoBVqVQqlUqlUrWVFGBVKpVKpVKpVG0lBViVSqVSqVQqVVtJAValUqlUKpVK1VZSgFWpVCqVSqVStZUUYFUqlUqlUqlUbSUF2DbQocUoWje5HF01vBR9s3cxetfuhejfts+DF6JXbYPcZtPxVutXijTewp4z+a+cT82l+l82Q4IxrWdtboLcNBe9wuRs9IqNYE7hlz/JOWO+jnMDJPifRRo/4fplnI9Pg/2cjl76GCQY0/Gj1i+Jc8p8/ZJHIIVfzLk+3S9aNxm9eJ1Nxw9bv5DzIfu1SeMJky9Ym6TjNdb/JNL4Qfa4yedzPjDu+NUPT0Sf2jQdnd01G93avxBtmViK5pfpJ4xKdYTr0Oxy9POu6ehbj45FX3hwJHr/iqHoqNsGoxfc0B/9+ZW90R9c1mP8vzkv9XzJfpPPwARjGl8sEvz7nBexu0V2R7/34yQdX2j9u3HuM1//7o8gf8S5L3o65wXp/p3zIcG/c/5e87VN8HnW/0uk8Q9dP43z3D2uf2Dzf2KCMR2fY/3b53TZ/H5Xqn/r7CQdn7Ub3BX9pkjjM13/D84zfO8y+d9PhwRjOv6e9W+INP7uTvCu6Lfh//4P4Nn/8vw90XMu3he99PL90Wuu6Ym+cu/B6JrN49HmwTn6maRqZSnAtqgemVqOzh9cij64B2EVANUAK8Epp3AAqlsBTA2wIqAChIo09kGVkwHVZOIYVH0zqG6cifPlMbAmNqBKmeaXPTFNwApAiiZAjUGVE+GUUxgB9aUGUj37oMpeD2BqINXmi0wKQPUcg2psAFMDrASoJgFG2R6wGlCltAYwNcCKCVBqQNWmsQesz+O8fwzMmfi5qyHBb14/EX3lqenox3tno83jS/SzSaXqfK0fmIvOfGI8euMdg9Ef/ATAFO2D6mUApAZYEVATP4NTwqrw71/cTcAKQBqnhVMDqCKNPWBFQOU0oGrSwilmDKpsH1Qv2EvASoDqOQBV9g/3EKhiAoyyPWD9n5wxpAKYirSgCjDqm0FVpPHZAKYGVjEBQhFUKR0joELGoHomAKkBVgTUxP+dMw1Wwb/xvZ0EqgCocSKsWv+6SOPvuP5v39lh87QdYJv/Hf7nF1/WHZ2waihas3+GfpapWkkKsC2kByaXo9P7l6J3di1G/7ZjIXo1GNMYIFbaAm1K80oOgBZb1xhouXkFaM0CWoDYzOYVMgBaAtkEaClN68pAmyRCq9O8sv3mlW0AltNCbAy0KU5tXtOAFiGWUxihNWleRQMrQNYB2rh5tbZAy81r2MAaoI1hVtiALDevAK1lgZYtwXY8BtpXABwft3U6+kXffLR3WitaVWdpz/hidDpA6z//fCD6w8t7YyO8/uFPbMYgmwa02LZyGiPIpjSvbG5cRRobgE0yBloPZNlJ88omsBUgWxpoKQ3AhmAbAC02rZwx0FLzyimM0FpR82pANmxgY6D1m1cyQqvTvLJjkE3SAi0bQXZ3BUALya0rGgGW87u7EqBFgE0DWoDYXzcgy94R/cH3d0cfuqU/uvSJsWjf2AL9DFQ1UwqwTda++cPRVcPL0Uf3LcbA6oKrBVWbAKWcPrQisDrgSg1sVhPrASvbgKtJAlYJrgSrpcGVmlgHWBNng2vSwFbcxEoDnFpwxSaWwVU4DVwdUxOL4JrWxApgdcHVgqpNgFJOD1jZCbhSAyubWILV6ptYSARW0cRiGq8SCX73oxPRGTtnonsGF6LZpcP0s1Clai9tGJqPvrFuNPrLqw9YaEVgvdxCKn5dHlwtqLppIbUycAVAjcE1cXlw3ScmA8ICWNPBlRpYTg9YzWSgJLh6TawHrOxscE0aWKeJFdBqgJUzhtWUJtaHVrQAVpsAqAZcLbDaBCjNAlcEVgdcBbCmNbEesLIRVC24YhMr/G3r/0r5tNN3Rh+9rT+6c9cU/YxUNUMKsE3So9OHo2/3L0Wv3rkYvQb86p0ArmgEWE6CWJOifU2AthkbWLIB2Qo2sJx+EwvQmrmB5TQgS2nA1U8Lr8VuYCFr2sBaI7RyOo5BNkkLsmwE2ewNLBvh9fkGZD0bkE2aWAdoyf/+8ET0w67ZaNuETg1U7aHVB2ajTz8wEj3zil5jhNdniuY1tgHZjCZW2GliHVuwrRhosX2NgTYBW4TWVKAFiC1uAwspQDYAWmF3A1tHE4vgmga0AK+cjgFa89vA2nQcg2ySsoHlLA+0kDHQihRA+9LLuqOzHx6JesYX6WepqlFSgG2wds0djs4YQHAVoApZc/NKTkCVGleTtm11mle2D6pPzRKwUuNqMnHQvLJjUK1xA0vAWnPz+phsXhFSPfugyqbGtfEbWGpcZfMKX5dvXscIWKlxNZk4AFU2weo/rhqN8x8xV0IKf3HTVHTnwHykpayqFdUzuRR9cc2IgFRsXDkBQg2o2nTsg2peG1gE1Go3sDGoCiOgQmY3r9a2eUU4TXcAqmy/eWX7oMoZQyqAqcjU5lUAa0UbWIZUaQRUyPTmNXFjN7ChuXnFNP6WSPCvfWt79IyzdkVfvmcw2tCvHwBrlBRgG6Qh+ObskqHl6Ohdi9FrwAitSfPqNbAEsS7Qus5tA4sAmwa0ALEVXR/wQDYBWkq/eZVAK0GWzY2ryGQDWwnQWrfWBja0AVoDsp4NyFawgQWI5UyANskAaAlkE6ClXGm/tiA7Fr1l3UR04Z7ZaPeUtrKq1tCNu6ejF93UH7eucfNK6dqCbQC0BLAB0GLbahIBNkmE1pbewGLzahIBlrME0FLTys53A5uALDt7A2vBFqG1sikB2QBskgitqUAL8IpZVfOaBrRx88pGkIUUIBsArfAxv+iLVnTpvKBoKcA2QPdMLEcf2IvgaiH1NQyr0gJYXXCtsIlFYHXAFQCVgTUGV4BSTg9Y2Qm4ErByCyuAtTS4yg1s6GxwLWgDi6CaBa6Okwb2xQyr0gJYXXC1oGoToJQzBVrRCbhSA5vLBtbCKmYquHIiqHIT6zWw7OfcBwnG/O6OmWjvtIKsqjnqodbVAVdOp4GFFMAagCsngiqnB6w2LaSWBlfZxFpIlc4G1+QKQWYTS7BqEkHVAddk+5qAq7AA1gBcTda6gaUm1gArQKnI0uAqG1hOC6kVgSuCagCuAKXsNHCVwMpNLIKq18SmASs7BlXRvhr7wMqOoXW7SWxifw3zVEgwguy2oXn6Ga3KWwqwBWpgMYrOGlyOXrvbtq6OxfY12MAKx0Ar2tcEaJuxgSWwNSCrd2BjoEWI5YyBtrU3sBZoKbGJNQaAxUSQha9fClD8w92z0eCcXjBQNU7Yur745wPRM6/sjf7PlQcciJVGeC1kAwvQihkALYIspwFZStO+ohFgOS28pgItQCw3sAnQcgPLaSE2BtoUp29gywCt8JF6B1YCrUkfZgFiLdDar2OwBWhNbWJjkHX9a6fuiP4A/rnOXTdCP7NVeUoBtiCZ1nUfwioAKk8GqIFNc+nmlScDBKecwgGoZl0fYPugyuk3r+SgeWUzqNa6gSVX1bxyCtvmFSHVsw+qbNq+Nn4DyxbNa0UbWEq/eSUHoMqOQbX0BvY5nNS++n71g2PRZXtno6lFHcmqitXJj46FoMoZQyo1ryYBQg2o2nTsg6regbX2gFXvwIZ3YKVjUPXNoOo0sLZ9lf4vp2yPXn9NT7SmW+/J5ikF2JwF3Br94OBy9Jrdi+nNKxmhtSU2sFlACxCrd2C5eRUNrABZB2jj5tXa3cCGDawB2hhmhQ3IVrCB5YxbVwm2Gc2rA7SU3gaWE6GVpwTSb354PLq+Rz+koMpfQ7PL0cdXH7KNKzevkM9MaWBDoHVtgdZrXtOAFttWTmMEWb0Di9Ba+QY2bGCzN7DWCK3tdgc2tXllE8gmQEt5KjuBWW1j85MCbI56fPpw9OmepQxwFU0sw6q0AFYXXGUTC1DK6UMrAqsDrtTAZjWxHrCyDbiaJGCV4EqwWhpc9Q6sSQ9Y2Qm4UgObywYWEoE1rYlFUOVEUOV0gDVxFrg+517rZ987YvLjj09GT+mbvlQ5aePwfPT31/cRuCK0kgW0uuAqG1hIBNa0JhZBlRNBlZNA1U0LqZWBKwBqDK6Jy4Or3oGt7MNbAKgGXC2w2gQozQJXBFYHXAWwpjWxHrCyEVSTyYCwANZ0cE0aWAuubgPLxib218CfvL0/ml7QWVa9UoDNST8dWY5e22XhVTqziY03sJwCZNOAVrSvCdA2YwNLNiCrd2BjoEWI5RRGaOV0HINskhZk2QiyTdzAVgC0L4W/30+1jVXVqZv3zET/56oD1le6jptYAbHSCK96B9ZvYiEFyAZAK6x3YMsBLaRsYDkFyJpEiHWA1hrbV5sIsCIBYv/18v3R432z9KtAVYsUYHPQaQNLCaiyqXEtu4ElYK25eSUnoEqNq0nbtjrNK9sHVb0Da74OQJUcNK8ddge23AaWm1dM4xVJfvOpKf2Ql6omfW7NiAHXyptXNjWvJgFCDajadOyDqt6BtfZBlTOGVABTkanNqwDWijawDKnSCKiQ6c1r4sZuYEOnNq8CWG3zSk1rxgYWoRVT+n/DP9P1m8fpV4OqWinA1qnTBqpsXskIrS2xgUWATQNagFi9A8vNq2hgBcg6QCta1wRoU5pXsgFaA7KeDchWsIEFiOVMgDbJAGgJZBOgpcS21SQCbAK2CK2lpwRJot/00Hi08qC+H1xVud5333DSvHoNbNy8ZgEtwKsLtGwLtgHQEsAGQIttq0kE2CQRWlt6A4vNq0kEWM4SQEtNKzvfDWwCsuzsDawFW4TWyqYEZAOwSSK0pgItwCtmVc1rGtDGzSsbQRZSgGwAtMLJBhYBljMbaM9fr7vYWqQAW4e+eqAacE0aWL0DS7AqLRrYmppYgFMLrt4GFkE1C1wdJw2s3oElWJUWDWzQxAqfu0s/Zasqr4/hh7UMtAKoGnBNGliTCKpp4MrpNLCQAlgDcOVEUOX0gNWmhdTS4Kp3YCvbwMoGltNCakXgiqAagCtAKTsNXCWwchOLoOo1sWnAyo5BVbSvxj6wsmNoTb8D65uBNfDJ26JTVw/Rrw5VpVKArVEf7F6KXofNK9gkgmtaEwvwyulYbF+DDaxwDLSifU2AthkbWAJbA7J6BzYGWoRYzhho23gDC9BaGmit4ybWAKzNzz85Fc3qO2lVGfr8mtHojwBa0QivnLKBDZpYAbHSCK96BzaliRUgGwCtsN6BpfRhFiDWAq39OgZbgNbUJjYGWdelNrDcwMomViG2OinA1qDXdiGskhlURVa1gSWXbl55MkBwyikcgGrW9QG2D6qcfvNKDppXNoNqrRtYclXNK6ewbV4RUj37oMqm7WvjN7Bs0bxWtIGl9JtXcgCq7BhUc97Aeg3sP4hEv3/9eDQyrxCrcvW1daMEq6J5hYybV7YPqpwxpFLzahIg1ICqTcc+qOodWGsPWPUObPF3YDkdn7zN5K9igjEVYiuXAmyVete+peh1e0TzakA2pXnllK2rMEJrS2xgs4AWIFbvwHLzKhpYAbIO0MbNq7W7gQ0bWAO0McwKG5CtYAPLGbeuEmyLuwMbNK9sA7CcFmJfD2DeN6sf7lJZnfLYePRHVx8wRmh1mle237waoA0bWL0DS2kANgTbAGixaeWMgZaaV05hhNbKN7BhA5u9gbVGaD1S78DGQCtBln2y9Q8e1k1sJVKArUIfxxuvAKwJuLrQWhpcRRPLsCotgNUFV9nEApRy+tCKwOqAKzWwWU2sB6xsA64mCVgluBKslgbXGQJXCayJs8G1oA0sOw1cHVMTi+Ca1sQKYHXB1YKqTYBSTg9Y2Qm4UgObywYWEoE1rYlFUOVEUOV0gDVxeXAtvYGNm9h7rF8Mf8+uKb0Xe6TrjA0WXrPBNWlgK2tiZQMLicCa1sQiqHIiqHISqLppIbUycAVAjcE1cXlw1TuwlX14CwDVgKsFVpsApVngisDqgKsA1rQm1gNWNoJqMhkQFsCaDq7V3YF1oBVtGli3if3JE2P0q0eVJQXYCvWVvmXTvMaOG1hKBFdO4UygjTewnAJk04BWtK8J0DZjA0s2IKt3YGOgRYjlFEZo5XQcg2ySFmTZCLJN3MBWDLSUCK6csokFiMXcoi89OGJ1ybYpal774ga25Tew1Tax2L7GQJuALUJrKtACxBa3gYUUIBsArbDegS0HtJCygeUUIGsSIdYBWutqN7DcwLJv2jpBv4pUaVKArUDfHsRTWdi8IqR69kGVXekGloC15uaVnIAqNa4mbdvqNK9sH1T1Dqz5OgBVctC86h3YJBFURRpTA/sP9xwy+fd3H4oeG1mkX1GqI0V3dM9kNK8ApgZYbVbevLKpeTUJEGpA1aZjH1T1Dqy1D6qcMaQCmIpMbV4FsFa0gWVIlUZAhUxvXhM3dgMbOrV5FcBqm1eEU3DWBlaCKhsbV0jZvBqflHhF1xT9alL5UoAto8tHsppXOSWoonklI7S2xAYWATYNaAFi9Q4sN6+igRUg6wCtaF0ToE1pXskGaA3IejYgW8EGFiCWMwHaJAOgJZBNgJYS21aTCLAJ2CK0Vr+BTQHaGGStdRN75GjD0HzYvJJDoCX7zWsW0AK8ukDLtmAbAC0BbAC02LaaRIBNEqG1pTew2LyaRIDlLAG01LSy893AJiDLzt7AWrBFaK1sSkA2AJskQmsq0AK8YlbVvKYBbdy8shFkIQXIBkArXO0d2NjUvFqgtfmrkPvH9MZ2mhRgS2jF5GEBrgmwOk2sgNbS4Jo0sHoHlmBVWjSwNTWxAKcWXL0NLIJqFrg6ThpYvQNLsCotGtigiRXOAlfZxI4v6HWCTtfAzFL0d9f3VwCuooklWDWJoJoGrpxOAwspgDUAV04EVU4PWG1aSC0NrnoHtrINrGxgOS2kVgSuCKoBuAKUstPAVQIrN7EIql4Tmwas7BhURftq7AMrO4bW+u/AJsBK7Ssn+L+esi2amtdv/n0pwGZo69zh6G10ceAohljpuImlRHDlFEZ45XQstq/BBlY4BlrRviZA24wNLIGtAVm9AxsDLUIsZwy0bbyBBWgtDbTWzgY23r5yWnj1gfbf14xFeia2s/XaOw5Gf3wNNq99lC7IIsQyyDpASw1s0MQKiJVGeNU7sClNrADZAGiF9Q4spQ+zALEWaO3XMdgCtKY2sTHIuq53A4vtq0mA2Fde3k2/ulQsBdgUjcM3Op8/wLC6aDJoXtkMqiKr2sCSSzevPBkgOOUUDkA16/oA2wdVTr95JQfNK5tBtdYNLLmq5pVT2DavCKmefVBl0/a18RtYtmheK9rAUvrNKzkAVXYMqo29AyuBFY3NK7awmOjPb5ikX22qTtNH7z8UAKsBVUpr0bxCxs0r2wdVzhhSqXk1CRBqQNWmYx9U9Q6stQesege2de7AyuaV/SuUn7q9n36VqVAKsCk646DdvWY2r5Bx82pANqV55ZStqzBCa0tsYLOAFiBW78By8yoaWAGyDtDGzau1u4ENG1gDtDHMChuQrWADyxm3rhJsW+MOrEkPZNl/f/dI9K2t0/QrTtUpwluvpnG95oBoXuvdwIYNrN6BpTQAG4JtALTYtHLGQEvNK6cwQmvlG9iwgc3ewFojtOodWA9m0X7zaoDWNrDsE+47SL/aVAqwnq4dXY6O2iuANQZXuYFlcHWhtTS4iiaWYVVaAKsLrrKJBSjl9KEVgdUBV2pgs5pYD1jZBlxNErBKcCVYLQ2uMwSuElgTZ4NrQRtYdhq4OqYmFsE1rYkVwOqCqwVVmwClnB6wshNwpQY2lw0sJAJrWhOLoMqJoMrpAGvi8uBa/wb2HwBeuYn9/g6F2E7RdbumCVxdWJXOBtekga2siZUNLCQCa1oTi6DKiaDKSaDqpoXUysAVADUG18TlwVXvwFb24S0AVAOuFlhtApRmgSsCqwOuAljTmlgPWNkIqslkQFgAazq45n8HtlQT+9PN4/Sr7siWAqzQA1OHDbwetddCLINsXRtYTh9o4w0spwDZNKAV7WsCtM3YwJINyOod2BhoEWI5hRFaOR3HIJukBVk2gmwTN7AVAy0lgitnmQ2sMUCsBdmR6Kp9s/QrUNWu2jKyEP3DjQOmdZV2N7CiiQVobekNbLVN7EX2awuyCdgitKYCLUBscRtYSAGyAdAK6x3YckALKRtYTgGyJhFiHaC1znMD+6snJU3sn39/d7T70Dz96jtypQBL6po/HL13vwDU2AVvYAlYa25eyQmoUuNq0ratTvPK9kFV78CarwNQJQfNq96BTRIBVaS7gZXNa7KBjX3XoegF8PfZPKY3YttZH1g5DKAKMMpmUCUHoKp3YK0RUCGzm1drvQNL6YMqGVtWp3k1aeHUAKrI1MlAC9+BRXPz+isnsrdG77i+l371HblSgAXNHY6ir/YnrWtlzaucElTRvJIRWltiA4sAmwa0ALF6B5abV9HACpB1gFa0rgnQpjSvZAO0BmQ9G5CtYAMLEMuZAG2SAdASyCZAS4ltq0kE2ARsEVqr38CmAG0Msq6xeU2mBCPRfzymb5xpV529ccJpXU3jaqYEKc1rJtCS/eY1C2gBXl2gZVuwDYCWADYAWmxbTSLAJonQ2tIbWGxeTSLAcpYAWmpa2fluYBOQZWdvYC3YIrRWNiUgG4BNEqE1FWgBXjGral7TgDZuXtkIspACZAOgFc77DmwAtACxmGc8OEy/Co9MKcCCLh3h6YCF1HRwlRtYhFaygNbS4Jo0sHoHlmBVWjSwNTWxAKcWXL0NLIJqFrg6ThpYvQNLsCotGtigiRWudgMb+65D0YW7Z+hXpKpdtKJ3lqCVgNWkC6vSIbiKJpZg1SSCahq4cjoNLKQA1gBcORFUOT1gtWkhtTS46h3YyjawsoHltJBaEbgiqAbgClDKTgNXCazcxCKoek1sGrCyY1AV7auxD6zsGFqLvQPLxibWmJrYXwWv3HPkvqnriAfYTbOHo6P3cfvqp4VXvQNrMwFaSAOyegc2BlqEWM4YaNt4AwvQWhporZ0NbIV3YI3jBpbTNrGbdErQNhqcWY5e9IvB6E+uddtXab0DmwG0ALHcwCZAyw0sp4XYGGhTnL6BLQO0wnoHltKHWYBYC7T26xhsAVpTm9gYZF3nu4ENjRD7oov2ReNzR+ZLDo54gD1hwMLq6wSwui54A0su3bzyZIDglFM4ANWs6wNsH1Q5/eaVHDSvbAbVWjew5KqaV05h27wipHr2QZVN29fGb2DZonmtaANL6Tev5ABU2TGottYd2Nh32fy/mOD3rdNP17aLPvngCMCp17yyPWA1oEppLZpXyLh5ZfugyhlDKjWvJgFCDajadOyDqt6BtfaAVe/AtscdWG5ecQMr89NH6H3YIxpgb5s4HB2F7WvQwFp41TuwNoPmFTIAWgLZBGgpTevKQJskQmv1G1hOC7Ex0Ka4tTawYQNrgDaGWWEDshVsYDnj1lWCbXvcgZXNqwTaH+mUoOX1461Ttnlli9Y1AVpuXsMG1gBtDLPCfvNqgDZsYPUOLKUB2BBsA6DFppUzBlpqXjmFEVor38CGDWz2BtYaoVXvwHowi/abVwO0YQMbAu226PInxuhX55GjIxZgBxaj6AM9CbA64ErpGECVgTUBVxdaS4OraGIZVqUFsLrgKptYgFJOAatHw//88T0L0Sm9i9FPDi5Fq8eXowcmlqNrh5ai0w8sRp/duxC9Gf4ap4n1gJVtwNUkAasEV4LV0uA6Q+AqgTVxNriW3sBumFgCL3u5FD0hsi6P1+bHRZb0WLVeTMnE9w0tRJd2z0Xf3DYTve/xyeilALmpTSyCaiq4SmBNXB5ci9vAormJ/dD68dJeZ32MSMcPj4GT/KDJMZPGD5X2B9b6HhUJXmP9fpHGD4oUfh/nA/br9z0wYr82KXy/9XuzvNr1e+I8ZL5+zyrIFL+bc2UZ32f9rvuGwZzge0WCQ3CtdQNLNsCKsFppEysbWEgE1rQmFkGVE0GV8qH+Odd9rm/fMx2ds2E8+tSq4ejVNw9Efwp/DxdcAVBjcE1cHlybcwd2Te9sbe4p7Qd7ZuKsyvvz8QMiHXeX9s3bJ6PvroV/z9zaH734J93R/wIYtuDaHndgJbgan7A1+t+n74w2D8wR4RwZOmIB9rxh2r6CC93AcvpAG29gOQXIpgGtaF8ZaN8Ef91lAKzDi5W9WP7nh5ai9+5CkLUwW9sGlmxAtnF3YH/Qs0D/FKo0HZxfji7YCz8ua6mRNSDbHndgnSaWANYH2v97Z7r/7peQ4L/75bDrO6z/VqTx7a6fdfuQzduGUv03t0KCMR3fchA8FP015y8Omq9NCv/VzUk6/vkg+GD0lyYHTRrf5PovOH/GHhA5EP35jZBgTMc3WP9ZnP3m6z+7HvJ6zv7oTzl/mu4/uQ4S/CfX9Zmv4wR45QY23sA6QGvdqndgq1X/9FL03UfHor+C50ltYi+yX1uQTcAWoTUVaAFii9vAQgqQxTzugUP0T6JKU9/kYnTS/cPRM87endHEIsiKFCBrEiHWAVrrfDewKU0swCt+kItB9g3XVP9zu511RALs+pnk6kAMqpwBrBa8gSVgraZ5fS3kBYNLUe98ZeAqNQqwe+ngYnTUVg9U2+AO7PRS9f+8R5q6Z5ajs3bPRi+gNjYB1da9A4sZgyr7zmGCVJt/Z1IAqucAVO8AMDXASoBqEmCU7YMqZwypAKZxAoQaULUZg6oA1r+KE4AU82ZI4QBU2QiokH9x0wABKwCpAVYLqDGocqbBKhgBNQFVYR9U2TGk9llQNYlwmu4YVNnYtHIioHLzymZQJQeg2uQNbK3qGluMTnh4JHrmpQisFk4NoIrM3MDGoCqMgAqZ3bxa53EHdgK+yVWV1q5D89GXVxyMfvO7bgub2rwKYLXN63YLqFkbWARU39i4QlbfvLob2P98AiQY85RVQ/RP0/k64gAWEejLePM1bl7t1wHQArS24h3Y7/UtRbvxcG2d2gN/j+/0LlqATZkUIMS22h3YK/q1ha1UOyaXouO3zlTWvJpEgE3AFqG1+g1sCtDGIOu61AbWaV7ZonU1QAvQyoktrIRZdAC0onVNgJaa1zSgBXgt37wSxAqQDYA2bl0RZJNEaM0EWgOySSZAmyRCa2mghTRASyaADYAWIZZTOL15tRDrNK9s0bomQJvSvGYCLdlvXrOAFuDVBVq2BdsAaAlg2fXqqeGF6JMrh23rGjSvrXkH9qxHR+npVeW0cWAuOuaWftu2lmpe2QSyCdBSGoDlTIzQmg601hZobZa6A5sALfmEbdHTv7Mz2jl8ZLyl64gD2BvG5Nms0NngKjewCK1kAa2lwTVpYGvdwN40kv930FccJIgNwJWAlVtYAaylwXWGwNWCqu9scC29gUW/Hv7equp0btdsehNLoOo7G1yLvwPrgCuCqgOuZZpYAawuuMomFqCU0wNWdgKusoFlcAUoFVkaXCWwJi4PrtTEIqhiG2uANXFmEysaWKeJRVBNa2I9YI2b2OsgJbCyBbCmg6vXxHrAyg7BVTSxBKsmEVTTwJXTaWAhBbAG4MoJ5iY2L526fpSgNWlg08G1+Xdg/+LibnpqVaX6xsohC68+sLJjaG3OHdi4iRUNLPozR8hVgiMKYPcuRNHb99vmlV34BhbgldOx2L4GG1hhBtqN08X98fm6yeXoTdvSd7AJ0LIJbA3INv4O7C1Deie0Wt3cN19ZEys3sACtpYHW2tnA5nAHlkE2FWhTjPBa2waWGlhOH2YRZB2g9WxA1tvAphghltMxQGtLb2CxgTVAa7+2IFuiiY1B1nWr3oHNU9dsnwJoxfbVb2ItvKYCLUAsN7AJ0HIDy2khNgbaFKdvYLOB9vKn9I131eonG8bcBjZrA5vifDewKUAL8Co3sLFP2BY9tL/zC58jCmDPGEJgBSBFE6DGoMoZwGrBG1hyVvP6wT0L0VSDpkuf2zOfACo3r+SgeWUzqNa6gSWXal7RfDbrvVu0ha1Fw/OHo39bO24a2Fw2sF4Dm72BtUZAreQOrGldHWAt07ySA1AtegPLZlCNE4DUAKttXJ3mldIxAipk8zaw1lVvYNl+88r2gNWAKqW1aF4h4+aV7YMqZwyp1LyatHDqNK9sAta8NrBZOjizFP1f+GcquYGlTCYDFk4xY1Bl+6B6QUbzSvZBNbbYwOLXL7w6/3/2I0GDU0vRH/2gK7OBja8PmAYWLFpXtAFVSsfYvELayQDAKNsHVc4YUrM3sOx33dBLT9+5OmIAdt3M4ejo7pTmlW0AltPCa7PvwH6mu/Ft4xWDdlJQsnmFDICWQDYBWkrTujLQJonQWu0Glu/Arh5doqdVVatPPjkVNq8x0CaJ0Fr9BpbTQqxJD2TZdW9gGWwNwIYNbAC02Lpy+s0rpzDCa3rzam2B1qYE2QBo49YVATZJhNa6NrBlgRbSAC0ZAZaTINYkAiynBNpKm1e2aF0ToOXmNWxgDdDGMCvsN68GaMMGtt47sEXpzbcNmga28A0spwHYEGwDoI2nBHuj23ZP09OqqtWr4RsAp3n1QDYBWkrTuqItwDpAK0GW7TevBmjDBjbznBbZAu226NZtnd24HzEAe+IgA+uSmAyERjjldAygysCagKsLraXBVTSxDKvSAlwxP4p7hyYJITYGVgmuBKulwXWGwFUCa+JscC2/gUVjE/vpHbP0pKpa9KXN0x6wJi4Prg3awLJjaC3TxCKwpoKrbGIRVik9YGUn4CobWITWpIGtfgPLaSG1MnAFQI3BNXH2BtZm0MQiqKY1sR6wNm8DSzbAirBaaRMrG1hIBNa0JtYD17w3sGlCiE2DVjSCakUbWHYMrdTAZjWxCKwlwTVpYl9/Ux89qaoWIcSG4Nr8O7DYxvpN7Kt+0tm75yMCYB+apvZVNLDswjewnD7QxhtYzgRkP7av+TvP7CaWbEC2cXdgLcAm+ei4trD16ISt06U3sBUDLSWCK6fegY2N8MrpGKBV78BaeG33DWyabBNrobXxG1hIAbIB0IJXHQH7yCIVNLEIsQ7QWue7gU1pYgFeszawaITYyx7v3OsTRwTAfnMQQZWa11bbwGLjCimb1+kWOdf3o35uYgFCGVR9x6A6E2dRd2BN0qtij+86st44UoRO3c5NLECoANY0pzavooHN3sDK5hUh1TMCKmTYvNrGlVPvwFKmwSo4aF7ZPqiyY0il5rXaDSw2rZwIqNy8shlUyQGodtgG1tfs4mGA2IEYWBFQM5tXyOzm1TqPO7D4NSb6g78cpCdV1SL88X31VfsTUDXN63YLqFkbWARU39i4QlbfvNrta6kNrPE3t0bPPr8rmlnozBvqHQ+wD3L7ik1r2gYW21aTHtACtDb6Diw2r/treDlBkTq9d4FaVwTZlObVA9kEaCn95lUCrQRZNjeuIpMNrAu0Wxr16bYO1vFbAGKDDayF1uo3sClAG4Os67o3sACtnHoHNnTSvJIJYAOgRYjlFG6tDawLswyyLtCyLdgGQEsAy26E8O1dr/l5v9u8xkALaYCWjSALKUC2JNBi82oSAZazBNBS88pGiH3sCHvtaN7qm1iMXnJZd5kNLAIsZ2KE1nSgtbZAa7PaO7CYFmht/mfI7z0wTE/dWep4gD1ugME1aWAtuLrAys4GV7mBRWglC2gtDa5JA5u2gX377oWoK4cXFBShL++dJ3AFKBWZDq4zBK4WVH1ng2vlG1iTj01HZ3YfGceaixZ+sKs8uOodWAbWysBVAmvi8uCqd2BNIqimgSun08BCCmANwJUT3IgNrNSW4fnob6/sAWht/h1YBlfTxJ67Jzp2ZWdCTSO1aXAueub3dwOsttYd2NjftPmHp++M9o913ouAOhpgV1P7+noEWDY1r+zCN7AAr5yOxfYV8+7x1m0Td84cjt6wlfevGU0sAmwa0D7JiQArEqA1cwMrnLWBZaDdN6stbL3aNrEUveLBcdHAQgK0VtXEGnD108JrKtDGDSwngiwkAWwq0KYY4VXvwHowiwaI5QY2AVpuYjkBXLOAFhtYA7T2awuyJZrYGGRdHwl3YMvpuu1TTvtqDBDLDWwCtNzAclqIjYE2xekb2DJAK7zjkL7dsF5duXE8bl5957uBTQFagNdyG1jOr9zVebORjgbYr2L7GoNqi25gwecPtv4Hkm4/tOQ2r2wG1Vo3sORqmlf8mrewF/RoC5uHfn5gPgbWNAfNq9fAZm9grRFQ9Q6sTccIqJDN28Ba6x3YYvX1NYfiBjaZDFg4xYxBle2Dqmhg0xyAKttvXtnnWp8Iz6WqX18AODSgahpYsGhd0QZUKR1j8wppJwMAo2wfVDljSKXmtYINLPo/gf8r/N8/caCzLvh0LMDeN3U4bF5FAxs3r2wDsJwWXhtxB/YL+xejdikRv39g0Tavm5t7B1YC7Wvg/+Zghw7UG63TdszEDSxCa/UbWE4LsSY9kGXXvYFlsDUAGzawAdBi68rpN6+cwgiv6c2rtQVamxJkA6CNW1cE2CQRWuvawJYFWkgDtGQEWE6CWJMIsJwSaCttXtmidU2AlpvXsIE1QBvDrLDfvBqgDRvYVr0Dm6XpxcPR0b+QH+pKGtgEaCEFyJYGWkoDsCHYBkCLjStnDLR7oz+C/96+SX27Yb2aXliOXnG5/FBX0sDWtoHlBHBNaWAzz2mRLdAmG1ieEny2w14x27EA+yXevsYAW8UGltIxgCoDawKuLrSWBlfRxFLzejT8Z5tn2ge+ppai6BO77R42G1xnCFwlsCbOBtfqN7DsK/r0j8Hy0CT8Jvv+RyfKgKvega1+A8tpIbUycAVAjcE1sd6BpUzbwKY1sR64NnoDK7Wuby565sVyMiAsgDUdXKmBzWpiEVhLgmu4gWWf+UjnnllqpNbsn4l+8ztyMhAaITUdXJMNbHVNLBmB9UQLqU4TS+DKTexvwjPsGu6cP7XsSIC9h9pXbmCbuoHl9IF252J082j77Tc3TC1Hr6pmA8vpN7EArZkbWE4DspQGXP20APvOzbPR9JK2sHno0dHF6PnxVQILrxVvYDn1DmxshFdOxwCtegfWwmunb2ClLto00YANLKQA2QBohZ8G/screqKJef0sQR46b/1I3MJyA5sArUiA1uo3sClNLMBrpRtYBtlv3nuQnrb91ZEA+4V+gFIPWFttA3t6f/se4r9haDFoYGvewBKw1tK8Wk+ZvHFQW9i8dFX3XACsqc2raGCzN7CyeUVI9YyAChk2r7Zx5dQ7sJRpsAoOmle2D6rsGFKpea12A4tNKycCKjevbAZVcgCqR9gGVurTK4fd5hUyu3m1zvsOrGxg0T9+cpyeTlWvPnxLP4Fq4gBU2di4QlbfvGLjmqQFVYJUaWpecQPL+czTd0YH8Y9TO0AdB7ArsH3db+G1og0stq0mPaAFaC3qDuw7AYp723y3+cU95aYElH7zKoFWgiybG1eRyQY2G2g/tEVfL5unPv7EZA0b2BSgjUHWdd0bWIBWTr0DGzppXskEsAHQIsRyCrfWBtaFWQZZF2jZFmwDoCWAZTdTXWOL0bOu6KlvA4vNq0kEWM4SQCta1wRoIRFgIV9+XS89nape7To0Hz3zbDyt5TeviRFa04HW2gKtzTzuwDLIss98sDNOqHUcwB4/mAWuVWxgfWhFC2Ct9w7sTW04HfD18MRyBrjOELhaUPWdDa61b2CNH52KVo3o62Xz0oPDCx646h1YBtbKwFUCa+Ly4Kp3YE0iqKaBK6fTwEIKYA3AlRPczA2s1IUbxwlayQJYTSKoOuCabF8TcBUWwBqAq8nsDSz7ll1T9HSqevWDdSMBtDK4ptoBVgJVTmFzAxYdQys1sQZYEVY9I7BygrGBRf/dubuj+Q6Y3XUUwAI3mfb19ftbaAML8MqJ/mpv50DW6T0LBmJLbmCf5ESAFQnQmrmBFa5kA/sygtiT9uibZfLUydumDbzqHVibjg3IehvYFCPEcjoGaNU7sClASw1s0MQKiJVGeG2nDazUW28bNK1r/hvYMkArjO2rSQDYj9zVOdvIVtBrr+4BaM1zA5sCtACv1W5g2Rc/2v4f3usogD33EL02NgVYW2UD+/h053zYaO8s/P/7KQLUWjew5KqaV07hlzw6Fb0ccr++2CA37Z5ail662p7UCppXr4HN3sBaI6DqHVibjhFQIZu3gbXWO7CN1+qeWQuqAK8xqLJ9UM26PkAOQJXtN69sr339n+Cnw3++e1Q/S5CX7u2aImAFCAU4TW1gsXmFtJMBgFG2D6qcMaRS81rDBtb4+C3RSy7aS0/avuoYgO1fhO9oe+z+1W9gY5B1gDbJZAPLaeE17zuwPxrqPLi6YpA+0AXQKl16A5vfHVgfZK/q138B56mL9syWbl7ZBmA5LcSa9ECWXfcGlsHWAGzYwAZAi60rp9+8cgojvKY3r9YWaG1KkA2ANm5dEWCTRGitawNbFmghDdCSEWA5CWJNIsBySqCttHlli9Y1AVpuXsMG1gBtDLPCfvNqgDZsYNvtDmyWvrF2xDavTgNrIbY00FIagA3BNgBabFo5Y6C1zSu2sAyy3++AVq6VdOzdg7ZxJZB1gFaCLNtvXg3Qhg1s5jktsgVabl4hEWBTgPaGze394b2OAdifjmd8eItdzQaW0jGAKgNrAq4utGaBK/qYfYvRoQ68F42F54d3zglwnSFwlcCaOBtc69/AYn54yww9mSoPzSwdjt6xfkKAq96BrX4Dy2khtTJwBUCNwTWx3oGlTNvApjWxHri2ygaWNTC9FP3TtQcqAFdqYLOaWATWkuBafgOLfoV+mCtX9U8uRn9z3p4KwDXZwFbXxJIRWE+0kOo0sRng+p+Otz7qym560vZURwAsrko/2Y8Am97ABk2scOEbWMo7xzv3j7bvHlmyAFtNEwvQmrmB5TQgS2nA1U8Lr7yBZT80ph/mylO398+7LWxaE4vgyql3YGMjvHI6BmjVO7AWXo/UDSzr6q2TXgNb7wYWUoBsALTCcgP7tHNt3r13mp5MlYcue2KMALbeDWxKEwvwWusGloH27jb+8F5HAOzKKbt9TW9erZu5gT2xr/OB6ut75wlYAUgNsCKoJjagSumYgLXm5pXuwOIGFltYzG/v1Q9z5a3PPTkZNq+igc3ewMrmFSHVMwIqZNi82saVU+/AUqbBKjhoXtk+qLJjSKXmtdoNLDatnAio3LyyGVTJAajqBtbRe385GAOr27xaF30HFjewJn+wJ/rUCv0wV9560097sptXyOqbV2xck7SgSpAqLUCV0/j4LdTCbonefX37tu4dAbAnHRTNq0kLr0Hz6gAtJbatJj2gBWjN6w7sQwDYna4149TCcuPK6TevEmglyLK5cRWZbGArAdrp6N8AgAfm9c1ceWrVQTqrxY2ryKR5TQHaGGRd172BBWjl1DuwoZPmlUwAGwAtQiyncGttYF2YZZB1gZZtwTYAWgJYdqvpzr3T1W1gsXk1iQDLWQJoqWllZ21g0c+E/76eiQ7cuzVRt+6YpPbVGqE1HWitLdDaLOIOrDMlgFy3vz2nd20PsJvn6HQWAmtJcK1iA+tDK1oAazV3YL9x4Mj54+wv75n3NrChs8E1nw2sbWKno58O6Ie58tanNkya1jVoYoVz28AiqDrgWqaJFcDqgqtsYgFKOT1gZSfgKhtYBleAUpGlwVUCa+Ly4Kp3YE0iqKaBK6fTwEIKYA3AlRPcahtYqXfcPpiAK4KqA67J9jUBV2EBrAG4mqxsA4sN7NPAFzwxRk+lyktHX9MTAivbAVYCVU5hcwMWHUMrNbEGWBFWPSOociKwskUDi/nZ2/rpKdtLbQ+w548cjv5dbl85BcgGQCtc9Ab2gckjpwlcPea2sNzAJkArEqA1cwMrXMsGFv2Jbfpmrry1YlC83EA0sCYNuPpp4TUVaOMGlhNBFpIANhVoU4zwqndgPZhFA8RyA5sALTexnACuWUCLDawBWvu1BdkSTWwMsq71DmzlurVrmhrYejewZYBW2N3AJn7NDX30VKq8dNPWiTo3sClAC/Ba7wYW80/O3BXNLbYfq7Q1wA4uRtHbexBYAUJ9UGXHoNr4DWwnvbSgUn1hN7awYQNrQJUyzVU1r5zCcgPLfnRcP8yVtz72uG1h/QY2ewNrjYCqd2BtOkZAhWzeBtZa78C2ht58y0D6ZCDr+gA5AFW237yyPWCVG1jrrmh1m/6xcivr1VfuT2DVAGvzN7CY/x/kjU+130mttgbYGyewcWVT85rSwMYg6wBtkskGltPCa713YFcdQe0r695R28I26w4s+yWPTkdn7punp1LlpTvxIoFsXtkGYEXzyumBLLvuDSyDrQHYsIENgBZbV06/eeUURnhNb16tLdDalCAbAG3cuiLAJonQWtcGtizQQhqgJSPAchLEmkSA5ZRAW2nzyhatawK03LyGDawB2hhmhf3m1QBt2MB2yh1YXzftnHKbV3YAtJQGYEOwDYAWm1bOGGipeeUURog9dmVnvC+/lfTTzeMVbmA5AVxTGtjMc1pkC7TcvEIiwKYBLW1gMT/4swP0lO2jtgbYT5vTWbaBNcBasomtYgNL6RhAlYE1AVcXWhlcMY89AttX1mewhXWANXE2uOa7gcU8esN0NNKGfyzS6vrQYxNBA1seXKvcwLJjaC3TxCKwpoKrbGIRVik9YGUn4CobWITWpIGtfgPLaSG1MnAFQI3BNbHegaVM28CmNbEeuLbyBpb1+pv7U8CVGtisJhaBtSS4VreBxfzzi/ZFQzP6p1h56xU/6U4B12QDW10TS0ZgPdFCqtPEIqhyIqhymvYVnTSxT/vW9mhwqr0+vNe2APv4bBT9u3nzFm9g2QiykACtDLJBEytc1AZ2xcSRC0538V3YUk0sQGvmBpbTgCylAVc/LbymbWARYtE3H9RP0+atW/tsCxtsYNOaWIDWVKCNG1hOBFlIAtgAaGOQda13YCElyLIRaA3IciLIcgPLCeCaCbTW6U0spABZkwixDtBa6x3Y6vXT7baFrX0DCylANgBa4bQ7sNKXbmrvNzW1oq58crzGDWxKEwvwmscGloH20sfa601sbQuwF48yrFoHoMqOQbVxG9jP9eh3rf+xc45g1dqAKqVjAtaam9eUO7DSn92uH+YqQu97hFpYBlWR7gZWNq8IqZ4RUCHD5tU2rpx6B5YyDVbBQfPK9kGVHUMqNa/VbmCxaeVEQOXmlc2gSg5AVTewJfXqm/pcUDXNK8JpugNQZfvNK9sD1bQNLOYb4DlU+esll+xLmlfI6ptXbFyTtKAKMOrbB1W2s4HdYjawmG+8ej89YXuobQH2E/2H4wbWaV6zgBZB1gFaSmxbTXpAC9Ba6x3YO8f1j61vO0RbWL95lUArQZbNjavIZANbCdBa4waWpwSbJjv3LWjN0k29cykb2BSgjUHWdd0bWIBWzko2sMc8PAYej/ODkMYPlfYH1kKCMR2vGU1yzVj0fpOjJo0fFJni9z3ge8TN+yHB7xXpeLXr94g0XnUI7Gfid68s4/us3xXnsPk6znshhd8p0nhFhu+x+Y57hsB+gu8WCX67SOO70v22uw7avPNgaf/SutV1Fb6dixrY1A0sNq8mEWA5SwAtNa3sSjawPCVYd0BLgLx1Kb6dCwHWd9y8JpOCRtyB5Qb2V+DrXcPt89mRtgRY4KAYVGMjsJYE1yo2sD60ogWwlroDe8y+xUhv6EfRHDDju7e5LWxpcM1/A2v8yFR07n79MFfemluGbxbXjlcBrlVuYBFUHXAt08QKYHUnA7aJndAttKqNNAs/X59/Ta+A1mT7moCrsADWAFxNVr+Bte6KjrtfP8yVt2bgx/evf9glwFUCK4Eqp7C5AYuOoZWaWAOsCKueEVQ5EVTZTgPLuSX6/76xJTp7Tfv8eLclwF42Zvev7gYWAVakANkAaIXz3sBefkjbPtYl/YsArc25A8sbWGxi37xxJppeUoDJW+ftnnU3sC18B3b1oH4To2ovnbZ+tMYNbBmgFc66A4sQy0D7d5fujybm9fe1vHXCyiEDr5VvYFOAFuA1zw0s+l8u3UdP2PpqS4B1rg+QA1Blx6DamA3sXq1fY3XNLhOwAoQiqFKmuarmlVPYNq/u/pUbWPQdQ/phrry1a3IpAVWR7gbWGgG1mXdgz942RU+tUrWHth6aT0A16/oAOQBVtt+8sj1gzdrAcl6zZYKeSpWXNg/OAZy2wgbW3oHlBhb9WG97zEbaDmA3zSXta/YGFhLgNWheHaBNMtnAclp4rfYO7HcG9LtUXyfvw5NaYQOL0Fr9BpbTQmwMtCmWG1j8+ss7dcdVhL66eSr9+gCnB7LsujewDLYGYMMG1gfa967VV2Oq2k8fvWcofQPLaQA2BNsAaLFp5YyBlppXTmGEVjkleMct7fmq0VbXe352IGlf0X7zaoA2bGAzz2mRLdBy8wqJAJsGtAixnMIn3df6O3FU2wHs5WMMrrZ5jY3AComQmt7EVrGBpXQMoMrAmoBr0sCi105p++rrgbElgtakgW3oBpaM//u+Of3xyVv3DS7E0FoaXKvcwLJjaC3TxCKwpoArb2AxVap20x17pglaqYHNamIRWEuCa60b2OQ/2zeuf4qVt36xbYLANdnAVtfEkhFYT7SQ6jSxCKqcCKqcMayGG9j/BP7H87voCVtbbQewnxtI2lduYFvhDuxn9HRWpj62k1vYCjewnAZkKQ24+mnhtdwGloH2F3oTthC9e/2EBdi0JhagNRVo4waWE0EWkgA2ANoYZF1Xcwd2RnfQqjbUK290T2pJp29gIQXIBkArXO4OrATan2zSGUEResHFdFJLNLDsRt+BlWC7sqv1Z1dtBbBb5vj6AINq4gBU2TGoFruBvXFU5wNZum5w0YIqNbCOCVhrbl7L3IHlDeyLwV/fpTOCInT5vtkSG1jZvCKkekZAhQybV9u4cuZxB/aR4QV6YpWqfXTehvGm3YHl/O1zuqL33TZAT6TKU2etPVRD84qNa5IWVAFGffugyvabV07awKK/cEfrz0baCmCvGhfXB0QD6zSvWUCLIOsALSW2rSY9oAVorfQO7Fvgr9dyL1uDC4ejozbLBtZCa/Ub2EqA1trfwCLEvhL++mF4FlW+6p9djl6yKmldGWRTm1dy3RtYgFbOSjawCLEX7pqhJ1ap2ke9k4vRn16yP2xeTSLAcpYAWmpa2dVuYNF/AH/fgSn9k8a8tX9sIfqd7+30NrDJpKCRd2AZbBFg//r7u+kJW1dtBbBfGERwXSZwtaAaG4G1JLhWsYH1oRUtgNW/A3vuQW1fy+nM/QtlwLWgDSw2sJzgX+o1gkJ06tbpMuBa5QYWQdUB1zJNrABWF1yTJvZj6/W1mKr21LGrh2NgTcBVWABrAK4ma93AUhN7DiT4Wr1GUIg+eVu/AFYC1Ywm1jiGVmpiDbAirHpGUOVEUGUTqLrpNrDoB/ZO0xO2ptoGYLfPu9cH2Ni6NvsO7JMz2uqV0xOTeFKrwg2scJ4bWPz6pK45eiJVnnpkZBHAtRkbWADaCjewz4W/XqVqRz3YOxu3r9LpG9gyQCtcyR1YCbQfuXOQnkiVp1YBKJbfwKYALcBrIRtYgFfMVr9G0DYAe+04AysAKadwAKrsGFSL2cB+sVf/SKVSfWrnXAKqnqtqXjmFbfNKbas0Na+4gcV8Lfy99a1MxegDj0ykbGCtEVCbeQcWN7D49Zx+kEvVpnrdz/sTQPUcgCrbb17ZHrBWsoHFBvZPLtwXjeJrFlW5658v2+c2sBJUOWNIpeY1lw1seAeW/dKL9tLTtabaBmC/POg2r2zbujLQigR4DZpXB2iTTDawnBZeK7kDe71+eKtiXTOIb+ayDSxCa/UbWE4LsTHQpjhtA8tAe+8hnREUocv2zibNK6cHsuy6N7AMtgZgwwY2AFqAWMwnRvSDXKr21A+eGEua17iBRYAVzWsW0GLTyhkDLTWvnMIIrf4G1vicPdHPd+hLQYrQ6WsOhc2rAdqwgc08p0W2QMvNKyQCbBrQIsRyCiO8/qdv2Nx2sHX/1LItALYPeCMG1mo3sOxqNrCUjrvkBtYmep++eati7Z09XAJcC9rAsqmBxSb2tD06IyhCuyeX8tvAsmNoLdPEIrCmgqtsYoeiK/foB7lU7althxaadgeWN7DYxH76nvY4ct9u2gKgiMDaCndguYFFn/9w606v2gJgV0yn71/R2LY26w7sN/u1fa1WX+mim7AArZkbWE4DspQGXP208FrNBhYh9o1PzkT6p2DF6FNPTALAtuYdWPTnH9MPoajaV++8fTBuYS3Ipm1gIQXIBkArXM0dWPazLumOZnWGVYhef01P3MI6TawB15QmFuC1qDuwmAiwb4FnalW1BcCeMwJA6jSvnIkDUGXHoJr/Bva2caWganXzkL0J6wNrzc1rFXdgOdEPjOiMoAhd3zPnbWBl84qQ6hkBFTJsXm3jmvcG9qXwPCpVu+qyzRMEqa4DUGX7zSvbB1XOGFTTN7CY6Dt264ygCF346EiFzSs2rklaUAUY9e2DKttvXjm99hX9W6dsi4anW/OzPm0BsB/uT2leOf3mNQtoEWQdoKXEttWkB7QAraWuD7wRvtbbr9ULb8K+elOtG9hKgNa61AYWfea+eXoiVZ4amF2OXrhytPgNLEArZ8UbWPLCsrZHqvbUgcnF6P9c1A3QWsMGVrieDSz62JX6auYi1DO+GP3WaTtoSlBiAwvQ6gItGZtXSAu03LxCEsAGQIsQy+k1r7yBRV+/qTVPELY8wG7zzme1yh3Y7wzo9YFadTLAYwiuBW1gPXDlJvbtG6cjxZhi9NVNUynQWuUGFkHVAdcyTawAVhdc3Q0sNrFPavuuamN99O6DAbCWnAyYrHUDS02saGAxn/2T/frvz4L0np8dsKCa0cQax9BKTawBVoRVzwiqnAiqbAJVN8P2lf3xm/vo6VpLLQ+wP5uIojf0JgDrG1vXZtyBXTmpv3xr1YqRpdIbWOEiNrDsdWP6TUgRuqN/voEbWADaKjaw2MBeu1dfKaxqX924Y6rMBrYM0ApXewc29jl7ovv26Qcii9C1m8YzNrApQAvwWuQdWIRXbGL//Kxd9HStpZYH2G8OEajK5pVTOABVdgyq+W1g3wP/99M6f61ZU0uHozdttjMCdlXNK6ewbV4RUj0TrPob2Bevn4zO7dYZQRGaXDwcvfL+UQdYEVBb4Q4s5nFPTtKTqlTtp4n55ehZP9mfwCo4AFW237yyPWCtdgOL/sb9w/REqjw1Prcc/eGZu1xQFcBqTc1rLhtYANUyDez/e9yWaGVX6+2eWxpgJwAS/x3b1zINrNO8cgK8Bs2rA7RJJhtYTguvWRvYc4eUXuvVGfhqWQGwsf3mlW0AltNCbAy0KS63gUWIfe9mbRCK0in8alkBsdJ1b2AZbA3Ahg1sALS4f6V8zcoRekqVqj31xVXJq2Ur3sByxkBLzSunMEJrqQ0sAuwLr2rdT6e3uz7hvFo2ZQPLGQOtawu03LxCIsCmAS1CLKcwQqvcwKKPX9F6b2FraYBdB3wRAGsL3IFdN63zgXq1dmzJA9eCNrBsAa4m11tvmNAZQRG6/+CCB61VbmDZMbSWaWIRWFPBNdzAYuoVIFU766690y60IrCWBNdaN7BkAFa5geUWdk2PznGK0O07JjM3sKngisB6ooVUp4lFUOVEUOWMYVU2sRZU/TuwxsdtiV504R56utZRSwPshaO2ga1sA8tGkIUEaGWQDZpY4Wo3sMfsV+DJS+/aal8tG2xgOQ3IUhpw9dPCa60bWPSPe3RGUJSOXjNuoLXYDSxklRtY9MZR/SCXqr31nCt7AVobfwfWAq31qWv1LF1R+nP4BqEV7sDKJnbzQGu9BKilAfZj4nxWq9yBPeugzgfy0un752Ngrbl5rfEOLG5gsYH90FM6IyhKJ2/BawSyeUVI9YyAChk2r7ZxLWIDi75unzZHqvbWJ1cMEbAChPqgyvabV7YPqpwxpJbZwH7f5suv7aWnUeWtD/68LwFVAazW2LgmaUEVYNS3D6psv3nl5MbVM25gsYX9QYt9w9KyANuzSNcHMjawzboDu2JC/+wxL9074s0I0ppXtoDZ0kBrXckG1iRA7JZJ/aakCN3ZP++2rsJ1b2ABWjmrvQOL/uZG/SCXqr115ZbJpHElkM0EWmpa2XlsYDkf69dXcxehSx4fzd7AArS6QEvG5hXSAi03r5AEsAHQIsRylmhe2W+9trV2zy0LsLdOAqCmgmtz78AO6J885qaRxcPRqzcyuBa0gS0Bruzr+hfoiVR56tD84eiF9zG0VrmBRVB1wLVMEyuA1QVX2cQmG9g33T9KT6lStaf2jC0k0CqANQBXk7VuYKmJNcBqW1e/iT3v8TF6IlWe2nVoPgRXdgyt1MQaYEVY9YygyomgyiZQddOFVcfUwD7jOzuiVnoPTMsC7MnDSQPbKndgv9ynTV3eOm7PfNPuwDLQfmOXNghF6XMbJlvuDqz1UEv9i1ilqkX/dmNf0+7AcgP7gdsH6GlUeetFF+9riTuwEmRX7Wmdc1otC7ABqLbAHdirRxRg89aNBxcNuFbVvHIK2+YVIdWzAFVOY9rAYv47/PepitE13bNJ89oid2CNbxuKNusHuVRtrhPWHDLAGoAq229e2R6w1nIH1vj7XdFfXbSPnkaVt75y96AFVQGs1tS85rKBBUAt08DyBvb/Pe6p6NurWuc1wi0JsFvnbftaagPLtq0rA61IgNegeXWANslkA8tp4dWfEmya1comb+2ZXU7aV9HApm9gOS3ExkCb4mo2sPi1ntMqRrsml9zmlVz3BpbB1gBs2MAGQIutKycB7fX6QS5Vm+ve7hm3eSUHQItNK2cMtNS8cgojtFa6gf1tyLW9+mupCN21a6pl7sAaA8S+7vJuerrmqyUBFl8fmwWuzboD+1b4z1TF6BM75gBWC9rAstPAVfiqA7qDLUrvWz8B0FrlBpYdQ2uZJhaBNRVcZRObbGCxgT1RP8il6gD98UXddjJQElxr3cCSDbDa1tXfwKK//4huyovS076zozy4IrCeaCHVaWIRVDkRVDljWJVNrIXUrDuwtoHdEv3mydui+aXWKPNaEmBPpf3rG3pb5w7saYM6HyhKF/fZGUHcwKY1sQZc/bTwWu8GFvMrO7RBKEo/3DXjtK/GcQPLiSALSQAbAG0Msq5rvQOLftuD+puuqv317tsHqXkVW1gBsgHQCtd7B5ab2Hfd0k9Po8pbb7i2hwC2+Xdg2XfvbI1v/lsSYN/VlwKqTb4De5eezypMj08s19681nkHlvO1j7fee547ResPLRhAbaU7sNjAolWqdtfFG8dDUGX7zSvbB1XOGFIBTEWmNq+c4D/50V56GlXeOm/9SMEbWIBSTg9U2XIDi18fd3drvFa25QC2ewHbV9G8sgOgpfSb1yygRZB1gJYS21aTHtACtMoNrJ7PKlbv3DJbwQa2EqC1rnYDi/mE7mAL01EPjjkNbN0bWIBWzlruwFqgHY62jOkvbFV7aw/8HObtKzsAWmpa2fluYC3E6mtli1HqOS2AVhdoydi8Qlqg5eYVkgA2AFqEWM4KmleeErz84tb4hqXlAPbOqeR8Vjq4Nv4O7Md6FGyK1und9q1cNTexAKcWXL0NLIJqFrg6nowu69XXyhYl+1YuC6oVbWARVB1wLdPECmB1wVU2sbZ9NUkN7C09ekJN1f56/tU92ZMBk7VuYKmJNcBqYTVtA4s+fd0IPY0qb/31uV0WWNkxtFITa4AVYdUzgiongiqbQNVND1al4wbW+lfgP5tZaP6ssuUA9mz4NYANrN3AWoitbAOLACtSgGwAtMKVbGAvHNb9a9GK38oF8CrdqA0sQuwXt2uDUJSCt3LFDazXxBLApgJtihFea70Di/mD7XpCTdX++voDeE6rOXdgTQLAvvVm3cEWpS/cOeA0sGyE10bfgeW8Y3vzd7AtB7Af6QcgLde8cgoHoMqOQbX2DezaKd2/Fq2B+cMErACk5ZpXTmHbvCKkevZBle1tYF8E+arHdAdblHpnlgFcEVI9I6BCxqDKjiG1TPNKDkC1wg3s5x4bpydUqdpXt3VNu6AaA2tBG1g2ta+/Bf5DAGdVMfr51okYWK2pec1lAwuAWqaB9TewmF/+ZfNfYNFSADu8xM2r28CmAS3btq4MtCIBXoPm1QHaJJMNLKeFV54SjOqCoCH6yHY8p+U1r2wDsJwWYmOgTXEtG1j0E+P6g12U3rR2PG5g697AMtgagA0b2ABosXXljIF2OHrDar1EoGp/Dc0sJe0rGOE1fUpgne8G1jaw6Ad1B1uIBqeW3OaVMwZa1xZouXmFRIBNA1qEWE5hhNZSG1iE2Oedv4eernlqKYB9YKaSD2819g7sR3X/2jCduX/etK8VN7HSAKcWXL0NLDsNXB3bJvZS3cEWpq9vmjKQWtEGlh1Da5kmFoE1FVxlE2vbV5PUwP5f+Fql6gS94OreEuBa6waWbIDVtq5ZG1j0dx/WHWxRetYPu1riDqxsYifmmjuvbCmA/fEY7V8PJE1sDLQeyLKxbS3yDuw5Q7p/bZRuH16yDWwT7sAyyH52mzYIRenKffa1svluYCFrvAPLTWz3lH6Tqmp/fX7lMDWwjb8DawAWvn7Dz/roaVR562O39DstLINsM+7AMtDesnWCnq45aimA/fwgwGhFzStn4gBU2TGo1raBXaH3XxumvbP2HmxVzWtOd2BxA4tfv+IRfTtTUXp0ZDFpXGXzChk2r7ZxLXoDi149oK27qv113bbJBFRjYC1oA0vAahKMG1jM34O/h6oYXbFhTEAqNq5JWlAFGPXtgyrbb145fVAlBxvYr2M+FX3h9uZ+cK9lAHYWODG1ec0EWkq/ec0CWgRZB2gpsW016QEtwCtuYPv0DaMN1TvwHqxsXtkCZksDrXWtG1i07mCL0fxyFD3/XtvA1r2BBWjlrOcOLALsT7pm6AlVqvaVvAeL8Fq6ec1zA5uALFp3sMVot7gHi9DK6RibV0gLtNy8QhLABkCLEMtZRfPKQPu887vo6ZqjlgHYx+HnPANraXBt3B3Y93QryDRaJ+5J7sHmsoFFUM0CV8e2gX3RukndwRao968fr2wDi6DqgGuZJlYAqwuusom17atJ0cCesFFbd1Vn6FmX7c95A0tNrAFWC6ulNrDYxOoOtjj94Zm7WuIOLDexeA+2mWoZgL163G1gbVqINemBLBtb16LuwH5nUPevjdYNg4sGYNmN3sCiP71VG4Si9J1t0zlvYAFo67gDi0D7/ofG6OlUqvbWh+86aFtYgNbqN7DCCLKpQEv2m1gBsa+/UXewReldN/TGLWzcxMYwK4xNLDWwNW1gAUwxEV6z7sAy0G4eaN7LYFoGYL8xVEXzyikcgCo7BtXqN7C3jOv+tdHaPk07WALUGFQ5EU45hW3zipDq2QdVNm1fOXkDiw3sSyFVxej2vvmkdeXmFTIGVXYMqWWaV3IAqlVsYF8K//0qVSfooo3jCawaYC1oA8smaOUNLObT4D9XFaMfrhshSKXmNZcNLABqmQaWJwPxBlZsYa/a0LwCoGUA9j3wTVtWA5sGtGzbujLQigR4DZpXB2iTTDawnBZgd88rwDZDR22cTZpXtgFY0bxyeiDLrmcDi9YdbDHaD9+gtNIdWAOxkGML+mtd1f7aeHA+ewPLGQMtNa+cwgitlW9g3QYW/WCP7sqL0BN9s7Z5FQ1smi3QcvMKiQCbBrQIsZzCCK2VbGAxj23iCw1aAmCTFxgAlIos28RKI7BCIqSmN7FVbGAh3wxWNUdf2j1nW9g8NrDsNHB1TE3sOtvE6g62OL1y9WgCrBWDa5kmFoE1FVxlE2vbV5OigUVvGNFPa6o6Q8/88b4UcK11A0s2wIqw6jWxHrhyE6s72OL0W9/eEUIrAuuJFlKdJhZBlRNBlTOGVdnEWkit5g4sNrD/esk+erLGqyUA9vE5al9NA8tpm9gYaD2QZWPbWsQd2G8O6P61WbpqINnBNmMDi/7qDt3BFqXPbZjMcQMLWecdWMyf79cfb1Vn6O23DtS4ga2jiUVwFUD7vtua/5rRTtVRV+0vfgNLYGuBtnQT+7++tZ2erPFqCYC9abLaN3BxJg5AlR2DanUb2OtGFWCbpY2TyzGgxqDKGcCqbF4RUj37oMqmxjVuXk3aDSz6TU9M0dOo8tale2bd5hUybF5t49qIDSz6rK36463qDJ316KgA1oI2sB6wyg0s+tmXddPTqPLWafcPAaRi44qwatOCKsCobx9U2X7zyumDKjmteTVfY4K7R5vzJ1gtAbBnj2DrCgCb1rxmAi2l37xmAS2CrAO0lNi6mnSBdhMeplU1Tekb2EqA1rreDSxC7Nii/hwoQvaFBnVuYAFaOeu9A4tff/qRcXo6laq9taZ3toLmNc8NbAKybITYad2VF6L7904baE3dwGLzCmmBlptXSALYAGgRYjmrbF450bc26Y1cLQGwnx1kcAUoFZkOro25AzulBWxT9eFt+EEuF1pLgivAqQVXbwOLoJoFro6TBvbF1MI+MqY76CI0s3Q4AdYscEVQdcC1TBMrgNUFV9nEWlg16TWwR63UzZ6qMzQ+v+yCq8laN7DUxBpgtbBayQb2t87eHT3Sp7OcIjQ2uyyglZpYA6wIq54RVDkRVNkEqm4KUPXtAavTxH59S3TKfQfp6RqrpgMsfo/2Rt6/igY2AFoPZNnYuuZ9B/ZDAMmq5uq73fxCg+ZsYNFX62vYCtOb147ltIEFoK3zDiw3sSpVp+gfr+ypYQMrjCCbCrRkv4kVEMv+ySb9U42i9Bfn7C52AwvQionwWu4OLOabr95PT9ZYNR1g9wIj4HygquaVUzgAVXYMqpVvYL+lLzBoun52cDGGVAOqAljxax9YbfOKkOrZB1U2bV85/Q0s+oRd2iAUpeM3TyXNK2QMquwYUss0r+QAVKvcwP4NeM+kNu6qztAHfjmY3ryyPWDN8w6s8dm7o2Pv028Ki9LbftpDsGobWAuqAKO+fVBlew1sPXdg0X9y+k56ssaq6QC7aobbVwDYjAY2DWjZtnVloBUJ8Bo0rw7QJplsYG1eN6rbnWYLP8gVbmBF88rpgSw7jw3sOzdO09Oo8tZ1++fq28Ay2BqADRvYAGixdeX0mle8A4t5X7+eTlN1hs58ZDRsXkUDm+8GNmxgEWJfez38hq4qRN9aPdQyd2AtyG4x04ZGq+kAe7l5hayFVQbWUuDaiDuw66cVYJut6aXD+Wxg2Wng6piaWABX2cTOLuvPhSK0aQw/yEXQWhG4lmliEVhTwVU2sQirlNS8Sl+yS4+vqzpDd+2d9sC11g0s2QArwqrXxKaAq8mzu6I/hP9eVTG6ffukC60IrE26A4vwirl6T+MvuTQdYE8e9jewnLaJjYHWA1k2tq1534EdWqSHUzVV79oi3shlwDWliQVoLWoDi944oX+sXITw+4J8NrCQOdyBRYD9xpP6CmFVZ+jA5GING9g6mlgE1xSg7R7X30yLUA/8/7VV7sCaBIj9wdrGv5K76QB7TD8AarUb2BhUEwegyo5BtbIN7Du7FVhaRd/cM5eAqgBW17J5RUj17IMqmxrXuHk16W5g0Tf26we5itI7Hx63oArwGjavtnFt5Ab23WtG6clUqvbXX1zSDXBa0AbWA9a0DSy2sHfs1vvKRen3vrcTYBWbVwZVgFHfPqiy/eaV0wdVcmrzil/TBvb/AX/wxl56ssapqQA7viya1xa5A/uNfv0AV6voyv5FbwObuBEb2Bevm4q+3TVHT6PKW9/aOp00rxVPCawRWjnzuAOL+UL471GpOkVvuWWgRPOa5wY2AVk2A+0Z6/Q8XVF6zZX73daVm9cYaLl5hSSADYAWIZazluaV/fUt0bN/2EVP1jg1FWA3mVfI2gbWgitAqch0cC32DuylhxRgW0UPjS9VDq4ApxZcvQ0sgmoWuDpOGli+A4v+wCb9IFdR+nnvXDa4IqhyGpdpYgWwuuAqm1gLqyapefU9PKe//lWdoRPXjlhgNQBb6waWmlgDrAClIkuBKzewH9BXyhamr94zCLBqG1izgeXWVRpBlRNBlU2g6qYAVd8+sKZsYNGNVlMB9tYp27620h3YVVP6oZ1W0dACfpCruRtYhFj9GVGMdkwsmfa1Ve7Aoh87pJMRVWfoZzumDLw26w4s+rk/ac590CNB120aN/DaCndgLcRuiXYNN/aSS1MB9oejCK0AqNVuYDmFA1Blx6Ba2Qa2W19/11L6940WVp3mlVPYNq8IqZ59UGXT9pUzawOL3q6vZStMz70HwRVgVABrVc0rOQDVGjawmDd06+1fVWdoB3wzVtgGlk2gmrWBxZxb0t9Ti9DWg3MAq7aBtaAKMOrbB1W218DWewcWN7CYd+5o7AdhmwqwXxkSzau3gZUNbBrQsm3rykArEuA1aF4doE2SN7BvhFS1lo7dNSc2sKJ55fRAlp3XBhbz1oP6Sdqi9MH1E7Z5zZoSsGOgtS7iDiz69C36oRNV5+gZP9qXNK+igc13Axs2sMmUoCt6vF8/R1CUfuPU7W7zSrZAy80rJAJsGtAixHIKI7RWu4FFn/dQYz9H0FSAfX8/g6uFVQbWUuBa5B3YL/YpwLaaLuxdiKG1JLgCnFpw9Taw7DRwdUxNLIKr18SeuVf/BVyUTt9OH+QSwJoOrmWaWATWVHCVTSzCKiUBq+9PrNfXX6o6R6++sY/AtdYNLNkAK8Kq18QKaDXAymnaV/Tu6IrNE/Q0qrz14ov2WmhFYG3yHVj0528DqGugmgaws4eT7Wur3IE9b1j/qKPVdN/IUpM3sFPRx7bogfui9Mu++Za5A4t+zX36qWlV5+jYVcNNvQOLEPtVeAZVMfoUAGOr3IHFr4++opuerDFqGsDuXUBQpea12g1sDKqJA1Blx6BafgN767gCbKupa2bZgqoAVteyeUVI9eyDKpsa17h5Nek2r+yXw3+uKkY7zQe5AEIFsNrm1Taujd7A/s2tQ9Gi/mtA1SG6aOM4gWrOG1gPWEttYI+64QA9jSpvnbduxACrBVWAUd8+qLL95pXTB1VyavOKX1PzyhvYvzprFz1ZY9Q0gF036zWv3ga2PNBS+s1rFtAiyDpASynuwD42o79ztZrml6Om3oG1EDsV7QWQVuWvueXDtnmtdgML0MqZ1x1YNkK1StUJuq97JqN5zXMDm4AsW04J/ugCfaVsUbp711TYvMZAy80rJAFsALQIsZy1NK9s2sD+Z/hrGqmmAewtkxJcLawysFbexAojsJYE1/Ib2D79rE5L6q2bK/jwFsCpBVdvA4ugmgWujpMGVt6BZd+t7xcuTK++fzQEVwRVB1zLNLECWF1wlU2shVWTAlilsYFdPdDYUzAqVVHaO7ZY5waWmlgDrAClIkuDa9LAYvZO6L8/i1DXoXkC1xINLCeCKptA1U0Bqr59YM3YwGITu3ekcacImwawF41lbWARYDktxJr0QJaNrWsed2BfDwCrak19Hi8RGHBtxgbWNrE/2q9QU5Q++iheIgBwbYE7sOif6SktVQfp6ecDwFa0gRVGkE0FWrLfxAqIlUZ4xbx3r74Qpij92kmigWVjE0sNbE0bWIBWTITXau7Aolfsatwll6YB7CnDAKbcvoKral45hQNQZcegWnoD+7FeBdhW1Znd827zyilsm1eEVM8+qLJN45pkqQ0s+sRdCjVF6dQtUwmosmNILdO8kgNQrWMDe+FO/c1W1Tl6wdW9SfPK9oC1yDuw6Eue1OseRelZ53YRqAKM+vZBle01sHndgcX80brGndJqGsB+arD0BlY2sGlAy7atKwOtSIDXoHl1gDZJ9MmDunFsVf10cDFsXjk9kGXnvYH9D71EUJiu2Dtb/QaWwdYAbNjABkCLrSun37xykr+9WW/BqjpH77590DauooHNdwMbNrByA4s+4QG9RFCU3nhNT9DAWqD1NrBpQIsQyymM0FrLBhYh9tg7Gvf64KYB7Fv7CFi5hRXAWgpci7oDe/EhBdhW1ZqxpfLgCnBqwdXbwLLTwNUxNbEIrilN7JueUKgpSqsGFyoA1zJNLAJrKrjKJhZhlVIAqzQ2sF94TO9WqjpHxz94yLSvCbi6sCqdDa5JA1vZBpZtm9j339Y4qDnS9KW7Bk372gp3YLGBfcOVjXt9cFMAdnjJtq/pG1hOBNnG3YG9Y0IvELSq9s0eJoBtxgYWkppYVTHaM2VPabXCHVj0+9eO0ZOpVO2vn2yeqHADW0cTi+CaBrQAr5gvvwZ+M1cVogsfHQ0a2Lo3sAS2FmgraGIRYin/9pzd9GTFqykAu2UeIRXAlJtXyOqaV87EAaiyY1AtvYHdoCe0Wlb4Ku3syYBsXhFSPfugyqbGNW5eTYbNK/uFD09GA3P6c6QI4Y9v2LzaxrUZG9jX6ssMVB2k1ftnkuaV7YMqZwypAKYiU5tXAazlNrB/dL6e0ipK93ZNEagCjPr2QZXtN6+cPqiSU5tX/Fo0rya/9lT0a/D3aZSaArArZ2zLWmoDWx5oKf3mNQtoEWQdoKWkO7CDeuWjpfWOp2bj1tWAbCbQWue9gcXcqPdBC9PrHhirbgML0MqZ9x3Y5wMoq1Sdop6JRad1tc1rnhvYBGTZ4ZSgKxqf05leEeoeW3CbV0gLtN4GVthpXjlraV7ZYgOLuR+eqRFqCsBeNyGAVTaxBKuVN7HCCKwlwTV7A/sG+M9Ura1j6ZRW1RtYBNUscHWcNLBpd2Bf9LDegi1S//HYhAuuCKoOuJZpYgWwuuAqm1gLqyYFsEpjA/ss8AzWwipVh+j3L5Dg6sKqdAiu1MQaYAUoFVkaXGUDa3PTwTl6GlXe+vVTEF4RVj0jqHIiqLIJVN0UoOrbB9YSG1j0yq7GfGakKQB7zmipDSwCLKeFWJMeyLKxda33DuwnD+h3hq2u7++fB3Bt3h1YzCsPNO5A85Gm07ZO17iBBaDN+Q4sumdav6lVdY5ecm1vU+/AYt7WwPugR5r+/vw9SQvLTSw1sDVtYAFaMRFeq70Di774kcbMsJoCsF8bQlgFMBWuqnnlFA5AlR2DavYG9lt6QqvldSOd0jJwmtLA2uYVIdWzD6ps2r5yVrKBPWOPNghF6ep9szGwVtW8kgNQrWMDi97QwLfJqFRF6/134CktgFG2B6xF34H9zbN2R+c9NkpPo8pbb7muJ7uBlaDK9hrYPO/Aor92V2OuTjQFYI+BfzbZwCZTAm5eOQlmU4CWbVtXBlqRAK9B8+oAbZKXjegfF7a6Hh7HU1rNuwOL+aXt+jKDovTg0ELL3IFFr+jXN6+pOkcnrR1p6h1Y9JdXDtHTqPLW1+4ZdBpYhNdgA5sGtAixnMIIrfVsYN97fWOuTjQcYBeBFS24ErByCyuAtRS4FnEH9i49odXy6pmzp7Sq3sCy08DVMTWxCK5pTezDk9H7NuobmopS9/RSGXAt08QisKaCq2xiEVYpPWBl8wb2ur36zYqqc3TlUxMCXF1Ylc4G16SBrWwDy06a2Lff3E9Po8pblzyGp7QspDb7Dizmyy9qzNWJhgOsuQHb5zawThOL7atJBNnG3IHdNKsA2w5qzgYWkhrYf4O/h6o4tcodWPR52/WbFVXnaE3vbFPvwGK+4IoeehpV3rp/77TTwNa9gSWwtUBbQROLEMsJ/rMzdtKTFauGA2zXAsMqgCk3r5DVNa+ciQNQZcegmr2B1c/mtIfevGkmBNUG3oHFFnZSP51emP5l1ahoXm3j2qwN7Ikb9cUVqs5R19gCgCrAKNsHVc4YUgFMRaY2rwJYK9nA/h78vVTFaNehebd59YA1BlW237xy+qBKTm1e8WuvecU7sPj1f4G/VyPUcIB9Ys42sEHzaoAW0oBsY+/AziuTtIX+Y7s9pWWaV9HAprmIDSx697R+4K8ove2h8bB5ZYvW1QAtQCtn3ndg0Z9+ZJyeSqVqf80uHvaa18bfgUUPTOl1jyI0Az++cfOatYEVdppXzlqaVzY1rxZotxiIPThV/NnJhgPsqhkGVwJW2cQSrFbexAojsJYE1/QN7Du79RdUu+j4rrmm3oFFrx3VW7BFCW/BxuCKoOqAa5kmVgCrC66yibWwatIDVjZvYN/5oH5iWtVZ+vOLuwlcXViVDsGVmlgDrAClIkuDq2xgOXdH6/t0W16Ufve7O5LmlY2gyomgyiZQdVOAqm8fWEtsYI2/9lT0+IHif6wbDrC/mLINbPYGFgGW00KsSQ9k2di61nMH9tN6A7Zt9IOeBWpgm3MHFv3zAd2bFKXjN0/FDSzbAdoUI7wWcQf2VfceoqdSqTpD/3zdAaeFtU0spQ+zCLKpQEv2m1gBsdIIr5zoG7fpNKcoPecCcQsWm1hqYGvawAK0YiK81nIHFmH2lq0T9GTFqeEAe8U4wyqAqXBVzSuncACqbALVrA3siQMKsO2iawEeDZymNLC2eUVI9eyDKpu2r5yVbmAv6NZbsEXp+zumUyYDZZpXcgCqdW5g/wH+GpWqk/TOWwfs/jWPDSybQVVk1gYW84x1jTlwfyTq9VftT0DVA9YYVNleA5v3HVhsYM9/uPgSoOEAey6+hctrYBOghTQgy0kwmwK0bNu6MtCKBHgNmlcHaG3+cFgHsO2iFYfwFiw1r6KBTXNRG9gTd+kfgRWlK+llBk7zyo6B1rroO7AIseML+u8GVefoCyuHRfPa+Duw6M/cc5CeRpW3/uPW/riBRXgNNrBpQIsQyymM0FrvBvbrdw3SkxWnhgPsqQDlFlwJWLmFFcBaClzzvgN77aj+JtUu2jC5XP0Glp0Gro6piUVwTWtiqYH9j6dm6GlUeeuOvvkS4FqmiUVgTQVX2cQirFJ6wMrmDezf3How2jOp+3hV5+j09aMEri6sSmeDa9LAVraBZbtN7OtvhN/0VYXo1FVDBK4EqwysWeBqLJtYC6l53IHFBrYRLzNoOMB+aShsYJ0mFttXkwiyxd+BvXtSAbZd1EsvM2jWHVj0m57Q+6BFaf2hhbiBZcdAG4Os66LuwKIfGda9s6pzdPWWybiBTZpYuYGto4lFcE0DWoBXTvTfX9JNT6PKW5c9ji8zyGkDS2BrgbaCJhYhlpOAthEvM2g4wH50AIDUwCqmhVPM6ppXzsQBqLIJVLM2sI/NKMC2i+aXoxBUG3wHFlNVjHZPLonm1TauzdrAYgP7ywO6d1Z1ju7rnrH71zw2sAioAlgr2sCCMVXF6O5dUwmoesAagyrbb145fVAlpzav+DU3rpx0BxbzTxvwMoOGA+zb+20DGzSvBmghDcg27g7sPi1Z2kqv32jb12ZtYBFi9WUGxWh04XDYvLJF62qAFqCVs4g7sAixV+7RuYiqc7R1eF40r825A4swO7WgH5wuQk8NztnmNWsDK+w0r5y1NK9s0bxiIsT+Gvx9ilZDARbLzgRcCVhlE0uwWnkTK4zAWhJc0zewk/prqa10zNbZdHAFOLXg6m1gEVSzwNVx0sCWugOLDezAnAJsUXrO3WIy4IBrmSZWAKsLrrKJtbBq0gNWttzAnr1VXx2s6hyNzS0TuLqwKh2CKzWxBlgBSkWWBlfZwHLaBlZfZlCMRmeXkuaVjaDKiaDKJlB1U4Cqbx9YS2xguYFFF/0yg4YCbD/8vDX71xa5A/sW+J9V7aWv7Ma3cTXvDixa38ZVnF61ejRuYZ0mNgZZ1wivRdyBRYj9xgadi6g6S8+8cF/cwtomVm5ghRFkU4GW7DexAmKlEV452V2j+seeRek3v7U9nw0sQCsmwmutd2Axi36ZQUMBdvs8QioAqYFVzMRVNa+cwgGosglW0zawH+tVEGk3ndE939Q7sJgbJ7RBKErvfGisuuaVHIBqDhvYj68bo6dSqTpD/3RVTz4bWDaDqsjMDSzlpoO6LS9Kf/OD3QmsCmCNQZXtNbBF3IFFF/0yg4YC7HqA8bQGNgFaSAOynASzKUDLtq0rA61IgNegeXWAdjk6Tl9i0Ha6vM++jauZG9i1owqwRenTj0+4zSs7BlrrRtyBfcv9+jpZVWfpjTf3U/PanDuw6Id79ZZ2UXrV5d0tcwcWvy76ZQYNBdh7pi2sWnAlYOUWVgBrKXDN8w7sWUMKsO2mO4YX08EV4NSCq7eBZaeBq2NqYhFc05pY0cDePVTsrudI1on0OtkQXMs0sQisqeAqm1iEVUoPWNlyA/vP9+jrZFWdpU/ccxDA1YVV6WxwTRrYyjaw7LCJXbFXTxEWpQ/edADAlWCVgTULXI1lE2shNa87sOjj7yn2ZQYNBdgbJ6l9LbmB5USQLfYO7BX6EoO20yPj+Dau5t2BRf98QDdcRencnTMGYNlxExuDrOsi78D+LVil6iSd+tCIaV7Zjb4Di/7FTv1wZFH6xoqDLXMHFvOzt/XTkxWjhgLs5eMIpwCkBlYxLZxiVte8ciYOQJVNsJq2gb1pXAG23bRtetmDVdm8IqR69kGVTY1r3LyaTCDVt9zAXnlgnp5Glbeu3DtLzattXJu5gcUcntM/pVF1jn74xFg+G1gEVAGsFW1gwZjXPFXsLvJI1llrhhNYFcAagyrbb145fVAlpzav+DU3rpzYvHKCP3hjLz1ZMWoowF4wljSwQfPKYGtAtjF3YO/Ut3C1nfbT27iauYH90X4F2KJ0y4E5t3lli9bVAC1AK2dRd2BxSrBjXOciqs7RFQCPtnlt3h3YizbohyOL0sWP2bdxIbwGG1hhp3nlrKV5ZXvNKwPtm6/eT09WjBoKsGeOSHAlYJVNLMFq5U2sMAJrSXANN7APTCnAtpsOLRDA+tAKcGrB1dvAIqhmgavjpIEtdwf2jD36KdqitPqgfZ2sAVUHXMs0sQJYXXCVTSxAKacHrGy5gcWvHx7SuYiqc3TzzikAVxdWpUNwpSbWACtAqcjS4CobWE7bwJ79iH44sijdsHk8aV+5geVEUGUTqLopQNW3D6wlNrCygX3lJcW+TrahAHvKoaSBzd7AIsByWog16YEsG1vXWu/A6mtk20/4Otlm34E9aZd+irYobRhdNADLjpvYGGRdI7wWdQcW895+bdtVnSN8nSzvX20TKzewwgiyqUBL9ptYAbHSCK+c7FPX6Icji9Jdu6Za6g7s88/voicrRg0F2K8NIaQCkBpYxUxcVfPKKRyAKptgNW0Du03fqNSW+pcnBKiSbfOKkOrZB1U2bV85q9nAfmmbvmK0KO2ZWqqueSUHoJrTBvYX+/WbFVXn6JH+uXw2sGwGVZGZG1jKr63SD0cWpYf3zySwKoA1BlW218AWdQf2r87aRU9WjBoKsJ89mN7AJkALaUCWk2A2BWjZtnVloBUJ8Bo0rw7QLkfd+qeDbal/3zjT1A3sf2xRgC1KI/OH3eaVHQOtdSPuwGILe80e/bFWdY62H1qg5rV5d2A/cw+AgKoQbTk411J3YJ9x2g56smLUUID9yKCFVQuuBKzcwgpgLQWued6BHdJ79G2pdz0FAOtDK8CpBVdvA8tOA1fH1MQiuKY1saKBfe9GvWNYlJYPRxngWqaJRWBNBVfZxCKsUnrAymZw5Qb2xzv1x1rVOTowuQjg6sKqdDa4Jg1sZRtYdtjEHnP7AD2NKm/1ji8CuBKsMrBmgauxbGItpOZ5B/Y34L+7SDUUYN8NP2/Lb2A5EWSLvQM7oxdy2lIf2TbbwA0spLeBfdMTCjVF6iX3jRqIdZrYGGRdF3kHFn32Vr1ZqeocTS4sm+aV3Yw7sG+/udjboEeyJuaWW+oOLEIslhJFqaEAi+Ca2rxCVte8ciYOQJVNsOpvYI/eq/Vru+pzO+YErMrmFSHVsw+qbGpc4+bVZAKpvuUG9lWPTNKTqIrQ6+4fBTi1jWuzN7CnbNIfa1Vn6XdiYBWgyhlDKoCpyNTmVQBrRRtYMOZR1wMAqArTr9KEILV5ZfvNK6cPquTU5hW/5saVE5tXTvLobHGs1TCAnQYKj9tXA7Je88pga0C2+Duw74C/RtWe+kYXAGwTN7BoVXF698PjSfPKFq2rAVqAVs4i78B+9Qk9uq7qLP3pRd05b2ATkGVnb2B3Ry+/Gn6DVxWm3/nODq95pQ2ssNO8ctbSvLL95lUAbfdocR82ahjA4t7UBVcCVtnEEqxW3sQKI7BCZoOru4E9Bv4+qvbUaXvnQ2gFOLXg6m1gEVSzwNVx0sCWuwOLObmkFyyK0icem7Cg6oBrmSZWAKsLrrKJBSjl9ICVzeDKDeynHxmnp1KpOkPPvnx/AKzsEFypiTXAClAqsjS4ygaW0zawz/1Jscftj3T96dm73AbWa2LDBpZTgKpvH1hLbGD9BnbzQHF30xsGsN2LSftqHINskrKBDYDWA1k2tq613IH9dJ8CbLvqBz0LDdzAyiY28YCeYCtMX9s4VcUGFoC2wDuwxzykbw1SdZb++boDGRtYYQTZVKAl+02sgFhphFdO9l9ftI+eRFWEnnPBnvo3sACtmAiv9dyBRYBd213cZ0YaBrDb5i24Bs0ruarmlVM4AFU2Aau/gf1KvwJsu+qSAwsBsNrmFSHVsw+qbNq+clazgUXvntafP0XpO1unBaSWaV7JAajmtIF92/0j9FQqVWfo6Jv6AmBt5B3YZ563h55EVYRefum+AFhjUGV7DWxRd2DRd+4obnLXMIB9fI6a15QGNgFaSAOynASzKUDLtq0rA61IgNegeRVAe/KgAki76qcDi03fwG6c0A8BFqULds2U38Ay2BqADRvYAGixdeX0m1dOYZ4SvG6lAqyqs/Tu2wZy3sCGDWz2BrYrehr856ri9IZrerzmlTawaUCLEMspjNCa1wb2hk3FzbAaBrAPzlhwRUi14ErAyi2sANZS4JrXHdgzhhRg21W3DQHA+tAKcGrB1dvAstPA1TE1sQiuaU0sgSs3sRvGFWCL0jX7ZlPAtUwTi8CaCq6yiUVYpfSAlc3gyg3sy+4epqdSqTpDH7/7YACs7GxwTRrYyjaw7JQmFqwqTu/72QECVwLWLHA1lk2shdQ878CiL36kuBKgYQB79zQ1rykNrNPEYvtqEkG2uDuwFxzSDWO7auXIUgM3sJApG9hN2sAWptv75qvYwEIWeAf2H+H/RqXqJH159XDGBraOJhbBNQ1oAV45pVXF6dO399e/gSWwtUBbQROLEMspm1gA2LMfLO7foQ0D2JsnLbimNq+Q1TWvnIkDUGUTsPob2MtHtIFtV60fXxKwKptXhFTPPqiyqXGNm1eTLqRK+xvYpyYVYIvSg0MLAKe2cW32BhazyEPcKlWjdcpDIyGocsaQCmAqMrV5FcBa0QYWjIlWFafjVgwGwBqDKttvXjl9UCWnNq/4NTeunNi6cpJPgucpSg0D2GsnqHklB80rg60B2eLvwP50TH9Xalc9Obnc9A3sVngGVTF6bGQxaV7ZonU1QAvQylnkHVjM8QX9d4Wqc3TWo6M5b2ATkGVnb2At2KqK07fvH/KaV9rACjvNK2ctzSvbb14F0H79rg4A2CvGfXAlYJVNLMFq5U2sMAJrSXB1N7A3jetvSu2qzQiwPrQCnFpw9TawCKpZ4Oo4aWAruQO7Y0oBtihtGAWARVB1wLVMEyuA1QVX2cQClHJ6wMpOwDVpYPv0ndOqDtIPHx8LgJUdgis1sQZYAUpFlgZX2cBy6ga2ETpzzbDbwHpNbNjAcgpQ9e0Da4kNrN/AfvH24l4d3DCAvYQANnYMsknKBjYAWg9k2di61nIH9tYJBdh21RaAx8ZtYGUTm3iXntEqTJvGFqvYwALQFngHFiF2l+6dVR2kizaOZ2xghRFkU4GW7DexAmKlEV45pVXF6YfrRurfwAK0YiK81nsH9lO3APAVpIYB7I/GLLgGzSu5quaVUzgAVTYBq7+BvVMBtm21HeDRB1bbvCKkevZBlU3bV85qN7BdCrCFacs4NbDGZZpXcgCqOW5gN4wU9ypElarRunzzRACsjbwDqxvYYnXRo6MBsMagyvYa2CLvwH7kJgC+gtQwgP3hKDWvKQ1sArSQBmQ5CWZTgJZtW1cGWpEAr0HzKoD23kkF2HbVrpnmb2D36R8rF6btE0vlN7AMtgZgwwY2AFpsXTn95pVTGOGVN7BrDs7Tk6lU7a/rtk3mvIENG9jsDay1qjhdsWHMa15pA5sGtAixnMIIrXltYN93AwBdQWoYwJ5FAIuQasGVgJVbWAGspcA1rzuw908pwLaruhBgfWgFOLXg6m1g2Wng6piaWATXtCaWwJWb2P2zCrBFadekBVgXXMs0sQisqeAqm1iEVUoPWNkJuCYN7F0HinuXt0rVaN20YyoAVnY2uCYNbGUbWHZKE6sNbKH66aZxAlcC1ixwNZZNrIXUvO/Avv3aHnqy/NUwgP3eCDWvKQ2s08Ri+2oSQba4O7APTSvAtqv2ATw2bgMLmbKB7VWALUx7ppaq2MBCFngHFiH2pu5ZejKVqv11e9d0xga2jiYWwTUNaAFeOaVVxenmrRP1b2AJbC3QVtDEIsRyyiYWAPaNV+6nJ8tfDQPYUw9ZcE1tXiGra145EwegyiZg9Tewj8wowLareuYOC1iVzStCqmcfVNnUuMbNq0kXUqX9DWz/nAJsUeqeXgI4tY1rK2xgr+iaoSdTqdpf9+ydDkGVM4ZUAFORqc2rANaKNrC0f9UNbLH65Y7JAFhjUGX7zSunD6rk1OYVv+bGlRNbV07yay7bR0+WvxoGsCcSwLKD5pXB1oBs8Xdgn5xVgG1X9SHANnkDOzivP3+KUu/MctK8skXraoAWoJWz6DuwF+yYpidTqdpf9/fM5ryBTUCWnb2BtWCrKk73dU15zSttYIWd5pWzluaV7TevAmj/5eK99GT5q2EAe9ywD64ErLKJJVitvIkVRmAtCa7uBnYLQJCqPTUA8BhAK8CpBVdvA4ugmgWujpMGtpI7sEMKsIWpbxYAFkHVAdcyTawAVhdcZRMLUMrpASs7AdekgT1jyxQ9mUrV/nr4AACsB6zsEFypiTXAClAqsjS4ygaWUzewjdCa7mm3gfWa2LCB5RSg6tsH1hIbWL+BffGP9tCT5a+GAeyXh5L21TgG2SRlAxsArQeybGxda7kDu1M/WNy2Glo43MANrGxiE4/o25kK0+DcchUbWADagu/AnrRxkp5MpWp/PTE4l7GBFUaQTQVast/ECoiVRnjllFYVp0d7Z+vfwAK0YiK81nsH9rnnFffj3TCA/fxBC65B80quqnnlFA5AlU3A6m9g92iD1rZCePSB1TavCKmefVBl0/aVs9oN7Nii/vwpSsPz1MAal2leyQGo5riB/dLjE/RkKlX766mh+QBY9Q5s52jTwFwArDGosr0Gtsg7sH93zi56svzVMID9FAFsWgObAC2kAVlOgtkUoGXb1pWBViTAa9C8CqDt1dvkbSuEx2ZvYCcUYAvTKHyDUnYDy2BrADZsYAOgxdaV029eOYURXnkD+4n14/RkKlX7a9foQs4b2LCBzd7AWquK0w74BsVtXmkDmwa0CLGcwgiteW1g/+LMDgDYjw1acEVIteBKwMotrADWUuCa1x3YwUV6MFXbaXKpig0sOw1cHVMTi+Ca1sQSuHITOw3PoCpG+M1BCK5lmlgE1lRwlU0swiqlB6zsBFyTBvZ9a8boyVSq9tf+8cUAWNnZ4Jo0sJVtYNkpTaw2sIVqH3yD4jSwWeBqLJtYC6l534H9P9/dQU+WvxoGsMcQwKY1sE4T26A7sCP6evO2Fb4Eq3EbWMiUDayegS1O+M1B5RtYyILvwL75/lF6MpWq/TUwvZSxga2jiUVwTQNagFdOaVVx6p9crH8DS2BrgbaCJhYhllM2sQCwv//tDgDY9/ZbcE1tXiGra145EwegyiZg9TewEwogbSs8wZrAqmxeEVI9+6DKpsY1bl5NupAq7W9g5/XnT2GaWz4McGob11bYwP7bvYfoyVSq9tcofPcdgCpnDKkApiJTm1cBrBVtYGn/qhvYYjUysxQAawyqbL955fRBlZzavOLX3LhyYuvKSf7tk7fRk+WvhgHsOwhg2UHzymBrQLb4O7B6Rat9hfPTZm9gdUFQnPDHN25e2aJ1NUAL0MpZ9B3YF8N/v0rVKZqGX2B6B7ZzNb2w7DWvtIEVdppXzlqaV7bfvAqg/XV4hqLUMIB9cwCuBKyyiSVYrbyJFUZgLQmu7gZWFwTtK2THAFoBTi24ehtYBNUscHWcNLCV3IFVfi1O+P9bA6oOuJZpYgWwuuAqm1iAUk4PWNkJuCYN7D/AX69SdYqWlqMAWNkhuFITa4AVoFRkaXCVDSynbmAboaXlw24Dy4mgyiZQdVOAqm8fWEtsYP0G9j/BX1eUGgawbxHtq3EMsknKBjYAWg9k2di61nIHVv8EuH2FgNO4DaxsYhNrA1uc8P+1lW9gAWgLvgP7t5AqVacIATZ9AyuMIJsKtGS/iRUQK43wyim9CJClKkYIsHVvYAFaMRFe670D+5/hf1+UGj4hCJpXclXNK6dwAKpsAlZ/A6tvkm1fmQmBB6y2eUVI9eyDKpu2r5zVbmD1CkFxMhOCGFLLNK/kAFRz3MD+HfznKlWnaHrhcACsjb4DO6EfIihMPCHwm1fOtAa2yDuw/w3++4pS4z7ENUDNa0oDmwAtpAFZToLZFKBl29aVgVYkwGvQvAqgndRfP20r8yGuJm9g9U1cxcl8iEs0sKkbWAZbA7BhAxsALbaunH7zyimM8Mob2L+Hv1al6hSNwr9Am30H9uC0jviKEn+IK9jApgEtQiynMEJrXhvY/3lKB3yI6xgCWIRUC64ErNzCCmAtBa553YHVM1rtKzyjFUArwKkFV28Dy04DV8fUxCK4pjWxBK7cxPYjRasKEbbbIbiWaWIRWFPBVTaxCKuUHrCyE3BNGthnw1+vUnWKBqaWAmBlZ4Nr0sBWtoFlpzSx4O5xPcRelPonFglcCVizwNVYNrEWUvO+A/t7395OT5a/Ggaw/CKDtAbWaWIbdAdWX2TQvsIXGTRuAwuZsoHdhxStKkT4IoPKN7CQBd+BfS78/VSqTtF+AJz0DWwdTSyCaxrQArxySu84pK/CLEr4IoO6N7AEthZoK2hiEWI5ZRMLAPt/vreTnix/NQxgPxW/iQuA1MAqpoVTzOqaV87EAaiyCVj9DWyP/vppW5lXycawKptXhFTPPqiyqXGNm1eTLqRK+xvYHVMKsEXJvEqWGtdW2MA+D/7+KlWnaNfIQgiqnDGkApiKTG1eBbBWtIGl/Sv6ycE5ehpV3uJXyaY2r2y/eeX0QZWc2rzi19y4cmLrykn+izM7AGA/P0TNKzloXhlsDcgWfwd27zw9mKrthPvTZm9gN03oBqUoDc8vJ80rW7SuBmgBKjmLvgP7AgBnlapTtGV4PucNbAKy7OwNrAXbdQdm6WlUeWvTwJzXvNIGVthpXjlraV7ZfvMqgPbvzinubFrDAPbLBLAJuBKwyiaWYLXyJlYYgbUkuLob2J36JoO21RACrA+tAKcWXL0NLIJqFrg6ThrYSu7APjqmAFuUBucAYBFUHXAt08QKYHXBVTaxAKWcHrCyE3BNGtgXKsCqOkhPAOD4wMoOwZWaWAOsAKUiS4OrbGA5kyZ2VfcMPY0qbz3aO+s2sF4TGzawnAJUffvAWmID6zewz/1hcS+uaBjAHge/B8gGNnsDiwDLaSHWpAeybGxda7kDu0UBtm01MN/IDaxsYhOvGdERdVHqm12uYgMLQFvwHdiX3K1v4lJ1jtb1zWZsYIURZFOBluw3sQJipRFeOaXv7Jqmp1HlrTXwzUHdG1iAVkyE13rvwL74R3voyfJXwwD2BALYoHklV9W8cgoHoMomYPU3sBv0EGzb6gB88+EDq21eEVI9+6DKpu0rZ7Ub2PuGFWCLUs8MNbDGZZpXcgCqOW5gX3q3NrCqztH9+2cCYG30Hdibd0zS06jy1n1dUwGwxqDK9hrYIu/AvuLivfRk+athAPutQ9S8pjSwCdBCGpDlJJhNAVq2bV0ZaEUCvAbNqwDaR2cUYNtVPQiwTd7A/vKgAmxR6p5eKr+BZbA1ABs2sAHQYuvK6TevnMIIr7yBffk92sCqOkf37AOAbfId2Gu3TNDTqPLWL3dOes0rbWDTgBYhllMYoTWvDexrf7KPnix/NQxgvztiwRUh1YIrASu3sAJYS4FrXndgH5pWgG1X7ZtdDqEV4NSCq7eBZaeBq2NqYhFc05pYAlduYm8e0DMWRWnPlAVYF1zLNLEIrKngKptYhFVKD1jZCbgmDewrFGBVHaTbd08HwMrOBtekga1sA8tOaWLBl20cp6dR5a2bt04QuBKwZoGrsWxiLaTmfQf2DVd205Plr4YB7Nmj1LymNLBOE9ugO7D3TynAtqu6ZpYbuIGFTNnA/rRPAbYo7ZpcqmIDC1nwHdhXrlCAVXWObto5lbGBraOJRXBNA1qAV07p8x8fo6dR5a2fbhqvfwNLYGuBtoImFiGWUzaxALDvuLaHnix/NQxgzyWATW1eIatrXjkTB6DKJmD1N7ArJhVg21W7AGATWJXNK0KqZx9U2dS4xs2rSRdSpf0N7BW9eoetKG2fWAI4tY1rK2xgX3WvAqyqc3Td1skQVDljSAUwFZnavApgrWgDS/tX9FnrR+hpVHnrig1jAbDGoMr2m1dOH1TJqc0rfs2NKye2rpzk913fS0+WvxoGsD+Cb7hkAxs0rwy2BmSLvwN754QCbLtq+zQAbJM3sBftV4AtSlvGF5PmlS1aVwO0AK2cRd+Bfc19+putqnN0+VMTOW9gE5BlZ29gLdh+a61+U1iULnp01GteaQMr7DSvnLU0r2y/eRVA+5GbAOwKUsMA9pJxH1wJWGUTS7BaeRMrjMBaElzdDeyt4wqw7aotU1VsYBFUs8DVcdLAVnIH9of79E0yRWnTGAAsgqoDrmWaWAGsLrjKJhaglNMDVnYCrkkD+1oFWFUH6aInxwNgZYfgSk2sAVaAUpGlwVU2sJxJE3v8/XrZoyj9cN2I28B6TWzYwHIKUPXtA2uJDazfwH7qFgC/gtQwgL1iImlfjWOQTVI2sAHQeiDLxta1ljuwNynAtq02A8A2bgMrm9jEZ+5RgC1KG0YXq9jAAtAWfAf26JUKsKrO0Q+fGMvYwAojyKYCLdlvYgXESiO8ckp/6b4hehpV3jpzzaH6N7AArZgIr/Xegf3i7f30ZPmrYQB7LQFs0LySq2peOYUDUGUTsPob2OvGFGDbVU9Ohg2sbV4RUj37oMqm7StntRvYb+/WVyEWpcdGqIE1LtO8kgNQzXED+/pVCrCqztGZj4wGwNroO7CfumuQnkaVt769eigA1hhU2V4DW+Qd2K/fNUBPlr8aBrA3T1HzmtLAJkALaUCWk2A2BWjZtnVloBUJ8Bo0rwJoLx9VgG1XrR9favoG9oSdCrBF6cGhhfIbWAZbA7BhAxsALbaunH7zyimM8Mob2DeuHqUnU6naX6c+NJLzBjZsYLM3sNYfvqM4qDnS9fV7Br3mlTawaUCLEMspjNCa1wb2pHsP0pPlr4YB7N3TFlwRUi24ErByCyuAtRS45nUH9vzhZXoyVbtp5QgArA+tAKcWXL0NLDsNXB1TE4vgmtbEErhyE/vV7fou76J0e998CriWaWIRWFPBVTaxCKuUHrCyE3BNGtg3r9YGVtU5+vLq4QBY2dngmjSwlW1g2SlNLPjdvyjuj5WPdH38lj4CVwLWLHA1lk2shdS878Ce9WBxe+eGAeyD8Pt9VgPrNLHYvppEkC3uDuwZQ9rAtqtuG1ps4AYWMmUD+/ltCrBF6Zru2So2sJAF34F96/3awKo6Rx+/52DGBraOJhbBNQ1oAV45pd98E0CAqhC97ae99W9gCWwt0FbQxCLEcsomFgD2kkeLKwAaBrCPz1lwTW1eIatrXjkTB6DKJmD1N7AnDWoD2666bmBBwKpsXhFSPfugyqbGNW5eTbqQKu1vYD+9RQG2KF2wawbg1DaurbCBffsDCrCqztG7bhsIQZUzhlQAU5GpzasA1oo2sLR/Rb/+BoAAVSH6l8v2BcAagyrbb145fVAlpzav+DU3rpzYunKSr99U3FvXGgaw2+apeSUHzSuDrQHZ4u/AfqVfAbZddckBANgmb2CP1Qa2MH1n63TSvLJF62qAFqCVs+g7sO98UAFW1Tk6+qb+nDewCciyszewFmzffrM2sEXpH87f4zWvtIEVdppXzlqaV7bfvAqgvXPHJD1Z/moYwHYv+uBKwCqbWILVyptYYQTWkuDqbmA/fUABtl31g/3zIbQCnFpw9TawCKpZ4Oo4aWAruQN73A79EFdR+trGSQuqDriWaWIFsLrgKptYgFJOD1jZCbgmDey7FWBVHaSXXdsbACs7BFdqYg2wApSKLA2usoHlTJrY99+qG9ii9MwzdrkNrNfEhg0spwBV3z6wltjA+g3s2n3T9GT5q2EAO7SUtK/GMcgmKRvYAGg9kGVj61rLHdgP9SrAtqtO2zffwA2sbGITn7xLAbYofeKxiSo2sAC0Bd+Bfe8afW+7qnP07Ct6MjawwgiyqUBL9ptYAbHSCK+c0h+/U89oFaXfOGV7/RtYgFZMhNd678BuHijuZnrDAHb6sAXXoHklV9W8cgoHoMomYPU3sO/oBqJWtaWO2z0XAKttXhFSPfugyqbtK2e1G9jvdinAFqV3PzwuILVM80oOQDXHDez712gDq+oc/elF+wJgbfQd2M/dU9xppSNZU/PLCawKYI1Ble01sEXege0eXaCny18NA1hUVgObAC2kAVlOgtkUoGXb1pWBViTAa9C8CqB9PVjVnvr8TgDYJm9gv79X38RVlI56YKz8BpbB1gBs2MAGQIutK6ffvHIKI7zyBvbDD2sDq+ocPf08bF6bewf2q6v0TVxFaP/YQvQrJ/rNK21g04AWIZZTGKE1rw3s6GxxZWFDAfbd/RZWLbgSsHILK4C1FLjmdQf2qL1L0YwybFvqI9tmQ2gFOLXg6m1g2Wng6piaWATXtCaWwJWb2Au6FWCL0ovvHUkB1zJNLAJrKrjKJhZhldIDVnYCrkkD+4XHivsUrUrVSE0uLAO4urAqnQ2uSQNb2QaWndLEgk98oLjboEeynuyfBXAlWGVgzQJXY9nEWkjN+w7scoEXSxsKsB8ZTG9gnSa2QXdg0cO6ImhLveup2QZuYCFTNrCX9szT06jyFP7LjvevlW1gIQu+A3vSxuI+RatSNVIHJhfj/Wu4ga2jiUVwTQNagFdO6e8+rC8HKUIr90yZBrbuDSyBrQXaCppYhFhO0cT+9xO30pMVo4YC7GcPIpwCkBpYxbRwilld88qZOABVNsGqv4HFBra7uGmGqkD9+8YZAauyeUVI9eyDKpsa17h5NelCqrS/gb3qgAJsERqZX6bm1TaurbCBPXvrFD2dStXe2n5owcwHAlDljCEVwFRkavMqgLWiDSztX9HnPKK78iJ041PjCawKYI1Ble03r5w+qJJTm1f8mhtXTmxdOcHPOG07PVkxaijAfm04aWCD5pXB1oBs8XdgjwJvm9O3cbWj/vUJANgmb2Bv7NfvforQ3qklt3lli9bVAC1AK2fRd2Av2aU3f1WdoUf656h5be4d2B8/obvyIvTjR0ezN7DCTvPKWUvzyvaaVwbavzp7Fz1ZMWoowJ5ySIIrAatsYglWK29ihRFYS4JruIF9bEYBtt00vxylgyvAqQVXbwOLoJoFro6TBraSO7C3DCrAFqENo4vJZMAB1zJNrABWF1xlEwtQyukBKzsB16SBvXGfXpxQdYbu3TcD4OrCqnQIrtTEGmAFKBVZGlxlA8uZNLFXFPh2piNZ37l/KGlfuYHlRFBlE6i6KUDVtw+sJTawsoF9/vld9GTFqKEAe+Zo0sBmb2ARYDktxJr0QJaNrWstd2DRD0wpwLabRhYOA8DONHADK5vYxHcNLdITqfLU6oMLBmDZcRMbg6xrhNei78De3acf2FN1hm7eOWWaV3az7sBev1V35UXoy3cN5rOBBWjFRHit5w7sKy/ZR09WjBoKsBeMIaQCkBpYxUxcVfPKKRyAKptgNW0De+eEAmy7af/sspkP+MBqm1eEVM8+qLJp+8pZ7QZ21SEF2CJ0S+9cdc0rOQDVHDewDw9p267qDF3x1EQ+G1g2g6rIzA0sJfpWAGlV/vrwzX0JrApgjUGV7TWwRd2BffNV++nJilFDAfby8fQGNgFaSAOynASzKUDLtq0rA61IgNegeXWAdjm6aVwBtt20bXrZNq+igU1z0RvYh0b1hEURunLvrNu8smOgtW7kHditY/rNiqozdN4TY9S8NvcO7D17inu96JGsN13b01J3YD94I8BcgWoowN44aWHVgisBK7ewAlhLgWued2AvH1GAbTetH19KB1eAUwuu3gaWnQaujqmJRXBNa2IJXLmJfRyeQ5W/zt05nQGuZZpYBNZUcJVNLMIqpQes7ARckwa2d1p/rFWdoVMfGgFwdWFVOhtckwa2sg0sO6WJBT+wXz8YWYRecvFeAFeCVQbWLHA1lk2shdQ878B+9tY+erJi1FCAvQe+6Sq/geVEkC32DuxZQwqw7aY7hhcBYBu5gYVM2cA+NalQU4ROfGrKACw7bmJjkHXdiDuwEwv67wlVZ+iTK4ZM88pu1h3YR/v0g5FF6E/O2tVSd2CPv2eQnqwYNRRg18PP2dTmFbK65pUzcQCqbILVtA3s1wf0VVztpsv7FjxYlc0rQqpnH1TZ1LjGzatJF1Kl/Q3srmn9uVOEPvX4BDWvtnFt9gb2WZAqVafojTf357OBRUAVwFrRBpb2r+jNB/WOdhH61RMBSBlWBbDGoMr2m1dOH1TJqc0rfs2NKyc2r5zg8x8+RE9WjBoKsNvh5yw3sEHzymBrQLYxd2A/fkAhpN10Rve8bV5FA5vmojew+GEyVf5650PjbvPKFq2rAVqAVs4i78C+6C595aWqc/RPV/VQ89rcO7C7RvSDkXmrb2LRNq8tdAf2lq0T9HTFqKEA278kwZWAVTaxBKuVN7HCCKwlwTXcwL6lW/8YuN30lV1z6eAKcGrB1dvAIqhmgavjpIGt5A7s4Lz+sXIRetXq0WQy4IBrmSZWAKsLrrKJBSjl9ICVzeDKDexr7iu2QVCpGqk//NE+AFcXVqVDcKUm1gArQKnI0uAqG1jOpIntBdhS5atHe2eT5pWNoMqJoMomUHVTgKpvH1hLbGBlA/v4gWKnIg0FWHxvQPkNLAIsp4VYkx7IsrF1rfUOLHpSi7S20oe2zgLANv8O7NiiAmwRes7dIwZg2XETG4Osa4TXIu/AvuMBfeWlqjM0NrdsWlfpZt2BHZ7R8ihv/WLbhN2/ttAd2INTxX6j0lCARb29D4DUwCpm4qqaV07hAFTZBKppG1j0Pm3S2kpHP2lfI+sDq21eEVI9+6DKpu0rZ7Ub2Jll/XmTt0YXDqdMBso0r+QAVHPawH70YX3lpaoztHV43u5f89jAshlURWZuYCnR0wvaHOWt89ePJKDqAWsMqmyvgS3iDux/gb9f0Wo4wH50MGxgE6Dl5pWTYDYFaNm2dWWgFQnwGjSvDtDafFxfJ9s24tfImuZVNLBpLnoDq//6zV+7J5fC5pUdA611o+7AHvt4sRsulapRuq8bXyPLzWtz78Dq9//567gVB+MGFuE12MCmAS1CLKcwQmu9G9g/O2MnPVlxajjAfmmIwZWAlVtYAaylwDXPO7Douyf1V1K7qHfucDa4ApxacPU2sOw0cHVMTSyCa1oTS+CK7etrH9O3yBSh9YcWSoBrmSYWgTUVXGUTi7BK6QErm8GVG9hTNukrL1Wdoau32LdwNfsO7J9esJeeSJWnPnDTAQJXglUG1ixwNZZNrIXUvO7Avvyi4n+cGw6wpx4KG1iniW3gHVj0taMKsO2iJyeXqYFt7h3YD2zSI9xF6I6++biBZcdAG4Os66LvwJ6zTd8YpOoMnfHIaNzAJk2s3MDW0cQiuKYBLcArJ/slV/XQE6ny1Ksu785vA0tga4G2giYWIZaTgPZ91wPAFayGA+y5owyrAKbcvEJW17xyJg5AlU2gmrWBPXdY/zC4XbTi0GIIqk24A3vsNgXYIoSvkU2aV9u4NnsDe9lu/bFWdYa+sHLI7l/z2MAioApgrWgDS/vXt/28j55Ilaf++ge7E1D1gDUGVbbfvHL6oEpObV7xa25cOfH6AOXX7hqgJytODQfYK8ZtAxs0rwZoIQ3INuYOLOaJgwqw7aJrB/AtXNS8igY2zUVuYL+7Z46eSJWnvr9jJmxe2aJ1NUAL0MpZ5B3Ym7r1jUGqztA7bxsQzWvz7sB+boW+HKQI/ea3ttvmNWsDK+w0r5y1NK9s0bxiIsQW/RIDVMMB9heTDK4ErLKJJVitvIkVRmAtCa7pG9hP6csM2kY/2D9f/QYWQTULXB0nDWy5O7CX9uhbZIrQ8ZumEnBFUHXAtUwTK4DVBVfZxAKUcnrAymZw5QZ2RZ9+s6LqDL3sul4CVxdWpUNwpSbWACtAqcjS4CobWE7bwH73oRF6IlVeGplZAmBFWPWMoMqJoMomUHVTgKpvH1hLbGC5gS36JQaohgPsqhnbwGZvYBFgOS3EmvRAlo2taz13YN8Ff72qPXR8l30LV7PvwN46qG+RKUKfeGwibmDZDtCmGOG1yDuw64f1x1rVGfrzi7vjBjZpYuUGVhhBNhVoyX4TKyBWGuGVk33lZr3skbc2D8wl+9c8NrAArZgIr7XegX2i4JcYoBoOsE/MMawCmApX1bxyCgegyiZQzdrAovUUbHvo49tnLZymNLC2eUVI9eyDKpu2r5zVbGAfHtUj3EXobWvHUiYDZZpXcgCqOW1gt4/rG4NU7a/ZxcMAqgCjbA9YG3kHdsVe/WBk3rpr52R2AytBle01sEXcgS36JQaohgNs10LYwCZAC2lAlpNgNgVo2bZ1ZaAVCfAaNK8O0CZ5QH+Pagu9ZTO+hYuaV9HAprnIDezuaW3ti9C/rLKvkXWaV3YMtNaNugPbN6M/1qr2156xheh/nSeb1+bdgX1qSCdYeevSx0edBhbhNdjApgEtQiynMEJrPRvYXwMYboQaDrDDSwyuBKzcwgpgLQWued+BRW+a1Qq2HVQSXAFOLbh6G1h2Grg6piYWwTWtiRUNrL5GthiVBtcyTSwCayq4yiYWYZXSA1Y2gys3sFP6Y63qAK3pnRXg6sKqdDa4Jg1sZRtYdtjEHprVP8HKW6esGgJwtZDaCndgG/ESA1TDARZ/P2ilKwRH7V2O7tKXGbS8euYOx+1rSZAlF9XAvhzgVpW/uqeXor+/28JrRQ0swCpnUVcIng3/dypVJ+jKpybi9jX/BtaFWHRWA/u78PdQ5a9339CbbF+zGljh7AbWAq0F2dob2Ea8xADVcIBFHTMggLXoBjYG1+wG9rIRBdhW18NjS6XBFeDUgmuxVwjetkHfwlWEHji44IIrgqoDrhU0sASreTWwR63UT0urOkMnrT0kwNWFVekQXAFUMQ2wApSKLA2usnnl3B09+9JueiJVnnr2+XuyN7CcCKpsp3nlFKDq2wfWMlcI3nt9Y15W0RSA/fqwu4F1mlgDsJwWYk16IMvG1rWeKwTYxH7roAJsq+vGQbwBy9cHmneF4JNb9LB9Ebp632z093ePxA0s2wHaFCO8FnWF4GPrxunpVKr21vvvGHQ2sOxGXyF43fXwm7wqd/3Xk5P9a9zEUgObNLEJyEqgNRk3sGSAVkyE11quEHz9rkF6smLVFID9vnkbF4CpcFXNK6dwAKrsGFSzrxB8olc/qNHq+v5+e0LLwGlKA2ubV4RUzz6osmnzylnpFYITdulh+yJ02tapGFiral7JAajmcIXg5I06F1F1hl58TS+AKsAo2wPWRl0h+PAdxb+d6UjTruF5AlWAUd8+qLK9BjbvKwQXPdKYP71qCsBeN+E2sMmUgJtXToLZFKBl29aVgVYkwGvQvDpAm+QbwarW1rG75tzmldMDWXZRG9jzuvUTtEXoP/AGbDUbWAZbA7BhAxsALbaunH7zyimMEHvxLm3bVZ2hZ1ywryWuEHzzft2V563btk+67SvYAq23gU0DWoRYTmGE1no2sCu7GjO1awrArpwWwMotrADWUuBaxBUC9KCe0mppvWOzhddmXyH4aZ8eti9Cr7vfntDKBtcyTSwCayq4yiYWYZXSA1a23MD+8oC+hUvV/uqZWDTtawKuLqxKZ4Nr0sBWtoFlu03sBY+P0VOp8tLpDw6b9rWVrhDsH2vM75NNAdgt86U2sJwIsuIagQeybGxb7QaWjSALCdDKIBs0scLcxG7QU1otqyX4obHNazM2sJCigb3vkH6nk7fwx9e0rzVtYCFr2sBaO02s540j+mOtan/d3zNr29eyG9g6mlgE1zSgBXjlRP9ih34INm996Oa+oIGtewNLYGuBtoImFiGW8tfg79coNQVg8Ras07xCVte8ciYOQJUdg2r2BhZ9x4QCbKtq3+xyicmAbF4RUj37oMqmxjVuXk2KxtUzb2A3TegNw7zVNbWU0rzaxrWZG9ihOZ0Wqdpfl22eSJpXtg+qnDGkApiKTG1eBbBWtIEFr2/A60WPNL3wor0EqgCjvn1QZfvNK6cPquTU5hW/9ppXfAPXs76/i56seDUFYFFvpbdxxc2rAdqU5jUTaCn95jULaBFkHaCl3Gu/vviQ/mbVqlpDJ7Skm7WB7Z/Tb3Ty1io8oWUa2JTmlS1aVwO0AK2cRdyBfTYAsErVCTr+QXtCy21e89zAJiDLztrA7tdXM+eu3/72Drd5hbRA621ghZ3mlbOW5pVtZgTop6I3XrWfnqx4NQ1gPzVIwCqbWILVyptYYQTWkuBaegN70oACbKvqp+aEVhlwBTi14OptYBFUs8DVcdLAlroDi3/crcpXV+ydDcEVQdUB1zJNrABWF1xlE2th1aQHrGzewOoNWFWn6N23DwCs1rqBpSbWACtAqcjS4CobWM7d0eKy/gs0T/WMLxC4lmhgORFU2QSqbgpQ9e0Da4kN7LENvDTRNIA99VDWBhYBltNCrEkPZNnYutZ7Bxbz43pKq2V15v4FAthmbGCTJvZo+O9T5a9Tt0zXsYEFoC3gDqzegFV1il5wdW+FG1hhBNlUoCX7TayAWGmEV86/uHAfPZEqL63YPRX9Krev0tjEUgNb0wYWoBUT4bXaO7A/Wte4b/6bBrA/HkNgBTglV9W8cgoHoMqOQbX0BvZosKo19fmdc27zyilsm1eEVM8+qLJp+8pZyQb2mE0KsEXoo49OJKDKjiG1TPNKDkC1zg2s3oBVdYqeDuCa+waWzaAqMmsD+89XN+btTEeSzn34kAFWC6oAo759UGV7DWyed2BX7GrcB/WaBrC3wD9jqQ2sbGDTgJZtW1cGWpEAr0Hz6gBtksYAsH06z2lJvXXzbNi8cnogyy5iA/tNfYlBIXr1/WPVb2AZbA3Ahg1sALTYunL6zSunsN6AVXWC9o4tJs2raGDz3cCGDWzaBvbDdzTm7UxHkj55W3/YvsZAy80rJAJsGtAixHIKI7TWuoHdO9K4U5NNA9h1wAIJuFpYZWAtBa5F3YFFPzaj+5xW0/wyn9AqA64ApxZcvQ0sOw1cHVMTi+Ca1sQ+PBld3qsvMchbc8uHKwTXMk0sAmsquMomFmGV0gNWNm9g9QasqhN0X/cMgWutG1iyAVaEVa+JFdBqgJUzBtekiT3nkVF6KlVeesVl+yy0IrC2wB3Y/wx/bSPVNIDdC5CevoHlRJBt3B1YBNhbxxVgW01dM8vRPz/hb18buYGFpAb2wRGdmeStnZNL0T/g9rXmDSxkAXdg9QasqhN08cbx6HcQYNnUwLIbeQd25T79U4289YzTdxazgSWwtUBbQROLEAv5V2c37oQWqmkAi+8NiJvXajewMagmDkCVHYNq6Q3s68DnDesHuVpN9wI0GlAVwOpaNq8IqZ59UGVT4xo3ryZTmlcybmD79C5o7rqjb97Aa9i82sa1WRtYvQGr6gQdu2qYQDXnDSwCqgDWSjawQzNaAOSpAxOLpnVFYLWgCjDq2wdVtt+8cvqgSk5tXvFral55A3v05d30dI1R0wAW9f4BaluNEWRTmtdMoKX0m9csoEWQdYCWku7AIsR+sU9/02o1XXhgIXpZ3MAmbvQG9lXwf6vKX2dsxwsE3MCmNK9s0boaoAVo5cz7Duxz4K9XqTpBr76xL6N5zXMDm4As258S/M1FeoEgb926bdJtXbl5jYGWm1dIAtgAaBFiOWtpXtm0gf387f30dI1RUwH2y0MMrhZWGVgrb2KFEVhLgmv5Dewb4H+nai0du2uuMnAFwLTg6m1gEVQ5EVQ5PWC1TaxtW9PuwH78Kf3jryL0gfXj6eCKoOqAa5kmVgCrC66yibWwalIAqzS2r0frDVhVh+gZFwCw1rWBpSbWACtAqcjS4Cob2K7oHTc3FmyOBJ1w30GAVdvAmg0st67SCKqcCKpsAlU3Baj69oE1YwP7w4cO0dM1Rk0F2B+O2va1Fe7AWohdjrob9wE6VQV6w6aZJm9gbRN7xh79UE8Ret6KkTo3sAC0Od+B/bjegFV1gHaMLBh4rXwDK4wgmwq0ZL+JFRArjfCK+e21jQWbI0Gvu2q/gddWugN7547Gnh9sKsDeOoXQCoBa7QaWUzgAVXYMquU3sJirJvWDXK2ioYXDCagKYMWvfWC1zStCqmcfVNm0feUst4H9+YB+Z5O3dkwsWVBN3cCyyzSv5ABU69jAnrxJb8Cq2l8/2zEFcOo1r2wPWIu+A3vrTp1g5a2nfxdfIWsbWAuqAKO+fVBlew1sXndgdw039lJPUwF20xy1rsYIspAGZDkJZlOAlm1bVwZakQCvQfPqAG2SvIHFBvbSEQXYVtHD40t2/xo0sBZiY6BNcd4b2I0AW6p8dXPvXNK8mrQQ6zSv7BhorYu8A3uJ3oBVdYBOWjviNq+igc13Axs2sP4Gdt+YFgB5quvQfPSrJ3mtq7AFWm5eIRFg04AWIZZTGKG1lg1so9VUgB1fZnC1sMrAWgpci7wDi/5Gv36Qq1V0ZT+/QjZx1RtYdhq4OqYmFsE1pYmdWtJvbPJW8grZSsC1TBOLwJoKrrKJRVilFMAqjQ2s3oBVdYLe8ot+Aa61bmDJBlgRVr0mVkCrAVZOAldsX595/l56IlVeun7zuAutCKxNvgP77HN309M1Tk0FWNQxA61zBxYb2HfBX6NqDZ2wZ960r82+A/uWDfoK2SL0rofxA1z1bmAhc74DqzdgVZ2gv7x0v4HXZt+BPfrGPnoiVV768t2DcQPbKndgj/kZgFuD1XSAPWkYALXaDWwMqokDUGXHoFrZBvZ1e5aiIf39qyX0rqf4FbIAoQJYXcvmFSHVsw+qbGpc4+bVZNi8or+yXV8hm7eWD0dJ8woZNq+2cW3GBlZvwKraXQcm+RWyBW1gPWAttYH9+mo9S5e34jdwtdAd2HPWNv7HuekAe/k4t68IsinNaybQUvrNaxbQIsg6QEsp7sCy10/rHxc3W9NLkW1enQ1s4kZuYH/co6+QzVubxhbd5tUkAS1BrAu0rhFaOfO8A/ts+GtVqnbXXXunyzSveW5gE5BlyynBdVsm6KlUeel/fGt7+gYWm9cYaLl5hSSADYAWIZazluaV/fUt0eo9jf+TyqYD7Cr4Zy50A4ugarKyDSw2sNeOKsA2W09OLgO4utBaElwBTi24ehtYBNUscHWcNLD+Hdh7h7WSz1vXdc8m0JoGrgiqDriWaWIFsLrgKptYC6smCVh96w1YVSfozEdGE3BNa2I9YGWH4EpNrAFWgFKRpcE1aWCfGtICIE89NTgnoNU2sGYDy62rNIIqJ4Iqm0DVTQGqvn1gTdnAjs02/k+umg6wexda6w4s5rcG9Y8Qm62fHVyMG9hm34HdO6M/H/LW8ZunqIFtrTuwn1ivN2BV7a8P/HIwbmCbeQf2afC/V+WrKzaMmfa10A0sQCsmwmsld2D/5Iyd9HSNVdMBFrvOqjewnMIBqLJjUK18A/uhHj2Z1Gx9Z998DKkGVAWw4tc+sNrmFSHVsw+qbNq+cmZtYF8K/5kqf71pzVjSvELGoMqOIbVM80oOQLXGDezZW/Vepar99Zwre9KbV7YHrEXdgX35NT30RKq89Jnb+wFSqXltkTuwb756Pz1dY9V0gEV99qCF2KwGNg1o2bZ1ZaAVCfAaNK8O0CaZbGA5l6IpLd2aqg9vm03ZwIrmldMDWXZeG9hjNutN0Lw1s3Q4bF5NEtASxKYDrXVRd2Bv79UTWqr21vj8cnrzyhkDLTWvnMIIrZVvYMMGloH2syvgN3dVrnrhRfuiXxENbJot0HLzCokAmwa0CLGcwgit1WxgT7mvOT/OLQGwZ42kTAbYPrAWfAcWG1jMTbO6g22mzP41jw0sOw1cHVMTi+Aqmthv7VagyVuPjiwmwFoxuJZpYhFYU8FVNrEIq5QErL53jOveWdXeWtM7mwKutW5gyQZYEVa9JlZAKzrZwFpf/KROcvJW+oe3sIm1kOo0sQiqnAiqnDGsyibWQmotd2Bv3dqcD+q1BMDeNIkNLLnJd2A5r9MPcjVNGyeXTfvaChvY6/r1DTJ569I9s6Z9zWcDC5njHViVqt111qNjpn2tfgNbRxOL4JoCtOv79ARhnlq5Zzrevxa6gSWwtUBbvond36Q3rbUEwD4GP8era145Ewegyo5BtfINLPr4ft3BNktVvYGr4Duwj4zpz4O89bkNk27zChk2r7ZxbeQG9o2r9QKBqv31tlsHBLAWtIH1gDVrAzuzqEVQnjrhvoMEqdi4JmlBFWDUtw+qbL955fRBlZzavOLXkE87dRs9XePVEgA7DIzQSndg0W8GyFU1R1/aPZc0r2wBs6WB1jqvDeyhBf0XcN565Wr8AFedG1iAVs687sB+5Qm9V6lqfz3zx90VNK95bmATkGUjxD7v8uZ8sKeT9dJL9iXNa+qUwKYFWm5eIQlgA6BFiOWsoXnFfOWl++jpGq+WAFjUe/oSYK28iRVGYC0JrlVsYKmF3T2v8NIMHbURoRUAtcl3YPUVsvlr//SyAFdhAawmEVQdcC3TxApgdcFVNrEWVk1S8yp98S79wJ6qvbXx4HzGh7dq3cBSE2uA1cJqZRvY3dEn79YPcOWpmYXD5sNbxjG0UhNrgBVh1TOCKieCKptA1U0Bqr4FsFonTeyxdwzQEzZeLQOw3xhyt682LcSa9ECWja1r3ndgOW8ZV4BttLYD4PD+tdkb2G936Qe48tbtffPRP9xj29d8NrAAtDndgb1/UA+uq9pbF20cj37nfNu+Vr+BFUaQTQVast/ECohl6xu48tUdOyad/WvcxMYwK4xNLDWwNW1gAVoxEV7L3YG9asMYPWHj1TIAezXAYsXNK6dwAKrsGFSr28CiT9MXGjRc1w8ulm9eOYVt84qQ6tkHVTZtXznTNrB3Dukn0vPWaVunk9aVm1fIGFTZMaSWaV7JAajWsIHt0xdWqNpcH7prMIFVA6wFbWDZBKtpG9ieCf33Z576EvzYJpBKzWsuG1gA1DINLIKqBVZqXkUDu3mgeUVPywDs4/D/g6wGNg1o2bZ1ZaAVCfAaNK8O0CaZbGA5LcC+F/5eqsbqxL3zbvPKNgArmldOD2TZeWxgB3VCkrs+sH7CNLB1b2AZbA3Ahg1sALTYunJ6zSvegf2nu4bpCVWq9tWzfrLfNLAIr+lTAut8N7BhA/ucy3T/mrd4/2qaV9HAptkCLTevkAiwaUCLEMspjNBayQb2VwB6m6mWAVg8u8rAWnETK43AComQmt7EVrGBpUQf0CtKDdU7nuIXGACgNvEO7Due1P1r3pqH7weff68EV2EBrOngWqaJRWBNBVfZxCKsUor2Ff2+tc37YzCVKg/tGVssAa61bmDJBlgRVr0m1gNXbmI/c4/uX/PUoZml0uCKwHqihVSniUVQ5URQ5YxhVTaxFlKruQP73POa+6rglgFY1OfxjVwtcgeWgXbFpLZwjdJe+C4G4fWfNzR/A/vdPbp/zVv4AgOzf811AwuZwx3YUzbpK4NV7a3rtk3a/ev5+2rcwNbRxCK4CqC9AZ5FlZ9+tmUCwHW7gVdphNdm3oH9wu399ITNUUsB7I9HAUYral45Ewegyo5BtfoNLPqcIZ0RNEq3D9P+tZrmtaA7sHfr/jV3XbFvNmlcZfMKGTavtnFt1Ab2Ong2laqd9bmVQwmoxsBa0AbWA1Z/A9s3qf/+zFO4f3WbV2xck7SgCjDq2wdVtt+8cvqgSvabV74De0uT3sDFaimAfXAmpXnNBFpKv3nNAloEWQdoKbFtNekBLcArntP6aI/eg22Uzty/EDavbAGzpYHWut4N7JDuX3PXcZum4ga27g0sQCtnHndgHz+kWyFVe+sF1/RSA2vhtXTzmucGNgFZ9Iuu7KEnUuUluX+Nm1cHaMnYvEJaoOXmFZIANgBahFjOKppXBtqJueYWfC0FsPhCg/Lg2rg7sOxRZdiG6CPbZ037asEVADWPDSyCaha4Ok4a2Pdv0nugRehNa/EFBocq28AiqDrgWqaJFcDqgqtsYi2smvQa2El9Y5CqjTU0s5Q9GTBZ6waWmlgDrBZWy21gP3+vvpI5T/WMLybgyo6hlZpYA6wIq54RVDkRVNkEqm4KUPUtwNX6qeh55zd3/4pqKYBFfXSAdrACZE16IMvG1rWoO7AMtGun9De3ojUwf9jZvrKbsYE9Y6/uX/NW78xysn/NdQMLQFvnHdhX3qevkFW1t27rmrbbV2pgEWIzgVa4iDuwN23X/WuesvvXpH2VRnht1h3YL9/ZvBcYsFoOYM8eASAt17xyCgegyo5BtbYN7Ov2LEYXDusOtmjdO7JEwApAWq555RS2zStCqmcfVNm0feWUG9gVw7rfylt39uMLDBBSPSOgQsagyo4htUzzSg5AtYoN7CfWj9NTqlTtqa8/cMgF1RhYC9rAsgla5QZ2cFr/yDJPfQFAMbw+QM1rLhtYANQyDWywgYW8owW+UWk5gL1zKmxg04CWbVtXBlqRAK9B8+oAbZLJBpbTwitPCT4O8KwqVqfvn0+/PsA2AMtpITYG2hTXs4E9tKCNe946ecu008DWvYFlsDUAGzawAdBi68oZA63dwH5/m55MU7W3nn91sn/N3MByxkBLzSunMEJr5RvYpIH9l2vhN29Vrvq78/aEzStnDLSuLdBy8wqJAJsGtAixnMIIraU2sHj/dWah+VzUcgDbvWDhNQtcG30Hlj2gpVyheueW5P5rxU2sNMCpBVdvA8tOA1fHton9yFO6fy1CRz04RuBa4QaWHUNrmSYWgTUVXGUTa9tXk6KBvb1XJyOq9tWesQU7GSgJrrVuYMkGWBFWvSaWwJX9tVX6QpA8tWrPdGXgisB6ooVUp4lFUOVEUOWMYVU2sRZSK7kD+88X7aUnbK5aDmBR7+7jBrb5d2AN0ILvmtBWrig9Prls21duYJt4B/bcbn0fft5af0jcf2XHDSwngiwkAWwAtDHIus7jDuzOCf0jT1X76uJNE9S88ga2eXdgb945RU+lykPH3Xsw+i8n8/3X1rkDe9zdg/SEzVVLAuypwymg2qQ7sLiBxTxtQGcERenivoXam9ec78CuBNhS5asf7poxgPoPsnFlI6BChs2rbVwbsYFVqdpZ7759IARVtt+8sn1Q5YwhFcBUZGrzygnG7evT4H8entFvBvPU8y7ca0FVAKs1Nq5JWlAFGPXtgyrbb145PVBl+xvYu3e2xgf1WhJgfwb/v4mbV3YAtJR+85oFtAiyDtBSYttq0gNagFZ5TuttAL2qYvSJHXNuAyubV7aA2dJAa13LBvZlkGN6Til3vW/9RNDA1r2BBWjlrOcO7JvuH6WnVKnaU398cTc1r4kDoKWmlZ3vBtZC7OtuOEBPpMpDD/fMRL96MoBr3MAmRmh1gZaMzSukBVpuXiEJYAOgRYjlrKB5RYj9rVO2RfNLrfH7ZEsC7NZ5C7Dp4Nr4O7DGXYvRplmFm7y1Z5bmA6KBramJBTi14OptYBFUs8DV8WT0qa26f81buyaXCFoPEbi21h3YrzzR3DfJqFT16N7uGQutAlgDcDVZ6waWmlgDrBZWszawJz14iJ5KlYdOXT0Ugis7hlZqYg2wIqx6RlDlRFBlE6i66cGqdNzAboled3k3PWHz1ZIAi7IbWAuxlW1gEWBFCpANgFa40g0s5jUjCrB562cHF6OXc/sqGlh2IzewF/bo/jVvXdM9Fz17hdu+GscNLCeCLCQBbCrQphjhtZ47sBfv1m9aVO2rE9aORE+X21duYQXIBkArnOcd2Du79JpHnnrZpd2mfU02sKERXht9B/bbq1pndtWyAHvSkAeqTbwDi/narsXoSwd0RpC3vt5l5wNVNa+cwrZ5RUj17IMqO2UDu1ZfuZa7PrdhMmleW/AO7P2D+k2Lqn31qhv7DLAGoMr2m1e2B6z13oF9Bvw9R2b1cyJ56cn+WRdUBbBaU/OaywYWALVMAys3sKv2tM4H9VoWYG+bLH1Oi21bVwZakQCvQfPqAG2SyQaW08Jr2pRAz2nlp5HFw9FrNs4k7atoYNM3sJwWYmOgTXG1G9hXPTYVTej+NVcdmj8cvfC+Ubd5Jde9gWWwNQAbNrAB0GLryhkD7XA0pjd/VW2qPWOLYfNKDoAWm1bOGGipeeUURmitfAO7J3rTz/voqVR56Iw1h2zzmrWB5YyB1rUFWm5eIRFg04AWIZZTGKE1bQP7jO/siJZb6F+ZLQuwPQCKuWxg2dVsYCkddy2Cl6IVek4rN5m3b8XgWtAGlp0GrsLHbp+lp1LlJfv2LYbWKjew7BhayzSxCKyp4CqbWNu+mrxtKHrDav0Al6p9deUWPp9lYbU0uNa6gSUbYLWta9oG9rsP6+uY89S/XYHzARdaS4IrAuuJFlKdJhZBlRNBlTOGVdnEWkgtdQf2rdfspydsDbUswKI+NtA6d2AZZM8+qH9MkpfO2L9g4DXYwHIakKU04Oqnhdc8NrA3DCzQU6ny0slb7du3it3AQtZ4B/aUzXqzUtW++uS9QwCt+1I2sJACZAOgFc7rDuyj/foykLy0Y3jetK+2gZUb2JQmFuC1kXdgf7C2tT6o19IAe+GoANUm34HFDSy2sB/s1p1kXuK3byGw1ty85nQHdr/ut3KXffuWbF4RUj0joEKGzattXIvcwN5xQH/TVbWvnn1lDwErQKgPqmy/eWX7oMoZQyqAqcjU5pVSXx+br85bPxKCKmcMqdi4JmlBFWDUtw+qbL955eTG1TNvYDcPtNa/M1saYNfNljqnRek3r1lAiyDrAC0ltq0mPaAFaE0/p7UUrZvWGUG9Wju+5DavbG5cRSYb2EqA1rqaDewXdD6Qu+4/uJDevJLr3sACtHLWegd2QL9pUbWp7to7Ez39Ar95TRwALTWt7Dw3sKc9pPOBPHXU1T1mPlByAwvQ6gItGZtXSAu03LxCEsAGQIsQy1mieUW/6MI99ISto5YG2An4/SUE1+bdgUV4xSb2B0P6G1+9OmP/vAeuBW1gS4Ar+6f9Oh/IW6dssfOBxFVuYBFUHXAt08QKYHXBVTaxyQb2qFX6m66qffXFVcMutApgDcDVZK0bWGpiDbDa1tVvYtf3aQGQlzYNzCXb14wNrHEMrdTEGmBFWPWMoMqJoMomUHUzgdXAx22Jjr+nNV4fK9XSAIs6Yah17sCy39O9FE0rw9asqaUoevNTs3ED2+w7sPtm9AczT00uHo5eef9Y3MC24h3Y455sjVchqlTVamJ+Ofrby3uogU3bwJYBWuF678C+XOcDueq7Dw7H+9dwA5sCtACvjboDu7Kr9T4z0PIA+7MJAtUWuAOLLSwmeuWkzghq1T3y+gC5quaVU9g2rwipngWochrT9vVz2/SQfd66o09eH7BGQG2lO7A/69bWSNWeunHHVAKq5ABU2X7zyvaAtdY7sKe22Id62l0vuWRfZvPKwGpNzWsuG1gA1DIN7J+dtZOesLXU8gC7jV8rS42rb9u6MtCKBHgNmlcHaJNMNrCcFl6zNrCY3xnU1q5WnbzPzgeq38ByWoiNgTbFlW5gr9X5QO766qap6B9WZDSv5Lo3sAy2BmDDBjYAWmxeOcF78Y8BVKo21EfvORj9zgX7qt/AcsZAS80rpzBCayUb2Id69RvBvLS2eyZsXrM2sJwx0Lq2QMvNKyQCbBrQIsRyCiO0yg3sx3/Rmnd+Wx5gUR/uF8Da5Duwtoldit64ZzE6qC81qFqDC4ejV/svLzDgWtAGlu2BK+9f9+h8IFfhB6NekPrygio3sOwYWss0sQisqeAqm1jbvur+VdWuOjC5GD3zou4AWM1koCS41rqBJRtgta0r50uv1vlAnvr6ioMGWP+LgVaygNaS4IrAeqKFVKeJRVDlRFDljGFVNrEWVtPuwF6/aZyesrXUFgD7A/j9hgHWN7atjbwDmwDtUnT7uM4IqtUvhhajlz9p96+ZG1hOA7KUBlz9tPBa6wb2M9u0Pchb1/fMRc9eMWra18ZsYCGr3MB+5Qndv6raU5dtnjDNKzt9AwspQDYAWuF67sCevEbnA3nq7y/YEzewQRNrwDWliQV4LfoO7G+duj0anm7NP7FqC4BdMRV5zStn4gBU2TGo5ruBRX+zT/8Yslp9pWsugVUBrDU3r3Xcgb26T+cDeetTAIc4H0hgVTavCKmeEVAhw+bVNq5FbGCv3qvfuKjaU++4bYAg1XUAqmy/eWX7oMoZQ6rdvpa6A7umR38d5aVf7pwEUAUYrbh5xcY1SQuqAKO+fVBl+80rp9e8ot/cYm/fkmoLgO3D18r6zSun37xmAS2CrAO0lNi2mvSAFqA1cwMrpgT75rWFrVR7Zw9HL39yxhihtfoNbCVAa13JBna3npLIVbunlpLmlTMGWdd1b2ABWjmrvQO7bVy3P6r207ZDC27zahIBlrME0FLTyq53A/viq3roqVR56NO3D0T/5RTZvLbOHdjz17Xu5KotABb15UEG1+bfgZVN7PWjCkGV6prBxRLgWtAGNgVcMT+1Va8P5K3L9s6WANcqN7AIqg64lmliBbC64OpuYHX/qmpX/eDxMQOnCbgKC2ANwNVkrRtYamJFA4t5woM6H8hLk/PL0R+dvUsAK4FqRhNrHEMrNbEGWBFWPSOociKosglU3UxvYLcdbN03FrYNwF47nr6Dxda10XdgLdBaH3tAZwSV6lO75qmBLbOBFS5qA3ulzgdy1wcfnaAGtpEbWADaKjawX3ligp5WpWovHfXz/riBZadvYMsArXCtd2Dv368FQF66fvO4bV9FA8tu9h3Yl120l56yNdU2ALsdz2kZYAUg5RQOQJUdg2r+G1jj3YvRkzM6IyinJyaX4+lAmqtqXjmFbfOKkOqZgJWbV7N/Be/U+UCueuTQogVVtgesCKitcAf28i79jVfVfnqwdza9eSUHoMr2m1e2B6zVbGBfeKXOB/LU22/oNW1r8zawWzM3sCfde5CesjXVNgCL+gLNCPwG1mleOQFeg+bVAdokkw0sp4XXUndgX0sNLELsuQcVhsrpzJ4F27xSA4vQWv0GltNCbAy0KS61gf2EXh/IXadunXabV04PZNl1b2AZbA3Ahg1sALS4f4V8YkT3r6r207Grh93mldMAbAi2AdBi08oZAy01r5zCCK1ZG9jjH9D5QF5a3zOTtK+igW2VO7AP7J2mJ21NtRXAXjUGYNoid2BlA/sWvQlbUnj79XWbLLxmg2tBG1g2Aiy1r5cf0PlAnuqfXY5essrCa24bWHYMrWWaWATWVHBNmljdv6raUb2Ti9GfXtJN4FpiA1sSXGvdwJJFA7uqW/8UIy997pf84a3kQ1utcgf2r7+/m56yddVWALtlLuUawX7IuIVlsIUEaGWQDZpY4Xo3sNzE3qgf5srUdUD3tn1NGtiSG1hOA7KUBlz9tPBa7QZ2+5T+WOWpK/bh7VcA13u5gW3NO7Bf2aD3X1Xtp/M2jMfNq+/0DSykANkAaIWrvQP7TzofyE3dYwvR00/fGf0at68GZF038w7sF+4YoCdtXbUVwKI+OyBBNXEAquwYVIvbwKI/3aMf5srSx3bY26+pG1gC1pqb1yrvwH5crw/krnevn0iaV3YMq7J5RUj1jIAKGTavtnHlzGMDq/tXVTvqlTf2UfOKcJruAFTZfvPK9kGVM4bV9A3s11cP01Op6tV3HxwGON1mwLX65hUb1yQtqAKM+vZBle03r5zUvqLv65qiJ21dtR3AXj5GzatoYJ3mNQtoEWQdoKXEttWkB7QArZXcgbUgCwkQu3ZKP8zl64GxJbd5NWmhtfoNbCVAa521gb1M5wO5auXBBdG8Ji58AwvQylnpBvaRYf2xV7WX7tgzHT39RxnNq0kEWM4SQEtNK7vWDex9+/SbwDy0sHzYvnkLW1fpuHlNJgXNuAP73PO76ElbW20HsJtoRsCgGhuBtSS4VrGB9aEVLYDVaWKpgUWfNqAtrK+T9/HprHLgWtAGlsCVm9itOh/IVV/dNFUhuFa5gUVQdcC1TBMrgNUFV9vE4v51Hn7TUKnaSR+95yBBa7J9TcBVWABrAK4ma93AUhN7Tlf03Mtb941M7aYrNox54CqBlUCVU9jcgEXH0EpNrAFWhFXPCKqcCKpsAlU3k/b1pPta+/oAq+0AFvXpgbQNLAKsSAGyAdAK57WBNRALuVffzBWry7x5azZ6xUa/gS2zgRXOcwP7ue16fSBP7ZpcMu3rc4LtayM3sAC0FWxgv7JB77+q2ktb8c1bP9oX/W5KA8tO38CWAVrhau7AnrxGrw/kpddctT/evla+gU0BWoDXIjawjx1oj98r2xJgLxsNG9gAVNkxqBa7gX0N5eWHtOFjXdKPH95CYAUIRVClTHNVzSunsG1eqW2VpuYVN7C36amIXHXe7pkEVEW6G1hrBNRm3oHV/auq3XTa+tEEVLOuD5ADUGX7zSvbA9ZKNrBPDc3Tk6nq0T27p9zmFdJOBgBG2T6ocsaQSs1rLhtY9w7sv1y6j5609dWWAPukuEZgW1fRvHICvAbNqwO0SSYbWE4Lr5XegeUNLPpD3UuRlrBRNAcc/55tc7Ztlc0rJUJr9RtYTguxMdCm2N/Avn3TTDSr31vkprll+PW3dtzuX9OuD3B6IMuuewPLYGsANmxgfaDV/auqnTS7eDh6/jW9dv+atoHlNAAbgm0AtNi0csZAS80rpzBCq5wSfPiXg/Rkqnp1zM19Blqd5pXtN68GaMMGNvOcFtkCLTevkAiwaUCLEMtJ/v7a9mna2xJgUZ/oZ1glI7BCIqSmN7FVbGApHQOoMrAm4GqhVRqb2DvHlZRuG5Yf3kqcDa4FbWDJF/Vqe5CnbuqdA3C1kCqd2waWHUNrmSYWgTUFXLGBPXr1aPTBh8eiY8CYxg+V9gfW+h4VCV5j/X6Rxg+KFH4f5wP26/c9MGK/Nil8v/V7s7za9XviPGS+fs8qyBS/m3NlGd9n/a77hsGc4HtFCr+Tc4X92mSK33HPUPTOe2ym+m7Xb/d9l++DJt9m8mD0tjtL+62/hARjoltdV22d9MCVGtisJhaBtSS41rqBtf5lV2sftG8XbeifzQDXZANbXRNLRmA90UKq08QiqHIiqHLGwOpuYP8zeNdw+/xe2bYAe/Gov4FlI8hCArQyyAZNrHDeG1jMz/fqh7k+sWvebl/BdgPLRpCFBGjN3MByGpClNODqp4XXchvYl4H3zug3FXnqfY9M2O2r3MCmNbEAralAGzewnAiykASwAdDGIOu6mjuwFmhd21fMQt42lOq/uRUSjOn4loPgoeivOX9x0HxtUvivbk7S8c8HwQejvzQ5aNL4Jtd/wfkz9oDIgejPb4QEYzq+wfrP4uw3X//Z9ZDXc/ZHf8r503T/yXWQ4D+5rs98Hee1kOA/5rzGfm1S+I+u5jxgvrYJvsr6/4g0vtL1M6/stXlFb6r/8HJIMKbjn/SAe6M/EGl8mXWr6zU39dvtK7j6DSykANkAaIUruQP7qusP0FOp6tVnfzkQ/dqpOwzEVr+BTWliAV7z3MC+6er2+qBe2wLs47MMq9YBqLJjUG3MBhYTfc/EkQtMd41g+2obV6d5pXRMwFpz81rBHdhTuuboyVR56Na+eQuoooHN3sDK5hUh1TMCKmTYvNrGlTOPO7D4NaaxD6qcMaQCmMYJEGpA1WYMqgJY/ypOAFLMmyGFA1BlI6BC/sVNAwSsAKQGWC2gxqDKmQarYATUBFSFfVBlx5DaZ0HVJMJpumNQZV9zIEkEVJMAo2wGVXIAqlcBmBpgtWlBFWCU7YMqZwypAKZxWjhFaI1BlU3A+r/j3G++bmX9dPtkCKqmeUU4TXcAqmy/eWX7oMoZt67JBvbCDWP0ZKp69NTgXPTfv70jgVU0Nq6Q1Tev2LgmaUEVYNS3D6psr3nlDeylj43S07aH2hZgUZ+JX2ogmtcsoEWQdYCWEttWkx7QArRWewdW+tgjuIX9zO757OZVAq0EWTY3riKTDWwlQGstN7APjWkjnqc+9Nhk0ryyCWADoI1B1nXdG1iAVs5K78BKO81rGtACvJZvXgliBcgGQBu3rgiySSK0ZgKtAdkkE6BNEqG1NNBCGqAlE8AGQIsQyymc3rxaiHWaV7ZoXROgTWleM4GW7DevWUAL8OoCLduCbQC0BLDsVtbrfzGQNK9sH2ixeTWJAMtZAmipaWVXuoH9y4u7o4PT+u/PPHTs3YPRr5263RihtfQGNpkUNOoO7NO+vT0anGqvDzq3NcDeOC5aWATWkuBaxQbWh1a0ANasO7DouIndtRitnDjyPs117+iSOJsVOhtci9nAfmKbns7KU7/snydwBUAtcgOLoOqAa5kmVgCrC66yiQUo5fSAlZ2Aq2xgGVwBSkWWBlcJrInLgys1sQiq2MYaYE2c2cSKBtZpYhFU05pYD1jjJhYgNQFXYQGs6eDqNbEesLJDcBVNLMGqSQTVNHDldBpYSAGsAbhygrmJbVXdtHMqmQw44JpsXxNwFRbAGoCrydo2sF+/X9+8lYd2DM9H//O7O0NgZTvASqDKKWxuwKJjaKUm1gArwqpnBFVOBFW208Da/MDP2m8q0tYAOwjfGL6jt7XuwEqY/eqBI+871y902e0rG1vXBGhFArRmbmCF693A3jSop7Py1Mcen4yec59tX4MNbAvfgU2Alk0NLKcPswiyDtB6NiDrbWBTjBDL6RigtaU3sNjAGqC1X1uQLdHExiDr2t3ACguQdYCWGtigiRUQK43w2kkb2DffOgAA220gtvYNbBmgFS53B/axfp1f5aGv33vQbl9NA1vrBjYFaAFe89rA/uypcXra9lFbAyzq/BELrQGosmNQbewG9jW7FkwL+8DkkbOFXY2vjd0IQJrSwBpQpUxzVc0rp7BtXt396xufnI7GF/WmWV5aMYivjQUglWZQFeluYK0RUJt5BzZuXtkesFa9gWUzqMYJQGqA1TauTvNK6RgBFbJ5G1jrqjewbL95ZXvAakCV0lo0r5Bx88r2QZUzhlRqXk1aOHWaVzYBaztsYG/totfGpgBrM+7Avue2AXoyVT3aO7oQ/d4ZO+PpgGNsXiHtZABglO2DKmcMqdS85rKB3Rr98Zk7o7k2/L2y7QH2KfgGMdzAug1sDLIO0CaZbGA5LbzWcgfWB9pvHEEt7Ff2JO1r6Q1sY+7Ant+jp7Py1Kc2TIbNK9sArGheOT2QZde9gWWwNQAbNrAB0GLryuk3r5zCCK/pzau1BVqbEmQDoI1bVwTYJBFa69rAlgVaSAO0ZARYToJYkwiwnBJoK21e2aJ1TYCWm9ewgTVAG8OssN+8GqANG9gQaF1boPWaVwG0rah33D4YNq/sAGgpDcCGYBsALTatnDHQUvPKKYwQ+/OdU/Rkqnp0wqohal4TI7SW3sByArimNLCZ57TIFmi5eYVEgE0DWoRYyM/e3k9P215qe4BFnXiQgLVkE1vFBpbSMYAqA2sCri60SnDF9pX90FTnt4Brxmn7unEmZTKQOBtc89/Abp/W01l5adXBBQLWkThlA1seXKvcwLJjaC3TxCKwpoKrbGIRVik9YGUn4CobWITWpIGtfgPLaSG1MnAFQI3BNXH2BtZm0MQiqKY1sR6wNm8DSzbAirBaaRMrG1hIBNa0JtYD11bdwN65d7oMuFIDm9XEIrCWBNfqNrAvvaaXnkxVj3onFqNnnr27AnBNNrDVNbFkBNYTLaQ6TSyCKicCK6dpX9G2gV23vz3fVNgRALtymlvY9AY2aGKFi9zAGpAFn9jX+S3scXvno1dsSrav7GbdgT1+t2638tTnNk7Z7SsbINZpYhFcOfUObGyEV07HAK16B9bCq25go+i9dx6MfvdC3r7Wu4GFFCAbAK1w1h3Ycx7T01l56Fv3D0f/9Vti+8oJ0Fr9BjaliQV4rXcD+54b2veblY4AWMTDT/RlNa/WzdrAcv6yg9/OdTfefeXmtdoNLAFrzc1rxh3Y1SP64a28dFv/fHrzKhrY7A2sbF4RUj0joEKGzattXDn1DixlGqyCg+aV7YMqO4ZUal6r3cBi08qJgMrNK5tBlRyAqm5gY/Fbt9KbV+tG3oH9I/jv75nQf3/Wq8f7ZqPf/I6F1gBU2di4QlbfvGLjmqQFVYJUaQGqnMZiA3v3rkl64vZTRwAs6qfmpBY3sBZeg+bVAVpKbFtNekAL0FrPHVh/SnDMvsXoUAf+O2EWuPwjO93LAxZkM5pXCbQSZNncuIpMNrCVAO109OGtejorL80sHY7esX4iu3llE8AGQBuDrOu6N7AArZx6BzZ00rySCWADoEWI5RRurQ2sC7MMsi7Qsi3YBkBLAMtuFQ1ML0X/dO2B6HcvBICNG1gLsSWBFptXkwiwnCWAlppWdqkN7BdX6umsPPSunx3wmtfECK3pQGttgdZmkXdgj7qyvd685atjALYP4PCtPRZS08G1ig2sD61oAayV3oF1vRD96GDnTQmuGFj0wHWGwNWCqu9scM1vA3vdwAI9napeXbRnlsA1aWCDJlY4tw0sgqoDrmWaWAGsLrjKJhaglNMDVnYCrrKBZXAFKBVZGlwlsCYuD656B9YkgmoauHI6DSykANYAXDnBrbaB/caaQxZeBbCaRFB1wDXZvibgKiyANQBXk5VvYNf2agFQr658ciyAVgbXVDvASqDKKWxuwKJjaKUm1gArwqpnBFVOAlfZwN6wuf1OZ0l1DMCizj3UghtYgFdO9OPTnfOBrr2zh6Ojn5qL/oW3r2kb2Cc5EWBFArRmbmCFq93AHgV/j6EFPZ2Vh7qmlqKX3T8W/SO3r9IAsU4Ta8DVTwuvqUAbN7CcCLKQBLCpQJtihFe9A+vBLBoglhvYBGi5ieUEcM0CWmxgDdDary3IlmhiY5B1rXdgs7W6Z9a0rr+HzavTwNa7gS0DtML+Hdi3/qI9P43eShqaXor+/kd7afu6I8cNbArQArzWuoF9yUV76YnbVx0FsMBJCah6wNrsDeyrd2IuRF/t7Zwdwek9Cwmo1rqBJVfVvHIK8wb27G49nZWXTto6HQNr0Lx6DWz2BtYaAVXvwNp0jIAK2bwNrLXegW283nIbvrQAwRUgVACr27xaN+oO7HVb23cP2Sr62gp8acF2xwZUKR1j8wppJwMAo2wfVDljSKXmtY4N7MWPjtATt686CmBRxw/SFhbgNX1KYB03r2wDsJwWXvO4A8vNq/TPR9v/A10PTyzb5pVNIJsALaVpXRlok0RorX4Dy2khNgZa4U1H0IsjitSDwwuVNa9sA7CcFmJNeiDLrnsDy2BrADZsYAOgxdaV029eOYURXtObV2sLtDYlyAZAG7euCLBJIrTWtYEtC7SQBmjJCLCcBLEmEWA5JdBW2ryyReuaAC03r2EDa4A2hllhv3k1QBs2sO1+B/bCjRPUvLIRZFOaV3YAtJQGYEOwDYAWm1bOGGipeaX8p6t6ovkl/dOrenT/vmnbuIK5ga1tA8sJ4JrSwGae0yJboOXmFRIBVgDt353b1RE/1h0HsCumLLzG4MquZgNL6RhAlYE1AVcXWkuDa9LEvmPPYtTb5n/M/UV8ZWwquM4QuEpgTZwNrvVvYL+6S09n5aWPP0GvjA3AVe/AVr+B5bSQWhm4AqDG4JpY78BSpm1g05pYD1xbYQPbNbYYPeuKHoJWsgDWdHClBjariUVgLQmu5Tew31s3Sk+oqlWvv7ZHTAZCI6Smg2uyga2uiSUjsJ5oIdVpYj1w5Sb2jAc744N6HQewqC8OtNAGltMD2jMG2vcDXTcMLZn29V82zRmILbmB5fSbWIDWzA0spwFZSgOuflp45Q3sw2NHzlvPitRV++eif1w5aozwWvEGllPvwMZGeOV0DNCqd2AtvB5pG9jPrBw27Ss3sPlvYCEFyAZAK8wb2Gdduj/qn9J/f9ajc9aNGHiVzncDm9LEArxWu4F95hm7ooMd8mPdkQB7z+ThAFhbZQOLyb65DacEG6aWo1duBihFWBXAWvMGloC15uaV7sB+Q19ckIseHVmMnkfgKp3avIoGNnsDK5tXhFTPCKiQYfNqG1dOvQNLmQar4KB5Zfugyo4hlZrXajew2LRyIqBy88pmUCUHoHqEbmAv2jSRtK7cvEJmN6/WRd+B/R7Al6p2rd43Hf3GaQSo3wJT48oOQJWNjStk9c0rNq5JWlAlSJX2mlfM41ccpKduf3UkwKK+RC2sA7IO0FJi22rSA1qA1jzvwPpGgH095OaZ9pkSALtGn9w97zavHsgmQEvpN68SaCXIsrlxFZlsYLOB9tFxbQ/q1dTi4ej9j01W17yyCWADoI1B1nXdG1iAVk69Axs6aV7JBLAB0CLEcgq31gbWhVkGWRdo2RZsA6AlgGU3Q+v656JnXrI/+r0fy+aVjSCb0ryyfaDF5tUkAixnCaClppUtN7B/eUm3tq91aHxuOXrpZd1u88ppAJYzMUJrOtBaW6C1mecd2N+E/+5dw53zQeeOBdj7pqiFRVA1WcUG1odWtADWWu/AcgP7GtHCfn7/onkZQDvo+wcWKgDXGQJXC6q+s8G19g3sSXu0fc1Dp22fKQGuegeWgbUycJXAmrg8uOodWJMIqmngyuk0sJACWANw5QQ3awM7Dd8cHv2LAQOqyWRAWACrSQRVB1yT7WsCrsICWANwNZm9gf3eet2+1qPP/HIAYHU7get2A68+sLIDYGU7wEqgyilsbsCiY2ilJtYAK8KqZwRXTvBnbu+sM2kdC7Corw5YiG3qBhbgldPxTmuE2PPb4AUHt48sRf+yeQ4MAItpQLaCDeyTnAiwIgFaMzewwpVsYDdM6OWBenXzgfnoH1eO0fbV3n6tegOrd2ADI8RyOgZo1TuwKUBLDWzQxAqIlUZ4bYcN7HFrRkzzGhsgtrgNbBmgFf7jH+/T9rUOXbZhLPpv306aV9/5bmBTgBbgtdIN7H+Fv/6Jvs56SUVHA+xqbGFjUG29Daz03eOtC2E7Z5ajN2yhFxb4ZlCtdQNLrqp55QR/S9vXurVtYil6xQMWXgNQJQfNq9fAZm9grRFQ9Q6sTccIqJDN28Ba6x3Y4nTd9ikDqHY6QKAqm1fIGFTZPqhmXR8gB6DK9ptXNrevun2tWRv6Z6NnnLXLAqrTwIJF64o2oErpGJtXSDsZABhl+6DKGUMqNa9VbGC/fNcAPXnnqKMBFnXcoD8lYKBNMtnAclp4LeoOLBqhlRvYV0O+A/4+XXOtuYf98t4Ft3mFRHgtPSWgNK0rA22SCK3Vb2A5E6DdjMNcVV365JNTSfNKidBa/QaW00KsSQ9k2XVvYBlsDcCGDWwAtNi6cvrNK6cwwmt682ptgdamBNkAaOPWFQE2SYTWujawZYEW0gAtGQGWkyDWJAIspwTaSptXtmhdE6Dl5jVsYA3QxjAr7DevBmjDBrZd7sBuGV6I/hb+GZz21YBs0sAmQAspQLY00FIagA3BNgBabFw5CWj/AP6+2r7WrqPwZBa2rykNbKvdgf3D03dG+8c67xXrHQ+wD04zwFaxgaV0DIDJwJqAqwutpcFVNLHUujresRB9dN9itH++tSD29F6EV54MAJSKTAfXGQJXCayJs8G1+g3saXv1rVv16vgt0wSt1uXBVe/AVr+B5bSQWhm4AqDG4JpY78BSpm1g05pYD1wbuYFFOHzNz/s9cK1wA8uOoZUa2KwmFoG1JLiGG1jdvtauT+Pu1QHXpIG14Lo91Qip6eCabGCra2LJCKwn2tbVaWKxgYX83gOdcffVV8cDLOqb3MI2YwPL6QNtvIHltCD7MYDY6RYpFX/Uv2jg9V8RYH0bkG3uHdjtrfL/qDbVqdtnon9cNRY9F2zb16SBrRxoKRFcOfUObGyEV07HAK16B9bCayduYGeXDkdvvm3QQOvvX5QAbGyA2OI2sJACZAOgBT8dvtb2tTZ958FDZvdqtq+cCLEO0Frnu4FNaWIBXsttYJ9z/p5ops1fnJSlIwJg104fTprXVtvA7rD5b5hgzI/uXaQnb54uH0R4BTglB80rOwbVmTgbcQf2tL26fa1HJ2z1mlcBrGlObV5FA5u9gZXNK0KqZwRUyLB5tY0rp96BpUyDVXDQvLJ9UGXHkErNa7UbWGxaORFQuXllM6iSA1Dt8A3sm28bcIAVATWzeYXMbl6t874D+x3dvtaky58cS0BVAKttXrdbQM3awCKg+sbGFbL65tVuXyvZwF72eOc27UcEwKJOGlxO38Bi22rSA1qA1qLvwMoNrAO0TYbYKwbtxQG3eUWQTWlePZBNgJbSb14l0EqQZXPjKjLZwCbePaPta6360maAV9m8mkSAraF5ZRPABkAbg6zrujewAK2cegc2dNK8kglgA6BFiOUUbq0NrAuzDLIu0LIt2AZASwDLLlKmeb0oo3klJ80rG0EWUoBsSaDF5tUkAixnCaCl5pWt7Wv1un3nZNi8sglkE6ClNADLmRihNR1orS3Q2qznDuyrftJNT9+ZOmIAdt2MvUhQ0QbWh1a0ANY878D64Cqb2M90Nx5irxhcJHAlYOUWVgBraXCdIXC1oOo7G1wr38Dq9rV24Qe2LLhaUPWdDa56B5aBtTJwlcCauDy46h1YkwiqaeDK6TSwkAJYA3DlBBe9gcXmNR1ckysEmU0swapJBFUHXJPtawKuwgJYA3A1mTSxJ6/V9rVa4Zu2HGANwLU178Deum2C/gk6U0cMwKLOGErOarEL38ACvHI6FttXuYFlkGUfs2fRvAGrEfrcnoXoX5+ac1xxE4sAmwa0T3IiwIoEaM3cwAqnbWD3tcubH1pIh+YPR69eO2HgVTpzAwvQWhporZ0NrN6BDYwQy+kYoFXvwKYALTWwQRMrIFYa4bUVNrAHZ5ai/3t1r4HX379oP6WF11SgBYjlBjYBWm5gOS3ExkCb4vQNbGmg1fa1Op350Ej0307bAd5pG1hOgliTMci6zncDmwK0AK9ZG9h339BL/wSdqyMKYLG4e1s3AGkrbWDJsnk13j4PTnLjdHEj7HUTy9EbtzGwEqBy80oOmlc2g2qtG1hyJc0rprav1evmvnkA1VECVgBSA6wWUNlVb2C9BjZ7A2uNgKp3YG06RkCFbN4G1lrvwNauq7dNJpMBtgesCKicyWTAwilmDKpsH1QvyGheyQGoskXzil9/44FD9NSqSvSBX/QZeI1B1TeDqtPAgkXrijagSukYm1dIOxkAGGX7oMoZQyo1ryU2sA/tn6F/is7VEQWwqBvGeEqQNLDJBrbC5hUybl4NyKY0r5yydRVGaC21gQ2BdiG6aST/5vGKg0vRv25xW9eyzStkALQEsgnQUprWlYE2SYTW6jewM1Fvi97KbVWd2zUbPXc1Na6cBmRF82oSATZJhNbqN7CcFmJNeiDLrnsDy2BrADZsYAOgxdaV029eOYURXtObV2sLtDYlyAZAG7euCLBJIrTWtYEtC7SQBmjJCLCcBLEmEWA5JdBW2ryyReuaAC03r2EDa4A2hllhv3k1QBs2sK1yB/Zb60ej37+YG9ckC9/AchqADcE2AFqaEmj7WpkGphajo6/rtW2rcUbzyiaQTYCW0rSuaAuwDtBKkGX7zasB2rCBzTynRf5sh70yNktHHMAi/ny5PwFV3winnI4BVBlYE3B1obU0uIomlmFVWgCrC66yiZ2Pvte3GO3OAeL2wN/jtN7FdHA1ScAqwZVgtTS4zhC4SmBNnA2u5Tewp+3T9rVS7Zhcio7fOl0CXCWwJi4PrnoHtvoNLKeF1MrAFQA1BtfEegeWMm0Dm9bEeuCa1wb2qeH56JMrhwlYE5cH1+bdgf3K6s68BZq37t0zHb3w0m6CVrIA1nRwbZ07sE//zo5oJ/z8PBJ0xAEsaj19oKshG1hOH2jjDSynANk0oDUQa/06+J9/NLgU9dbw0oPRxcPRpfB/e/S2+eiVW+ZN+2rSA1m2AVoDsp4NyDb2Dmx/i73koRW1f2Y5Omv3bPTCB8aj560eN/D6PARYNgFsCLRsF2zLAy0lgiun3oGNjfDK6RigVe/AWnhtpw3snrHF6ISHR6NnXro/egY2r2CTF9mvLchyWmhNBVqA2OI2sJACZDm1fS2tPaML0efuGox+/Ts7Y2Pr+uuygc1qYhFiHaC1zncDm9LEArz6G9hTVg3RP1Hn64gEWNR5w24L20p3YNOa11dxAniy37RzPrrs4FI0DFBaiX5+aCl6L/zfpE4GnpolYKXG1WTioHllx6A6E2cRd2C1fS2tg3PL0QV74MdijYVWH1hz38AaYKVEQBXpbmBl84qQ6hkBFTJsXm3jyql3YCnTYBUcNK9sH1TZMaRS81rtBhabVk4EVG5e2Qyq5ABU22wD2z+9FH330bHor67oSUD1YgunBlBFZm5gY1AVRkCFzG5ereu9A/v5+44cqKlF56wbif743C4C1NCpzasAVtu8breAmrWBRUD1jY0rZPXNa/oG9t+v3k//REeGjliAHViMog/0IMSC4wZWAC1AazPvwIZA69oCLSSA7NHwv//4noXolN7F6CcAtKvHl6MHJpaja4eXotMPLEaf3bsQvXnHfPTKrdi6UuNqkgA2DWgBYlvpDuyGyWVr+OdyvWTyCZNLJuvyeG1+XGSqx0TW5EUn7xtaiC7tnou+uW0met/jU9FLHxyPnnc/eswkwmvFzatJBNgEbBFaq9/ApgBtDLKuy21gP/zIOHgi+tB6yPU2U73O+hiRjh9mjzn5QUjjh0r7A2shwZiO14wmuWYser/JUZPGD4pM8fse8D3i5v2Q4PeKdLza9XtEGq86BPYz8btXlvF91u+Kc9h8zRkCret8N7AuzDLIukDLtmAbAC0BLPuh/rl091nfvncmOmfDePTpVcPRa34xEP0p/H2fcYltW53mlW0ANsnCN7DYvJpEgOXMBto1vbP1uae0HxRpPSOyhPeLrMMPiHTcne4bt05EJ6wejt54fW/0JwD5snV1m1c2gmxK88omkE2AltIALGclQGttgdZmpXdg//fpO6PNA0fWC36OWIBF3TZxuApwlRtYhFaygNbS4Jo0sPVsYNOaWGOAU0yEVPz6lVsBUBlYY3AFKOX0gJWdgCsBK7ewAlhLg+sMgasFVd/Z4Fp+A4v238gV+1GAOMiXYD5q0/gRkeAXc673PWn8onWQYEzHD1u/UKTxQxNgzonoBZxr0/1PayDB/7Rm3HwdJwAo+vkijR9w/TxOAlWbFlYxU8GVE0GVm1gCVd/Z4Nq4O7A/2tX5n55td5382LgHrl4T6wErOwRX0cQSrJpEUE0DV06ngYUUwBqAKyc4bmIv3Q/2E6AUIPV/I6j6joG1O07ZwLKzwbV17sDi1087N93/8weQYEzrLpvnQIJ/W6Tx913/FufZu8F+7o5+8yxIMKbjM63/B+cZu8zXJs/g3BX9d/bpnr9n/Ruxd9r8LiYYE/zrbA9Y2TGoivbV2AdWdgytzb8De/kTY/Sr88jREQ2wqBMGWvsObAy0on1NgNY2sP+2zabjGGSTtCDLRpCtZQNLYGtAtjl3YJO08PoyCbJsgFgLspwIspAEsOWB1toCrc2SQIsQyxkD7aSBVk7HMcgmaUGWjSA7QUALKSBWGiH2+QZkPRuQrWMDC9BaGmitnQ1sDndg379unH5lqlpZEwvL0V9f3580sTHIum7VO7Ah0HoGaMUMgBZBltOALOVFbARYTguvqUALEMsNbAK03MByWoiNgTbF6RvYMkAr/DROH2YRZFOBlnyOtQVaSAGx0givnI4BWn/rrC4CWpsSZEOg9W3BFuH1f/gwixZA64CtAVlOgFZOH2YBYi3Q2q9jsAVoTW1iY5B1ne8GNgVoAV5xA/uZI+TqgK8jHmA3zdoWttXvwDrNK6dwAKqygcXGVWTqZIDTb17JQfPKZlCtdQNLrqp55RS2zStCqmcfVNmmcU3yRaKBTXPQvD4MYGqAlQCVm1e2B6wGVCmtRfMKX9fcvJIDUGXHoNoed2A3jTXvFcqq6vST7VMAp1VsYCmtRfMKGTevbB9UOWNIpebVJECoAVWbjn1QpQ0sN65x88opYVXYbV45LZwaQBWZuYGlTCYDFk4xY1Bl///t3VuMnVUVB/B3Hkw0vsmTMdH4oAnGRJJiYjRKYjDxkkiMQfQBG28hMUA0Ag8iXkBEDGiqAkq4Brl4iUqxVKgWyqVarIAzbacXZqYdpp3pTGc605nZrrX3WnuvffnO+c6Zc51ZK/lnTSAUHnrg5981e1Ko3lHRvFIyqHLS5pWTgPUtvD1SqXmlnTWvHIaq2Da3FJpX2lEQqLA9VG+WzWsItq52l7AKwZbVQRVA6rfDaQRVTgLW877/GoGVgCrbV4iHahqGatTAIlLjWKjSjoLNK2x3MgAY5aRQ5Z02r7Av3HbIzJ7dnD/cZ9MDFufXJ/mUoGbzCts3rxayheaVt2xdRRCtnbqBLSUDLbauHrTiBrYKtIDYQXwHtgjaQorNawm0iFjeIojW0LyKBlZANgKtb15dHGi5ec0bWAtaj1kRC1luXgGtTUHLkbCtaF4j0NIu3sD25x3YX4zq6cCwzUf/dKIHN7B5A7ved2Cj5pW3DUK20LxyuHEVuy83sLwtYHPYZqDFppW3By01r7xFEK21mlcL2byBDacE5SBao+aV4yEbtgMtByE7WgO0sLl1xSBgef9gJG5eS6D1zSuHYAtojZpXDkE2gJa2bV0xBdBKyHLS5tWCNm9gGbSYHQfP0Kdx840CFgafVb2G3oZFnBabWIAqgzXANUZrY7iKJpaxKiPAGsNVNrGAUt4pWhGsEVypga1qYhOwcixc7SawSrgSVhvDdYHgKsEaUg3XLt3AckpwjUJNLMK11MQKsMZwdVB1G1DKOwErJ8CVGtiO3MDCRrCWmliEKm+EKu8IrCHN4dqdG9itL2zsn9m9UeeRgwuE1nZvYCkWrIjVuk2sbGBhI1hLTSxClTdClTdBNd4OqfXgCkD1cA1pDtf+vQMb4BpjVaYarqGBrXcDyyk0sSlaMQKsbgNQLVwdWN0GlFbBFcEawVWAtdTEJmDlIFTDyYCIAGsZrv15B/amZzb3274KWJoDS8Z8/kgXbmB5p6D1N7C8BWRLoBXtawBtP25gKRayvX0Htj83sLDbuoF1QbTyjuIhG7aDLAch28cb2NqgpY1w5d3iDeyF8Ne9rKcDQzuX7Zh2iC01sQP6DmwO2jQOtrVBu8197SAbYItoLYIWENu9G1jYArIZaEXiG9h1NLEI1xJoAa+8owBaO3cD63YUD9mwZQPLuzloYcsGlreArN2I2Ai0Lp29gY2b2EsfOkafwM07ClgxT8+v5VAd4HdgZQJUqXG127WtUfPKSaE64O/AVp8MyOYVkZokhSqHGtfe38BS49ryDewMgZUaV7tDMqhyPFQH9x3Ye8YW6ROoM4zz5LHFejewEqrDfgOLQG31BtZDVQSBCru6eXVZ7zuwHb+BRaAKsNa6gWWkyiBQYZeb15De3sDmKTavAqyueUWcQqpuYCVUOdi4wm61eX3HT0bM6LS+ja6ATeb+U/RNXYDWYXkHtpRi82o3QlbcwCJgS6AFxA7SO7D1QesyWDeweSxoLWSTWMjWuIEFxPIOoA07Ay1BNoCWNratdiNgA2wRra3fwBZA6yEbh29gf/Ka3r1uhPn5/rm4ebWgLTSvlaClpM1rFWgBrzFoOQ62GWgJsBlosW21GwEbNqJ1oG9gsXm1GwHLuwFoqWnldPYGNkCWU30D62CLaK13SkCxgA0b0VoELeAVd0vNawm0vnnlIGRhC8hmoBXp9juwD76sr7XgKGALc9OJ1QJc5Q0sopUi0NoYrqGB1XdgCasyooFtq4kFnDq4JjewCNUquEYJDay+A0tYlRENbNbEirRyA3vDfzfvNx9sxLlq96k2bmBFE0tYtRuhWoIr76iBhS3AmsGVN0KVdwJWtx1SG8NV34GtdwMrG1jeDqm14IpQzeAKKOWU4CrByk0sQjVpYktg5XioivbVJgUrx6O1d+/AXve3E/SJ01HAFmZ21ZgrXxff1JViFuObWNoIV94iiFfeUcTta3YDK+JBK9rXANp+3MASbC1k9R1YD1pELG8P2iG+gQW0NgatS3QD28I7sFfunaNPm85GmbnlNfOZJ96Im1h9B9bvKIBYbmADaLmB5e0Q60FbSPkGtgloRfQdWNopZgGxDrTuaw9bQGuxifWQjdPZG9hXzNf+OEmfNh0cBWzF/Pcs/Mt4DLHa5RtYSuPmlU8GCKe8RTKoVr0+wEmhyjttXilZ88phqLZ7A0tpqXnlLeKaV0RqkhSqHLp97f0NLEc0r7VuYGmnzSslgyrHQ3Vw3oH9xDMzZmWNPmg6G2r2TS+b9z08kYHVQpW2i2heYfvmlZNClbdHKjWvdgNCLVTdjpJCVd+BdUnAqu/ADv47sB+5+zB9ynR4FLANZvtc4Zu6sHG1oHVfO8gWmlfesnUVQbQOxA1sFWgBsfoOLDevooEVkI1A65tXl/gGNm9gLWg9ZkUsZGvcwPL2rauE7WC/Azu7rHrdyPP4oYUO38DmDay+A0vbAjaHbQZabFp5e9BS88pbBNFa/wY2b2Crb2BdEK36DmyCWUzavFrQvmrOgz83v7Q5f1hBo1HANpm7pukeFqDKYA1wjdHaGK6iiWWsygiwxnCVTSyglHeKVgRrBFdqYKua2ASsHAtXuwmsEq6E1cZwXSC4SrCGVMO1SzewnBJco1ATi3AtNbECrDFcHVTdBpTyTsDKCXClBrYjN7CwEaylJhahyhuhyjsCa0hzuK7vBnZ8Uf8lvBnm1n2nM7Q2hmtoYOs1sbKBhY1gLTWxCFXeCFXeBNV4O6TWgysA1cM1pDlc9R3Yet+8BUC1cHVgdRtQWgVXBGsEVwHWUhObgJWDUA0nAyICrGW4dvcd2CMzy/TJ0pGjgK0x3zte+qYul6Y3sLxT0PobWN4CsiXQivY1gLYfN7AUC1l9B9aDFhHLWwTRyjuKh2zYDrIchGwfb2Brg5Y2wpV3xQ3sCyf1rdfNNN/ZMwNolTewookFtA70DWyrTew297WDbIAtorUIWkBs925gYQvIZqAV0Xdgm4EWtmxgeQvI2o2IjUDr0okb2CcPzNMnSicdBWzNufp1hCoiNUkKVU7dG1gCa9vNKyVAlRpXu13bGjWvnBSq+g6s/TqDKiVrXvUd2LARqGLHN7Cued0/q3jdjPPlv09bsGZQ1XdgXRCosKubVxd9B5Z2ClUKtqxR82q3w6kFqtjFk4EBfQf2d/v1JxQ2GgVsC7P1qGxe5SlBC80rBdE6EDewCNgSaAGx+g4sN6+igRWQjUArWtcA2kLzSrGgtZBNYiFb4wYWEMs7gDbsDLQE2QBa2ti22o2ADbBFtLZ+A5uDdgv8WgfmV+gTpLMZ59N/nQrNKyUHLSVtXqtAC3iNQctxsM1AS4DNQIttq90I2LARrQN9A4vNq90IWN4NQEtNK6ezN7ABspzqG1gHW0RrvVMCigVs2IjWImgBr7hbal5LoPXNKwchC1tANgOtSCfegb3rpRn6BOlUjQK2xbkUXyYoNLDN4RoaWH0HlrAqIxrYtppYwKmDa3IDi1CtgmuU0MDqO7CEVRnRwGZNrIi8gb1k14zevOrY+eBjk82bWMKq3QjVElx5Rw0sbAHWDK68Eaq8E7C67ZDaGK76Dmy9G1jZwPJ2SK0FV4RqBldAKacEVwlWbmIRqkkTWwIrx0NVtK82KVg5Hq2dfQf2p7un6ZOj02gUsG1MSzewgFfeUcTta3YDK+JBK9rXANp+3MASbC1k9R1YD1pELG8P2iG+gQW0NgatS3QDK96BvWzPaXNySV8b0Anz7gfE81oCshFoqYHNmliBWBnEq74DW2hiBWQz0IroO7C0U8wCYh1o3dcetoDWYhPrIRunnRvY7+6cok+MTrNRwLY5lx+m8wGGqtgt3cBSGjevfDJAOOUtkkG16vUBTgpV3mnzSsmaVw5Dtd0bWEpLzStvEde8IlKTpFDl0O1r729gOaJ5rXUDSzttXikZVDkeqr17B/bKf82ZRX3oVacwFz4ySVgVzSts37xyUqjy9kil5tVuQKiFqttRUqjqO7AuCVj1HdjBeAdW8draKGDXMdeMr9IpwRDfwFaBFhCr78By8yoaWAHZCLS+eXWJb2DzBtaC1mNWxEK2xg0sb9+6Stj27x3Y20YW6NOho1Oeb+w6adFa/wY2b2D1HVjaFrA5bDPQYtPK24OWmlfeIojW+jeweQNbfQPrgmjVd2BjzCpeWx8F7DrnxskYr41vYBmuhFUZAdYYrrKJBZTyTtGKYI3gSg1sVRObgJVj4Wo3gVXClbDaGK4LBFcJ1pBquHbpBpZTgmsUamIRrqUmVoA1hquDqtuAUt4JWDkBrtTAduQGFjaCtdTEIlR5I1R5R2ANaQ7X8g3sJ/85a3ac0LcKderNna/MJ3ANDWy9JlY2sLARrKUmFqHKG6HKm6Aab4fUenAFoHq4hjSHq74DW++btwCoFq4OrG4DSqvgimCN4CrAWmpiE7ByEKrhZEBEgLUM1/W9A3v7cyfpk6HTyihgOzA3Tq46wLbSxPobWN4CsiXQivY1gLYfN7AUC1l9B9aDFhHLWwTRyjuKh2zYDrIchGwfb2Brg/aUuXb/GXP8rH6zlk5rgz+xC/E6kDewrTax2L560AbYIlqLoAXEdu8GFraAbAZaEX0HthloYcsGlreArN2I2Ai0Ls1uYN8GUH/wP/pUVrujgO3Q3H/SIbblG1gCa9vNKyVAlRpXu13bGjWvnBSq+g6s/TqDKiVrXvUdWLMFfq0HjpylT4COTuvzj4mzZsujky00rxxqXu0GhFqouh0lhaq+A+uSQpW3RyrAVOxi8yrAWusGlpEqg0CFXW5eQ3p7A5un2LwKsLrm1bWslTew1LZyPnz3YfPi+CJ9EnTaGQVsB+fFM2vma0ddCzs0N7AI2BJoAbH6Diw3r6KBFZCNQCta1wDaQvNKsaC1kE1iIVvjBhYQyzuANuwMtATZAFra2LbajYANsEW0Nmpet740Z/4zq++76qx/Xj21bK7YOR01sL55rQIt4DUGLcfBNgMtATYDLbatdiNgw0a0DvQNLDavdiNgeTcALTWtnM7ewAbIcqpvYB1sEa31TgkoFrBhI1qLoAW84m6peS2B1jevHIQsbAHZDLQizd6B/cofJ82ZZf1/rdY7CtgOz2n4b/pPT6wW0BoaWH0HlrAqIxrYtppYwKmDa3IDi1CtgmuU0MDqO7ACrBxqYD+1e9Y8cFRbV53Oz29enTcXPDThmliEasMmVjawsAVYM7jyRqjyTsDqtkNqY7jqO7D1bmBlA8vbIbUWXBGqGVwBpZwSXCVYuYlFqCZNbAmsHA9V0b7apGDleLTWfwf2tmf13rVTo4Dt0mw/vWYuH1uxeG18Ayub2ADZDLSifQ2g7ccNLMHWQlbfgfWgRcTy9qAd4htYQKsE7cUA7TvHFs38OX0eS6d7MzJzznz9mZN5EysQK4N41XdgC02sgGwGWhF9B5Z2illArAOt+9rDFtBabGI9ZOPIG9hL7jtqdh3WV1o6OQrYLs4k/Mf+x5MOsRaqpRtYSuPmlU8GCKe8RTKoVr0+wEmhyjttXilZ88phqLZ7A0tpqXnlLeKaV0RqkhSqHLp97f0NLEc0r7VuYGmnzSslgyrHQ7W9G9iLdp4yPxtd0G/S0unp3P+/efOBhycCVAVYXah5tRsQaqHqdpQUqvoOrEsCVn0HtnvvwJ7/4xFtXbs0CtgeDLaxXzgUN7CI1oG4ga0CLSBW34Hl5lU0sAKyEWh98+oS38DmDawFrcesiIVsjRtY3r51lbDtzDuwP3xtwRw6o3euOv2ZI3Mr5lu7T5m335M3sPoOLG0L2By2GWixaeXtQUvNK28RRGv9G9i8ga2+gXVBtG6Gd2C/+Ni4eXVqiX5H63R6FLA9mqlza+aXU6vm43gLy1iVEWCN4SqbWEAp7xStCNYIrtTAVjWxCVg5Fq52E1glXAmrjeEqb2B5h1TDtUs3sJwSXKNQE4twLTWxAqwxXB1U3QaU8k7AyglwpQa2IzewsBGspSYWocoboco7AmvIp56dNT8/uGhG5xWuOoMxr5xcNtfvmTHvuvd1fQeWdwJWezLQEK7t3sBSLFgRq0kTK9BqwcrbY7XQxKZoxQiwug1AtXB1YHUbUFoFVwRrBFcB1lITm4CVg1ANJwMiAqxluMbvwF7+6LjZfmCefgfrdGsUsD2ekbNr5mY8K/A3sOEW1kO2BFrRvgbQ9uMGlmIhq+/AetAiYnmLIFp5R/GQDdtBloOQ7d0N7Df3zZu/TC4b/QmwOoM6B2bPmRtfnDXvfWA8NLGAV30HNm1iYQvIZqAV0Xdgm4EWtmxgeQvI2g1ofRv881/1xAmzd0K/ybVXo4Dt0zw/v2ZuGF/xYG27eaUEqFLjardrW6PmlZNCVd+BtV9nUKVkzesGeAf2E7tnzW2ji+YVfDpDR2dI5tj8irl576y56JEJwGpF88pJoarvwLqkUOXtkQowFbvYvAqw1rqBZaTKIFBhl5vXkN7ewOYpNq+0t9x52Nyye9ochf+BpdPbUcD2ecaW1sw906vmijFqYQVkY9DG6dgNLAK2BFpArL4Dy82raGAFZCPQitY1gLbQvFIsaC1kk1jI1riBBcTyDqANOwMtQfZzz8+Zm0YWzBPHl82i1q06Qz5PHVs01z03Yy76HWIW21cELTevOWQz0GLbajcCNmxE60DfwGLzajcClncD0FLTyunsDWyALKf6BtbBFtFa75SAYgEbNqK1CFrAK+6WmtcSaH3zykHIwibIvhX+Hlf8YcL8eUTPBPo5CtgBmqdPr5ofTayYz44SWi1cazaxCNYIrgBUBquHK6CUdwJWToArgZVbWAHWxnDVd2DtLqAVE+BKDWxHbmAdVnGncP0Q/Brf3n/GPDa+ZA6d0ZcEdDbu7EDMPnvKYjaCqwBsgGsMVrcdUhvDVd+BrXcDKxtY3g6pteCKUM3gCijlSLRiUrByE4tQTZrYElg5HqqifbUBtJ4P//xfenzC/PqlGTM2s0y/63T6OQrYAZ0982vmjuMr5osHz7kmVrSvAbT9uIEl2FrI6juwHrSIWN4etL2/gf30njlzNYB129hZ87L+pCydTTo7AbO3/uu0+cL2KfOe+8brNbEygFbcGWgRsrwtZGnb9hWDgOXt8FoELSCWG9gAWm5geTvEetAWUr6BbQJaEX0HlnaKWUDsm+CPb7nrsLl+55TZdUTfbx3EUcAOwbxxbs3snls1v51aMdcePWcuHcnBmkG16vUBTgpV3mnzSsmaVw5Dtd0bWEpLzStvEde8IlKTpFDl0O1r729gOaJ5rXUDS5ua14/B3/+r/543t4wumt9PLJn9p1fMkhasOjrF2Tu1ZH61f85sfeoN8/4HxwGnrnH1zStviVWRuHnl7XBqgSp25Q0s7XAy4HCK20OVk0L1jormlZJBlZM2r5wErJvtHdg3w19z/q2j5p23HzQXbBuzUL343qPm6u0nzL37Zs3Lx/UbsYZhFLA6Ojo6Ojo6OjpDNQpYHR0dHR0dHR2doRoFrI6Ojo6Ojo6OzlCNAlZHR0dHR0dHR2eoRgGro6Ojo6Ojo6MzVKOA1dHR0dHR0dHRGapRwOro6Ojo6Ojo6AzVKGB1dHR0dHR0dHSGahSwOjo6Ojo6Ojo6QzUKWB0dHR0dHR0dnSEaY/4PrEpPnG469nAAAAAASUVORK5CYII=;" vertex="1" parent="1">
          <mxGeometry x="665" y="1550" width="68.07" height="41.95" as="geometry" />
        </mxCell>
        <mxCell id="TsZBrLs7c3VGLClS2bjf-58" style="edgeStyle=orthogonalEdgeStyle;rounded=0;orthogonalLoop=1;jettySize=auto;html=1;" edge="1" parent="1" source="TsZBrLs7c3VGLClS2bjf-49" target="TsZBrLs7c3VGLClS2bjf-52">
          <mxGeometry relative="1" as="geometry" />
        </mxCell>
        <mxCell id="TsZBrLs7c3VGLClS2bjf-49" value="Open&#xa;HTTP&#xa;File Source" style="shape=image;verticalLabelPosition=bottom;labelBackgroundColor=default;verticalAlign=top;aspect=fixed;imageAspect=0;image=data:image/png,iVBORw0KGgoAAAANSUhEUgAAAgAAAAIACAMAAADDpiTIAAAAA3NCSVQICAjb4U/gAAAACXBIWXMAAA3XAAAN1wFCKJt4AAAAGXRFWHRTb2Z0d2FyZQB3d3cuaW5rc2NhcGUub3Jnm+48GgAAAtBQTFRF////AAAAAAAAAAAAAAAAAAAAAAAAAAAAAAAAAAAAAAAAAAAAAAAAAAAAAAAAAAAAAAAAAAAAAAAAAAAAAAAAAAAAAAAAAAAAAAAAAAAAAAAAAAAAAAAAAAAAAAAAAAAAAAAAAAAAAAAAAAAAAAAAAAAAAAAAAAAAAAAAAAAAAAAAAAAAAAAAAAAAAAAAAAAAAAAAAAAAAAAAAAAAAAAAAAAAAAAAAAAAAAAAAAAAAAAAAAAAAAAAAAAAAAAAAAAAAAAAAAAAAAAAAAAAAAAAAAAAAAAAAAAAAAAAAAAAAAAAAAAAAAAAAAAAAAAAAAAAAAAAAAAAAAAAAAAAAAAAAAAAAAAAAAAAAAAAAAAAAAAAAAAAAAAAAAAAAAAAAAAAAAAAAAAAAAAAAAAAAAAAAAAAAAAAAAAAAAAAAAAAAAAAAAAAAAAAAAAAAAAAAAAAAAAAAAAAAAAAAAAAAAAAAAAAAAAAAAAAAAAAAAAAAAAAAAAAAAAAAAAAAAAAAAAAAAAAAAAAAAAAAAAAAAAAAAAAAAAAAAAAAAAAAAAAAAAAAAAAAAAAAAAAAAAAAAAAAAAAAAAAAAAAAAAAAAAAAAAAAAAAAAAAAAAAAAAAAAAAAAAAAAAAAAAAAAAAAAAAAAAAAAAAAAAAAAAAAAAAAAAAAAAAAAAAAAAAAAAAAAAAAAAAAAAAAAAAAAAAAAAAAAAAAAAAAAAAAAAAAAAAAAAAAAAAAAAAAAAAAAAAAAAAAAAAAAAAAAAAAAAAAAAAAAAAAAAAAAAAAAAAAAAAAAAAAAAAAAAAAAAAAAAAAAAAAAAAAAAAAAAAAAAAAAAAAAAAAAAAAAAAAAAAAAAAAAAAAAAAAAAAAAAAAAAAAAAAAAAAAAAAAAAAAAAAAAAAAAAAAAAAAAAAAAAAAAAAAAAAAAAAAAAAAAAAAAAAAAAAAAAAAAAAAAAAAAAAAAAAjcMAnQAAAO90Uk5TAAECAwQFBgcICQoLDA0OEBESExQVFhcYGRobHB0eHyAhIiQlJicoKSorLC0uLzAxMzQ2Nzg6Ozw9Pj9AQUJDR0hJSktMTU5RU1RVV1hZWltcXV5fYGFiY2RlZmdoaWprbG1ub3BxcnN0dXZ3eHl6e3x9fn+AgYKDhIaHiImKjI2Oj5CRkpOUlZaXmJmam5ydnp+goaKkpaanqKmqq6ytrq+wsbKztLW2t7i5uru8vb6/wMHCw8TFxsfIycrLzM3Oz9DR0tPU1dbX2Nna29zd3t/g4eLj5ebn6Onq6+zt7u/w8fLz9PX29/j5+vv8/f5uTquXAAAVSElEQVR42u2d/3+V1X3Ab3IDAgkMwTYE+SoMSsSyMSAyBQ1QlUmNRGzLKgUUJ4YBgw4ZlNWA6TYULEVmlW50JqybIxRUgqQNrOoQGVooJcRSIl9saBKS3H9hxb5GyL2fc+957jnP85zbvN8/n/M5zz2fd3I/z3nOc24kAgAAAAAAAAAAAAAAAAAAAAAAAAAA3Yxe4+5/7OlnNr74yqtgnVde3PjM04/dP66Xm7nvd9/GPb9oj4HvtP9iz8b7+jmV/KyitYfayEyQtB1aW5TlSPrHrjtNQsLg9LqxDnzrLzhMJsLj8IJwK4K8pQ0kIVwaluaFlv6+q86TgPA5v6pvOPl/sJ7Jd4P6B0NI/+hqJt4dqkcHfeO3splZd4nmlYHeFObuYspdY1ducPkf9g7z7R7vDAsq/3eeY7Zd5NydweR/fitz7Sat8wNIf04FE+0uFTl+57//XmbZZfb29zf/N9Uyx25Te5OvArzEDLvOS37mfynz6z5L/ct/MTt+MoD2Yr/yP+Yis5sJXBzj0w3ACb3xLx/ft5MtnPbZue/4Zb0MnPDlViC6J+XAbfuX3DU6vP0J3YC80XcteSP19ss9UR/G3pRi0KYfPjKADAXBgHmvXUmRjE32R52WfMSz83uTmeDos+Dj5PmYZnvEnh8kG+7TVX1ISsBfBn/7m2QZ+aCn5fGWJxns6ubPk5Dgyd98NUlSltsdbHiTeqhTd5CMcLjjVJKSbLjVoXaqR3pzIJkIi4FvqvOy0+oSkHoJ8Pke5CE8ejyvXhC0uRy0Q/n1v5AkhMtCZSGww94gI5WDlJCBsClR/nGOtDbGC6ox1jP/4bNelZ0XbI3QV7XuVJnN9IdPdqUiPVdsvTL2qGKA91j2d2NN6D1Fgh61NMA+Ofz54cy9GwxXvKS7z074IYp7QG4A3LkVUNwJDrESfZnioTMLAO4sByi2aiyzEv2AHPwB5t0dHpBzdMBG7Fz5RaBDzLpLHJJfFbLxwug9slxFTLpLFMlZusdC6A1i5LeYc7eQv6g3WIhcJ0Z+kil3i6fENNWZB86RS4ARyg4TF20/eunAxpLUb6vnzlhddfZs1eoZqb+phpVsPHDp6PZFE8m0gtvkIsD8ZdFRYuB3Vc3zr69LtqxIsTX17uvbGU7dnbxldEXL9dXnfHIt876YqFHGcWeJcdcoWpc03tDop8kOsuxT0dHZsqMi2Z7CsT+9IWgjDyBl5GdCs4zjyq8DTpAbl8U9jVDvSciu6dq0Rv1caUzcs6gyki0xyacXBbdKYS/JbcfFHx1Wq/wWKIsPqUxrNP6N9OZxZFsgSzy3batxXPE4wONyquq01yILE65WmdbElei6KOkWOCllqto4rHgixH6x6eLEhs2KxxEHE5selFsOEcReTLYFasTzIozDHpPCfl9sWiW0fEi+ARQeMLbLN4MPCUGryLbAD6RMHTMOe0YK+6zYVDo5fKPYcooUdIrYdKPQsoFsC4gvb54xDntRu7YcrP88arHUVP7HLi5xDibdGnX1Z2cFGIcVd4PMlVoW698vbJGabhGbXpKaFpPuROaKe0KMw4p3l3PEyl5qeVQMukpqukpselRqWki6E5kjpipAAaLS+4PbxaAzpaAzxabbpffeuA90UQDxPmSR2HKQFHSQ2HSR0LKGbDspQLnQUvH4TvixkXq55UQhaDnZdlKAgguJr44oos5LjDlP0TTxtYcLBWTbSQEipfHtGpUPb6u0F3fyG+OblpJsRwVISKv60W1+3LsM59XP+UtYB8wYAQZ2MaAl2bb0yV2eXZycnKTpspYu+edACncF+N23QGcdcCT53Xre5s54m5O/ZVh4pPP7n///bgsQKSivubYe0LB7ScrtaNN3HGuPxdqP7ZieqmXOkt3XHjQ01ZRT/7kuwLUVocJi3cX6vKlTdV8xHlxcyPpPZggACAAIAAgACAAIAAgACAAIAAgACAAIAAgACAAIAAgACAAIAAgACACZIsBzc8A5ngtQAMgYEAABEAABEAABEAABEAABEAABEAABEAABEAABEAABEAABEAABEAABEAABEAABEAABEAABEAABEAABEAAB2BbOtnAEQAAEQAAEQAAEQAAEQAAEQAAEQAAEQACmGwEAAQABAAEAAQABAAEAAQABAAEAAQABAAEAAQABAAEAAQABAAEAAQABAAEAAQABAAEAAQABAAEAAQABAAEAAQABAAEAAQABAAEAAQABAAEAAQABAAEAAQABAAEAAQABAAEQAAEQAAEQAAEQAAEQAAEQAAEQAAEQAAEQAAEQAAEQAAEQAAEQAAEQAAEQAAEQAAH+4JgtZaoNAboNhVKmjiJAtyHaJGRqOwJ0H2qETC1CgO5DuZCpiQjQfSi4kJCoyggCdCNK4/PUmI8A3YqquDyVRBCgWzGwiwHNZREE6HbfAp11QN24CAJ0w0qwvObaekBD1eJoBAG6J9HC4sH2oiFANwcBEAABEAABEAABEAABEAABEAABEAABEAAQABAAEAAQABAAEAAQABAAEAAQALqzAKabEj30z5s6R5vZhVHd8WfrR52ap3mpg2eJ/Wd88XNZQeTx85PGFuTqNf3Cn9x2S8+0BTDdluyh//Qdx9pjXmiqKS/QHF+f9mM7pqdUanFVgzpC6y9rXy75Iz+z33vOf7RdG+nkgl4pPS37n88u6vU/T08A0xcT9PvnbY6lwYVS7fE9sDn5v4FxdalDtFYvvNWv/M+4eH2Yj5f1TtYy69udf1Jvz/AugOmrSR76Tz4ZS4+qgbrje+Dk5CSXWtasF6TjzSm+5P/hq10+f5L/rD1e7nJB8zwLYPpyon7//POxdKnSH1+f8+r3cEs8hPm3Mfbz/0RH1zG2Klvm/lfXlldneRTA9PVkD/3TT1UsVqo9vg2t8hu9hLn6fL7l/I/tiB/jm6qmq+NbXpnkSQDTAwo89J9nkKrYhQLt8T0wT3GplR7jfPoXdgXYnlhuDFCUir9OaLrXkwCmR5R46F9vkqpYuf74+tTLQSd6DtSxxuZ94dDWxBEWyk0XCrc4BV4EMD2kSL//IKNUxWr0x/fAIDHoojQi7cq1J8AmIX6t2DJbKquf8iCA6TFlHvrPNEtVU1R7fA/M1PwPrMG7w6wJcEqKP0Jq+UWp5U88CGB6UKGH/qvMUhUr1B7fA6vESz2aVqwztkrBYWL426WmS6SWxzwIYHpUqYf+WwxzVSwFLTYMukW81Lb0gtX2siPAI2J08R/Ma1LLOg8CmB5W7KH/44a5Eh81DDYM+rj+sxQN/tmOAN8Tg98slQCfSC3fcFOAIrNUNcgX0GAWtciqALG/9q8EiPXQLQFi/+6mAHntRqnaLV/AbqOg7Xl2BWif5VsJcEK7BIhtcFOASK1RrpbIQZcYBa2N2BUg9stefpUAW7RLgN9VS24KML7FIFVHcuSgOUcMgraMty1A7Gm/SoCHtEuAtr6OChBZbpCqQuWNqIFWyyPWBfikv08lQIF2CfCTiKsCRNNftlumvoRl6S8uRu0LEPt7B0oAVwWI9KnoSGtSG5M+oi5pTCtoR0WfiA8C/HZI+CWAswJEInefSmNOK1MsseVXphH01N3qgEaF5bPhlwAOCxDJnbG66qz+bLYd3b5I4+HkxEXbj3pYvjtbtXpGsmc3RgKcDL8EcFkAy/09JHCOvf6DvrTmR79RGjA+kuoPIJmANkoABPBZgGsM36cSYHVE5ytQ9RVUaqEEQIAABIhkLVY8iv7viFYRrChCt1koARAgCAEikSmKxW3VxoDsuNvgmmyh0UntJ2HqEgABghEg8m1ZANUG1rL4hsIW+qE2SgAECEiAXse9LDAWJrxq0FzoTwmAAAEJEJkmtvyOHPVgYsuDmiVAibcSAAGCEqCH+P7QLvkGUKgY2nN9KQEQICgB5Efch8SgU6SmU7RKgA89lgAIEJgA/yC1PC0GXSw1XaxVAmz1WAIgQGAC/KXUslkMukWnurNTAiBAYAKslVr+Sgwqbotf5UsJgACBCfCfUsufiUHFF2Nm+lICIEBgAvxaavkjMaj4atwgX0oABAhKgBH6CRNfjq33pwRAgKAEeFlsuUaOKrweH/96+s/tlAAIEJAA98vPAr6uCJtwQEb8ARVDLJUACBCMAAM+lgX4M0XY+CNyEo6omWupBECAQAQYcVCx4Ux5VkTXQ7ISD6n6rmEJcLUvAgQnwGOfKnYEPa8OfOMxecIxdXIJcKvnEgAB/BYge+zcvco9gfcmC/37gzLlgyrlEuAj7yWAsQCvavN29xHg7c5P/eanSXYFX+6ZInreVMVRtXIJ8KL3EsBYAFP+IAXQZWfaly2XAA97LwEQIEwBpqd92dZKAAQIUYDX075qeyUAAoQnQPsdaV+1vRIAAcITYEfEgRIAAUIToNngsEB7JQAChCbA30VcKAEQICwBXo+mf9EP65cAlSlKAAQISYD/NfkNmRftlQAIEI4AF/7Y5KI/0i4BJqQqARAgFAHa7jG55lv1S4AnU5UACBCGAC2lRtdsswRAgBAE+JXhj0fZLAEQIHgBfjbU8JrlEmCIdglQG0GAEAX4lz6GlyyXAD/XLwG+hQDhCVD/VeNfDJJLgO/qlwD3IkBYAlxeafrnrywB5qZXAiBAgAK0fueWiAWslgAIEJQA7W/91VAb6bdcAiBAIAL8dvdXrfzx2y8B2BTqhwA3bArd+syC+ycN65nm1UmbQu2WAGwL90OAOVb+1BXbwu2WAAjgqgCqF0MslwAI4KgAylfDSuyWAAjgpgDql0O36pcAF8QSIA8BMkAA9evhH9otARDASQHUB0QMtlwCIICTAqiPiJFLgG1plwAI4KIASQ6JkkuA0rRLAARwUYAkx8TJJcDQtEsABHBRAPVBkXIJcDL9EgABXBRAfVSs9RIAAVwU4HEp6OO+lAAI4KIARVLQIl9KAARwUYA86Qcj8nwpARDAyXWAWsXfrv0SAAGcFGB8wg/dt4xXVodGJQACuPksYHl8yN//vNgJ6yUAArgpQDT+hyOj/qwCIICr+wHEn459yH4JgADObgkTfjzahxIAAdzdE5j48/FyCTDMpARAAHcFSKBAHOyUUQmAABkkgFwCfM+oBECADBJALgEeMSoBECCDBPCjBECAzBHAlxIAATJHAF9KAATIHAF8KQEQIHME8KUEQICMEaCHfgnwsH4JgAAZI8DN+iXA1/VLAA8fYLbUsk3/A4TdX6ZNijo7uP76DNMuASJP6ZcAHgQolFoe1f8AYfeXOSpFLQyuvz63a5cAkdX6JYAHAaJNQsvt+h8g7P4y24WgTdHg+uszQrsEkJcBvmX8HVYjtFzk4ROE3V9kkRC0JsD+HhA2CsYqxJZDOoSmk40FKBdaTvTwAcLuLzJRCFoeYH8PLBS2Ct8mN92f2PSIeRVbkLi8UOlpKTPk/jKJi2YXCoLsr8+A1oShXlM0/ZrethGvtzGl8e0a8z19grD7i+Q36k6VP/098M2Ewn6SomWfuvimH/W0cR8bf25FicdPEHZ/kfi99lUB9/dA3IthHerPf0vcsuHZkVYWMgZ2yUBzmdcP0LV/y7Kg+8uUNXfJ38Cg+3u4EarSroCHn72x5Se321rJKu38Hq4bl8ZHuKH/kcIQ+ouM6/yHeaE0hP769F728fWh3v9S8rvGbZ0lw7+OtreUWVBec+1+vKFqcXo3u//ff/eSnFD6y39Zi6sart2/15QXhNLfA70WnLyWoSuHH005/0Oe+2zl5Fzln1pey44WFg82mu6Q+8sMLi6Mhtlfm6xBU2aNytZq2mPUPdM+l6JNkFuawEEQAAEQAAEQAAEQAAEQAAEQAAEQAAEQAAEAAQABAAEAAQABAAEAAQABAAEAAQABICzsbopFgMzCdFs+AmQ2pi/mIEBGY/pqHgJkOH68HIsAGfT/34/X4xEgc+o/Xw7IQICMwZcjchAgc/DlkCwEyBj8OSYPATIGfw7KRICMwZ+jchEgY/DnsGwEQAAEQAAEQAAEQAAEQAAEQAAEQAAEQABAAEAAQABAAEAAQABAAEAAQABAAEAAQABAAEAAQABAAEAAQABAAEAAQABAAEAAQABAAEAAQABAAEAAQABAAEAAQABAAEAAQABAAEAAQABAAEAAQABAAEAAQABAAEAAQABAAARAAARAAARAAARAAASwJkC7FHUu0+0ec6VMtRuHvSiFXcp0u0eZlKmLxmHPSGGfZbrdY5OUqTPGYY9JYb/PdLvHD6RMHTMOWyuF3c90u0eNlKla47DVUtjjTLd7nJQyVW0cdqsU9hLT7RxZzVKmthrHXSreXU5gwl1jUsyf+7VZYtw1TLhrrBcTNcs47igx7rtMuGu8LyZqlHHcnFYx8Ahm3C1uE9PUmmMeuU6M/CRT7hZPiWmqsxB5gxj5LabcLQ6IadpgIfK9YuRYEXPuEkVylu61EDpXLgIOMekucUguAXJtxD4oy/UAs+4OD8g5Omgl+Ao5+IkezLsr9Dgh52iFlehDO+ToC5l4V1goZ6hjqJ3w++Xw54cz824w/Lycof2W4n9FDh97L4+5d4G89xQJ+oqlAfpdUQxQmc3sh092pSI9V/rZGuIFxQix9Ux/+KxXZecFa0OMvKoao4T5D5sSVW6ujrQ3yA7lIN8gA+HyDeUf5w6Lo4xpV40S+8cckhAeOf+kTEz7GJsD7VSOE/vxzeQhLG7+sTovO+3eaTapR/pwLJkIhy98qM5Kk+VVmuXqoWItmwaSjOC55bmWJElZbnm0nh8kGSx2aUUfEhIsuX9zOVlGPuhpe8BpsaTUf603SQmOPo81JM/HNPtjbko+Yqzph48MIDNBMGDea1dSJGOTD8NG98RS0bZ/yV2jeUDgI3mj71ryRlvKROyJ+jF4/xMxLS4f37fzVbDOzn3HL+tl4ER/f/QbczEGGcDFMX79AypuZ3bdp73Yv6+gpUyv+/h6fMtLzK/rvORrFXpTLTPsNrU3+Xsf0n8vc+wye/v7fSeaU8Esu0tFEA/n57cy0W7SOj+Y5ag7zzHXLnLuzqAWJIe9w2y7xzvDAnwWuYv5do1duZEAyVrZzJS7RPPKrICfS42uZtbdoXp0CI8mH6xn4t2g/sFwHk73XXWeyQ+f86v6hrc/YWkDCQiXhqXh7sDpteAwSQiPwwt6hb9Naey602QiDE6vc+WNjKyitYfaSEiQtB1aW5QVcYl+922sPtNBZvyn40z1xvv6RZwkd8KXn1i5rmLbK2zhtM8r2yrWrXziyxNyIwAAAAAAAAAAAAAAAAAAAAAAAAAAAJ74P6RmU9aMtMZ2AAAAAElFTkSuQmCC;" vertex="1" parent="1">
          <mxGeometry x="524.2499999999999" y="890" width="50" height="50" as="geometry" />
        </mxCell>
        <mxCell id="TsZBrLs7c3VGLClS2bjf-59" style="edgeStyle=orthogonalEdgeStyle;rounded=0;orthogonalLoop=1;jettySize=auto;html=1;startArrow=classic;startFill=1;" edge="1" parent="1" source="TsZBrLs7c3VGLClS2bjf-52" target="TsZBrLs7c3VGLClS2bjf-56">
          <mxGeometry relative="1" as="geometry" />
        </mxCell>
        <mxCell id="TsZBrLs7c3VGLClS2bjf-60" style="edgeStyle=orthogonalEdgeStyle;rounded=0;orthogonalLoop=1;jettySize=auto;html=1;startArrow=none;startFill=0;" edge="1" parent="1" source="TsZBrLs7c3VGLClS2bjf-52" target="TsZBrLs7c3VGLClS2bjf-57">
          <mxGeometry relative="1" as="geometry" />
        </mxCell>
        <mxCell id="TsZBrLs7c3VGLClS2bjf-52" value="Data Factory" style="aspect=fixed;html=1;points=[];align=center;image;fontSize=12;image=img/lib/azure2/databases/Data_Factory.svg;" vertex="1" parent="1">
          <mxGeometry x="595.09" y="1020" width="50" height="50" as="geometry" />
        </mxCell>
        <mxCell id="TsZBrLs7c3VGLClS2bjf-56" value="Storage Account" style="aspect=fixed;html=1;points=[];align=center;image;fontSize=12;image=img/lib/azure2/storage/Storage_Accounts.svg;" vertex="1" parent="1">
          <mxGeometry x="484.25" y="1025" width="50" height="40" as="geometry" />
        </mxCell>
        <mxCell id="TsZBrLs7c3VGLClS2bjf-57" value="Local Fileshare" style="shape=image;verticalLabelPosition=bottom;labelBackgroundColor=default;verticalAlign=top;aspect=fixed;imageAspect=0;image=data:image/png,iVBORw0KGgoAAAANSUhEUgAAAGQAAABECAYAAAB3TpBiAAAAAXNSR0IArs4c6QAAAARnQU1BAACxjwv8YQUAAAAJcEhZcwAAFiUAABYlAUlSJPAAAARgSURBVHhe7ZzJTttQFIb7iH2GbvoC3fQJuu0izJAAgYghjGEOQ5mygBAEZZYgbFpggZBAIGBz2//WQW44sa/t6xsnOb/0ybGi2Oc/v298ncT5IFiREgcSMXEgERMHEjFxIBGT0UCen5/F0tKS6O3tFU1NTSIWi0VuidoWFxdlrdWQ0UAGBwel8VoAtVZDxgLZ2toSzc3NNcXe3p5VvTkZCQTDv6urS5psaWmpmSVqNv3WZSSQ7e1t0draWpOgdpMKPZCXlxeRSCRIsyU6Ozvle3Y16OnpIWsqgdrhwZRCDySfz4u2tjbR3t5ecZnNZsX5+XlV2NjYcK0PHkwp1EBwZHV3d0tTThweHpLNMgWmulRdJeDB1CgJNZCdnR3R0dHhyNTUFNkkk2CUULXZgRcTCi2Qh4cHaQTnB6clppZUk0xyenoqR4Fbvff395a78BRaIKurq3La6AROqLhyjwI4wVM12oGnsBVKIBgdlKF6AN7CVCiBrK2tiXg8XpfAW5jSHgiOIMzd65kwR4n2QDBjwQmynllfX7fc6pfWQK6urkgD9cjt7a3lWq+0BjI/Py8vsjB7qrScnp4WhUIh0qysrLj6gNcwpC2Q6+trWawbR0dH5LVA1MA0mKrfDjzrlrZA8HlUX1+fJJlMvj22r+OoosxHEZwLy+svX19YWLDc65OWQHCk2AuuxO7uLmk+iuDqfWBggPRhR/co0RIIvoNOpVJv9Pf3v1uPwmdWXlleXq7op/QY3nUqcCA3Nzf/FVuJkZERGUotMT4+TnopBz3QpcCBZDIZObQbmbm5OasbwRUokIuLC7LARgS90KFAgWBYDw0NMX/B9ZUO+Q6kWCzKQoaHh3lpLdGToPIdyOzsrEin04yNmZkZqzv+5SuQy8tLOWtCEZWWONlTU8laZmxszNU3ehNEngN5fX2VzR4dHXUkl8uRpmoZeKK82sGMCz3yK8+BHB8fyyPFicnJSXF2dkaaqmXgCd4oz3bQI7/yFAiSx2wCF0wlJiYm3q3ju2fKUD2AbwzL/Zavo0d+R4mnQE5OTuQO3cBPZvb39+sSeKM8l4Ne+ZFyIEgcMyucPzBsK8HP/3sevfIzSpQDwaef2BmjDnrmVUqBIGnMHqidMpXxM+NSCgTfY1A7ZNw5ODiwuqgm10Cenp7IHTHqPD4+Wt10l2sgGB244MFVKOMd9A49VJVjIPipC36th/skGP+gh3d3d1ZXneUYCD7BpHbAeAejRUWOgeBmFWrjjHdwS4OKHAOhNsz4R0UciEFUxIEYREUciEFUxIEYREWBAvlcKIpPP3+58j2ZIl/faKgoUCAffwslvqUz5OsbDRVxIAZREQdiEBVxIAZRUaBAvmZz4suPvCuxeIJ8faOhokCBMN5QEQdiEBVxIAZREQdiEBVxIAZRkWMguBeb2jDjHdxKrSLHQPBfu9TGGe+o/m+jYyDQ5uam/AccaieMO/hfFNzGoCrXQFhmxYFETBxIpCTEH/n4VcEpRlQEAAAAAElFTkSuQmCC;" vertex="1" parent="1">
          <mxGeometry x="674.2500000000001" y="1140" width="58.82" height="40" as="geometry" />
        </mxCell>
      </root>
    </mxGraphModel>
  </diagram>
</mxfile>
